<?xml version="1.0" encoding="UTF-8" standalone="no"?>
<!DOCTYPE svg PUBLIC "-//W3C//DTD SVG 1.1//EN" "http://www.w3.org/Graphics/SVG/1.1/DTD/svg11.dtd">
<svg xmlns="http://www.w3.org/2000/svg" version="1.1" viewBox="0.00 0.00 256.00 256.00">
<g stroke-width="2.00" fill="none" stroke-linecap="butt">
<path stroke="#ffcc80" vector-effect="non-scaling-stroke" d="
  M 182.55 93.76
  C 175.69 91.06 166.00 90.72 161.12 97.18
  C 156.24 103.63 160.58 111.45 167.73 113.50
  Q 172.19 114.79 176.25 116.36
  C 182.40 118.74 179.56 125.26 174.06 125.94
  Q 167.07 126.82 160.73 123.83
  Q 158.49 122.77 158.54 125.25
  L 158.58 126.80
  Q 158.63 129.01 160.69 129.81
  C 168.90 133.03 183.55 133.61 186.26 123.04
  C 188.97 112.49 179.14 109.96 171.48 107.75
  Q 170.15 107.36 168.87 106.69
  C 164.23 104.28 166.01 98.60 170.82 98.06
  Q 177.31 97.34 182.47 99.61
  Q 184.58 100.54 184.67 98.24
  L 184.71 97.07
  Q 184.81 94.65 182.55 93.76"
/>
<path stroke="#ffcc80" vector-effect="non-scaling-stroke" d="
  M 93.13 104.45
  L 93.13 109.21
  A 0.50 0.50 0.0 0 1 92.48 109.69
  C 86.11 107.76 77.06 107.43 72.28 112.78
  Q 68.02 117.54 69.93 124.20
  Q 71.81 130.72 78.83 131.61
  Q 87.36 132.69 92.94 126.45
  A 0.64 0.64 0.0 0 1 94.01 126.65
  Q 94.77 128.61 96.05 130.13
  Q 97.30 131.62 98.92 130.55
  L 101.15 129.07
  Q 102.76 128.00 101.82 126.32
  Q 100.06 123.18 100.07 120.05
  Q 100.08 113.07 99.97 105.43
  C 99.86 97.65 96.17 92.91 88.35 92.27
  Q 80.53 91.63 73.78 94.51
  Q 71.86 95.34 71.86 97.43
  L 71.87 99.06
  Q 71.87 101.17 73.80 100.33
  Q 80.21 97.55 87.09 98.20
  C 89.41 98.42 91.51 99.61 92.27 101.89
  Q 92.55 102.74 92.93 103.56
  Q 93.13 103.98 93.13 104.45"
/>
<path stroke="#ffcc80" vector-effect="non-scaling-stroke" d="
  M 118.64 122.45
  L 111.69 94.72
  Q 111.32 93.24 109.79 93.22
  L 105.28 93.15
  Q 103.60 93.13 104.09 94.74
  L 114.68 129.55
  A 1.60 1.58 -2.1 0 0 115.87 130.64
  Q 118.49 131.19 121.42 130.81
  A 1.87 1.86 -86.8 0 0 123.00 129.39
  L 129.33 102.76
  Q 129.68 101.30 130.03 102.76
  L 136.47 129.52
  A 1.61 1.59 -1.3 0 0 137.74 130.72
  Q 140.62 131.24 143.34 130.76
  A 1.86 1.84 -86.0 0 0 144.79 129.49
  L 155.63 94.77
  Q 156.11 93.22 154.49 93.22
  L 150.11 93.23
  Q 148.59 93.23 148.21 94.70
  L 141.13 122.24
  Q 140.73 123.79 140.36 122.23
  L 133.68 93.95
  Q 133.51 93.20 132.74 93.20
  L 127.07 93.23
  A 1.30 1.29 6.2 0 0 125.82 94.23
  L 119.18 122.44
  Q 118.92 123.56 118.64 122.45"
/>
<path stroke="#ffcc80" vector-effect="non-scaling-stroke" d="
  M 171.00 142.20
  Q 169.20 142.99 168.06 144.42
  A 0.70 0.69 15.3 0 0 168.70 145.54
  Q 176.26 144.49 182.77 144.89
  Q 186.29 145.10 185.96 148.50
  Q 185.63 151.95 184.26 155.16
  Q 183.62 156.66 183.35 158.18
  Q 183.01 160.01 182.01 161.70
  Q 181.71 162.21 181.85 162.78
  A 0.82 0.82 0.0 0 0 183.20 163.20
  Q 191.71 155.42 192.01 142.92
  A 2.26 2.25 -81.3 0 0 190.38 140.70
  Q 180.78 137.94 171.00 142.20"
/>
<path stroke="#ffcc80" vector-effect="non-scaling-stroke" d="
  M 90.48 153.70
  Q 83.73 150.81 77.06 148.05
  Q 76.52 147.83 75.99 147.58
  Q 70.84 145.20 66.02 142.39
  Q 65.48 142.08 64.87 142.23
  Q 64.19 142.40 64.04 143.02
  Q 63.92 143.52 64.28 143.90
  Q 66.48 146.20 68.99 148.17
  Q 92.99 166.98 123.63 168.33
  Q 127.44 168.50 130.01 168.29
  Q 134.47 167.93 134.52 167.93
  Q 137.05 167.85 139.67 167.72
  Q 142.32 167.60 144.77 167.05
  Q 155.92 164.52 167.09 160.00
  Q 168.27 159.53 169.21 158.76
  Q 170.22 157.95 171.38 157.58
  C 174.47 156.59 177.45 154.27 180.06 152.41
  A 1.70 1.70 0.0 0 0 179.85 149.51
  Q 178.66 148.91 177.05 149.58
  Q 171.32 151.98 165.49 154.11
  Q 165.24 154.20 164.96 154.15
  Q 164.46 154.06 163.98 154.20
  Q 154.30 157.12 145.74 158.26
  Q 143.81 158.52 141.95 158.78
  Q 139.96 159.05 138.02 159.15
  Q 115.61 160.27 92.69 154.03
  C 91.93 153.82 91.21 154.01 90.48 153.70"
/>
<path stroke="#ffcc80" vector-effect="non-scaling-stroke" d="
  M 91.86 121.61
  Q 92.97 121.02 93.04 119.64
  Q 93.15 117.52 93.22 115.15
  Q 93.24 114.53 92.64 114.39
  Q 87.19 113.11 82.23 113.77
  Q 79.75 114.10 77.45 116.38
  Q 77.09 116.73 76.99 117.22
  Q 76.45 119.73 76.87 122.15
  Q 77.10 123.44 77.94 124.38
  C 80.84 127.63 86.87 126.14 89.89 123.89
  Q 90.98 123.07 91.49 121.99
  Q 91.61 121.74 91.86 121.61"
/>
</g>
<path fill="#ff9900" d="
  M 125.88 0.00
  L 130.24 0.00
  Q 133.44 0.31 136.65 0.48
  C 171.94 2.43 205.37 20.28 227.53 47.73
  Q 251.47 77.39 255.10 116.27
  Q 255.56 121.20 256.00 126.13
  L 256.00 130.24
  Q 255.67 133.65 255.48 137.07
  Q 255.28 140.76 254.85 143.95
  Q 249.28 184.72 222.91 213.68
  Q 191.36 248.32 144.28 254.87
  Q 141.63 255.23 137.20 255.48
  Q 133.65 255.68 130.12 256.00
  L 125.76 256.00
  Q 122.59 255.69 119.41 255.51
  C 93.48 254.05 68.70 244.06 48.40 228.08
  C 20.49 206.10 2.47 172.06 0.48 136.53
  Q 0.30 133.32 0.00 130.12
  L 0.00 125.51
  Q 0.32 122.60 0.46 119.66
  C 1.82 92.72 12.78 66.43 29.62 46.39
  Q 62.05 7.80 112.55 1.00
  Q 114.96 0.68 119.22 0.48
  Q 122.56 0.33 125.88 0.00
  Z
  M 182.55 93.76
  C 175.69 91.06 166.00 90.72 161.12 97.18
  C 156.24 103.63 160.58 111.45 167.73 113.50
  Q 172.19 114.79 176.25 116.36
  C 182.40 118.74 179.56 125.26 174.06 125.94
  Q 167.07 126.82 160.73 123.83
  Q 158.49 122.77 158.54 125.25
  L 158.58 126.80
  Q 158.63 129.01 160.69 129.81
  C 168.90 133.03 183.55 133.61 186.26 123.04
  C 188.97 112.49 179.14 109.96 171.48 107.75
  Q 170.15 107.36 168.87 106.69
  C 164.23 104.28 166.01 98.60 170.82 98.06
  Q 177.31 97.34 182.47 99.61
  Q 184.58 100.54 184.67 98.24
  L 184.71 97.07
  Q 184.81 94.65 182.55 93.76
  Z
  M 93.13 104.45
  L 93.13 109.21
  A 0.50 0.50 0.0 0 1 92.48 109.69
  C 86.11 107.76 77.06 107.43 72.28 112.78
  Q 68.02 117.54 69.93 124.20
  Q 71.81 130.72 78.83 131.61
  Q 87.36 132.69 92.94 126.45
  A 0.64 0.64 0.0 0 1 94.01 126.65
  Q 94.77 128.61 96.05 130.13
  Q 97.30 131.62 98.92 130.55
  L 101.15 129.07
  Q 102.76 128.00 101.82 126.32
  Q 100.06 123.18 100.07 120.05
  Q 100.08 113.07 99.97 105.43
  C 99.86 97.65 96.17 92.91 88.35 92.27
  Q 80.53 91.63 73.78 94.51
  Q 71.86 95.34 71.86 97.43
  L 71.87 99.06
  Q 71.87 101.17 73.80 100.33
  Q 80.21 97.55 87.09 98.20
  C 89.41 98.42 91.51 99.61 92.27 101.89
  Q 92.55 102.74 92.93 103.56
  Q 93.13 103.98 93.13 104.45
  Z
  M 118.64 122.45
  L 111.69 94.72
  Q 111.32 93.24 109.79 93.22
  L 105.28 93.15
  Q 103.60 93.13 104.09 94.74
  L 114.68 129.55
  A 1.60 1.58 -2.1 0 0 115.87 130.64
  Q 118.49 131.19 121.42 130.81
  A 1.87 1.86 -86.8 0 0 123.00 129.39
  L 129.33 102.76
  Q 129.68 101.30 130.03 102.76
  L 136.47 129.52
  A 1.61 1.59 -1.3 0 0 137.74 130.72
  Q 140.62 131.24 143.34 130.76
  A 1.86 1.84 -86.0 0 0 144.79 129.49
  L 155.63 94.77
  Q 156.11 93.22 154.49 93.22
  L 150.11 93.23
  Q 148.59 93.23 148.21 94.70
  L 141.13 122.24
  Q 140.73 123.79 140.36 122.23
  L 133.68 93.95
  Q 133.51 93.20 132.74 93.20
  L 127.07 93.23
  A 1.30 1.29 6.2 0 0 125.82 94.23
  L 119.18 122.44
  Q 118.92 123.56 118.64 122.45
  Z
  M 171.00 142.20
  Q 169.20 142.99 168.06 144.42
  A 0.70 0.69 15.3 0 0 168.70 145.54
  Q 176.26 144.49 182.77 144.89
  Q 186.29 145.10 185.96 148.50
  Q 185.63 151.95 184.26 155.16
  Q 183.62 156.66 183.35 158.18
  Q 183.01 160.01 182.01 161.70
  Q 181.71 162.21 181.85 162.78
  A 0.82 0.82 0.0 0 0 183.20 163.20
  Q 191.71 155.42 192.01 142.92
  A 2.26 2.25 -81.3 0 0 190.38 140.70
  Q 180.78 137.94 171.00 142.20
  Z
  M 90.48 153.70
  Q 83.73 150.81 77.06 148.05
  Q 76.52 147.83 75.99 147.58
  Q 70.84 145.20 66.02 142.39
  Q 65.48 142.08 64.87 142.23
  Q 64.19 142.40 64.04 143.02
  Q 63.92 143.52 64.28 143.90
  Q 66.48 146.20 68.99 148.17
  Q 92.99 166.98 123.63 168.33
  Q 127.44 168.50 130.01 168.29
  Q 134.47 167.93 134.52 167.93
  Q 137.05 167.85 139.67 167.72
  Q 142.32 167.60 144.77 167.05
  Q 155.92 164.52 167.09 160.00
  Q 168.27 159.53 169.21 158.76
  Q 170.22 157.95 171.38 157.58
  C 174.47 156.59 177.45 154.27 180.06 152.41
  A 1.70 1.70 0.0 0 0 179.85 149.51
  Q 178.66 148.91 177.05 149.58
  Q 171.32 151.98 165.49 154.11
  Q 165.24 154.20 164.96 154.15
  Q 164.46 154.06 163.98 154.20
  Q 154.30 157.12 145.74 158.26
  Q 143.81 158.52 141.95 158.78
  Q 139.96 159.05 138.02 159.15
  Q 115.61 160.27 92.69 154.03
  C 91.93 153.82 91.21 154.01 90.48 153.70
  Z"
/>
<path fill="#ffffff" d="
  M 182.55 93.76
  Q 184.81 94.65 184.71 97.07
  L 184.67 98.24
  Q 184.58 100.54 182.47 99.61
  Q 177.31 97.34 170.82 98.06
  C 166.01 98.60 164.23 104.28 168.87 106.69
  Q 170.15 107.36 171.48 107.75
  C 179.14 109.96 188.97 112.49 186.26 123.04
  C 183.55 133.61 168.90 133.03 160.69 129.81
  Q 158.63 129.01 158.58 126.80
  L 158.54 125.25
  Q 158.49 122.77 160.73 123.83
  Q 167.07 126.82 174.06 125.94
  C 179.56 125.26 182.40 118.74 176.25 116.36
  Q 172.19 114.79 167.73 113.50
  C 160.58 111.45 156.24 103.63 161.12 97.18
  C 166.00 90.72 175.69 91.06 182.55 93.76
  Z"
/>
<path fill="#ffffff" d="
  M 92.93 103.56
  Q 92.55 102.74 92.27 101.89
  C 91.51 99.61 89.41 98.42 87.09 98.20
  Q 80.21 97.55 73.80 100.33
  Q 71.87 101.17 71.87 99.06
  L 71.86 97.43
  Q 71.86 95.34 73.78 94.51
  Q 80.53 91.63 88.35 92.27
  C 96.17 92.91 99.86 97.65 99.97 105.43
  Q 100.08 113.07 100.07 120.05
  Q 100.06 123.18 101.82 126.32
  Q 102.76 128.00 101.15 129.07
  L 98.92 130.55
  Q 97.30 131.62 96.05 130.13
  Q 94.77 128.61 94.01 126.65
  A 0.64 0.64 0.0 0 0 92.94 126.45
  Q 87.36 132.69 78.83 131.61
  Q 71.81 130.72 69.93 124.20
  Q 68.02 117.54 72.28 112.78
  C 77.06 107.43 86.11 107.76 92.48 109.69
  A 0.50 0.50 0.0 0 0 93.13 109.21
  L 93.13 104.45
  Q 93.13 103.98 92.93 103.56
  Z
  M 91.86 121.61
  Q 92.97 121.02 93.04 119.64
  Q 93.15 117.52 93.22 115.15
  Q 93.24 114.53 92.64 114.39
  Q 87.19 113.11 82.23 113.77
  Q 79.75 114.10 77.45 116.38
  Q 77.09 116.73 76.99 117.22
  Q 76.45 119.73 76.87 122.15
  Q 77.10 123.44 77.94 124.38
  C 80.84 127.63 86.87 126.14 89.89 123.89
  Q 90.98 123.07 91.49 121.99
  Q 91.61 121.74 91.86 121.61
  Z"
/>
<path fill="#ffffff" d="
  M 119.18 122.44
  L 125.82 94.23
  A 1.30 1.29 6.2 0 1 127.07 93.23
  L 132.74 93.20
  Q 133.51 93.20 133.68 93.95
  L 140.36 122.23
  Q 140.73 123.79 141.13 122.24
  L 148.21 94.70
  Q 148.59 93.23 150.11 93.23
  L 154.49 93.22
  Q 156.11 93.22 155.63 94.77
  L 144.79 129.49
  A 1.86 1.84 -86.0 0 1 143.34 130.76
  Q 140.62 131.24 137.74 130.72
  A 1.61 1.59 -1.3 0 1 136.47 129.52
  L 130.03 102.76
  Q 129.68 101.30 129.33 102.76
  L 123.00 129.39
  A 1.87 1.86 -86.8 0 1 121.42 130.81
  Q 118.49 131.19 115.87 130.64
  A 1.60 1.58 -2.1 0 1 114.68 129.55
  L 104.09 94.74
  Q 103.60 93.13 105.28 93.15
  L 109.79 93.22
  Q 111.32 93.24 111.69 94.72
  L 118.64 122.45
  Q 118.92 123.56 119.18 122.44
  Z"
/>
<path fill="#ff9900" d="
  M 91.49 121.99
  Q 90.98 123.07 89.89 123.89
  C 86.87 126.14 80.84 127.63 77.94 124.38
  Q 77.10 123.44 76.87 122.15
  Q 76.45 119.73 76.99 117.22
  Q 77.09 116.73 77.45 116.38
  Q 79.75 114.10 82.23 113.77
  Q 87.19 113.11 92.64 114.39
  Q 93.24 114.53 93.22 115.15
  Q 93.15 117.52 93.04 119.64
  Q 92.97 121.02 91.86 121.61
  Q 91.61 121.74 91.49 121.99
  Z"
/>
<path fill="#ffffff" d="
  M 171.00 142.20
  Q 180.78 137.94 190.38 140.70
  A 2.26 2.25 -81.3 0 1 192.01 142.92
  Q 191.71 155.42 183.20 163.20
  A 0.82 0.82 0.0 0 1 181.85 162.78
  Q 181.71 162.21 182.01 161.70
  Q 183.01 160.01 183.35 158.18
  Q 183.62 156.66 184.26 155.16
  Q 185.63 151.95 185.96 148.50
  Q 186.29 145.10 182.77 144.89
  Q 176.26 144.49 168.70 145.54
  A 0.70 0.69 15.3 0 1 168.06 144.42
  Q 169.20 142.99 171.00 142.20
  Z"
/>
<path fill="#ffffff" d="
  M 90.48 153.70
  C 91.21 154.01 91.93 153.82 92.69 154.03
  Q 115.61 160.27 138.02 159.15
  Q 139.96 159.05 141.95 158.78
  Q 143.81 158.52 145.74 158.26
  Q 154.30 157.12 163.98 154.20
  Q 164.46 154.06 164.96 154.15
  Q 165.24 154.20 165.49 154.11
  Q 171.32 151.98 177.05 149.58
  Q 178.66 148.91 179.85 149.51
  A 1.70 1.70 0.0 0 1 180.06 152.41
  C 177.45 154.27 174.47 156.59 171.38 157.58
  Q 170.22 157.95 169.21 158.76
  Q 168.27 159.53 167.09 160.00
  Q 155.92 164.52 144.77 167.05
  Q 142.32 167.60 139.67 167.72
  Q 137.05 167.85 134.52 167.93
  Q 134.47 167.93 130.01 168.29
  Q 127.44 168.50 123.63 168.33
  Q 92.99 166.98 68.99 148.17
  Q 66.48 146.20 64.28 143.90
  Q 63.92 143.52 64.04 143.02
  Q 64.19 142.40 64.87 142.23
  Q 65.48 142.08 66.02 142.39
  Q 70.84 145.20 75.99 147.58
  Q 76.52 147.83 77.06 148.05
  Q 83.73 150.81 90.48 153.70
  Z"
/>
</svg>
