<?xml version="1.0" encoding="UTF-8" standalone="no"?>
<!DOCTYPE svg PUBLIC "-//W3C//DTD SVG 1.1//EN" "http://www.w3.org/Graphics/SVG/1.1/DTD/svg11.dtd">
<svg xmlns="http://www.w3.org/2000/svg" version="1.1" viewBox="0.00 0.00 512.00 512.00">
<path stroke="#8fcbfa" stroke-width="2.00" fill="none" stroke-linecap="butt" vector-effect="non-scaling-stroke" d="
  M 322.86 259.33
  A 0.31 0.31 0.0 0 1 323.17 259.67
  L 315.20 332.45
  A 0.31 0.31 0.0 0 1 314.98 332.72
  L 256.45 348.54
  A 0.31 0.31 0.0 0 1 256.29 348.54
  L 197.72 332.70
  A 0.31 0.31 0.0 0 1 197.49 332.42
  L 193.60 288.97
  A 0.31 0.31 0.0 0 0 193.29 288.69
  L 140.94 288.68
  A 0.31 0.31 0.0 0 0 140.63 289.02
  L 148.11 373.25
  A 0.31 0.31 0.0 0 0 148.34 373.52
  L 256.29 403.49
  A 0.31 0.31 0.0 0 0 256.45 403.49
  L 364.32 373.58
  A 0.31 0.31 0.0 0 0 364.55 373.31
  L 388.51 104.77
  A 0.31 0.31 0.0 0 0 388.20 104.43
  L 124.49 104.42
  A 0.31 0.31 0.0 0 0 124.18 104.75
  L 127.57 154.06
  A 0.31 0.31 0.0 0 0 127.88 154.35
  L 331.27 153.75
  A 0.31 0.31 0.0 0 1 331.58 154.08
  L 327.67 207.15
  A 0.31 0.31 0.0 0 1 327.37 207.43
  L 133.15 209.73
  A 0.31 0.31 0.0 0 0 132.85 210.07
  L 138.03 259.54
  A 0.31 0.31 0.0 0 0 138.34 259.82
  L 322.86 259.33"
/>
<path fill="#2299f8" d="
  M 85.60 446.76
  L 47.63 16.81
  A 0.32 0.32 0.0 0 1 47.95 16.46
  L 464.75 16.46
  A 0.32 0.32 0.0 0 1 465.07 16.81
  L 427.03 446.85
  A 0.32 0.32 0.0 0 1 426.80 447.13
  L 256.55 494.83
  A 0.32 0.32 0.0 0 1 256.37 494.83
  L 85.83 447.04
  A 0.32 0.32 0.0 0 1 85.60 446.76
  Z
  M 322.86 259.33
  A 0.31 0.31 0.0 0 1 323.17 259.67
  L 315.20 332.45
  A 0.31 0.31 0.0 0 1 314.98 332.72
  L 256.45 348.54
  A 0.31 0.31 0.0 0 1 256.29 348.54
  L 197.72 332.70
  A 0.31 0.31 0.0 0 1 197.49 332.42
  L 193.60 288.97
  A 0.31 0.31 0.0 0 0 193.29 288.69
  L 140.94 288.68
  A 0.31 0.31 0.0 0 0 140.63 289.02
  L 148.11 373.25
  A 0.31 0.31 0.0 0 0 148.34 373.52
  L 256.29 403.49
  A 0.31 0.31 0.0 0 0 256.45 403.49
  L 364.32 373.58
  A 0.31 0.31 0.0 0 0 364.55 373.31
  L 388.51 104.77
  A 0.31 0.31 0.0 0 0 388.20 104.43
  L 124.49 104.42
  A 0.31 0.31 0.0 0 0 124.18 104.75
  L 127.57 154.06
  A 0.31 0.31 0.0 0 0 127.88 154.35
  L 331.27 153.75
  A 0.31 0.31 0.0 0 1 331.58 154.08
  L 327.67 207.15
  A 0.31 0.31 0.0 0 1 327.37 207.43
  L 133.15 209.73
  A 0.31 0.31 0.0 0 0 132.85 210.07
  L 138.03 259.54
  A 0.31 0.31 0.0 0 0 138.34 259.82
  L 322.86 259.33
  Z"
/>
<path fill="#fcfcfc" d="
  M 322.86 259.33
  L 138.34 259.82
  A 0.31 0.31 0.0 0 1 138.03 259.54
  L 132.85 210.07
  A 0.31 0.31 0.0 0 1 133.15 209.73
  L 327.37 207.43
  A 0.31 0.31 0.0 0 0 327.67 207.15
  L 331.58 154.08
  A 0.31 0.31 0.0 0 0 331.27 153.75
  L 127.88 154.35
  A 0.31 0.31 0.0 0 1 127.57 154.06
  L 124.18 104.75
  A 0.31 0.31 0.0 0 1 124.49 104.42
  L 388.20 104.43
  A 0.31 0.31 0.0 0 1 388.51 104.77
  L 364.55 373.31
  A 0.31 0.31 0.0 0 1 364.32 373.58
  L 256.45 403.49
  A 0.31 0.31 0.0 0 1 256.29 403.49
  L 148.34 373.52
  A 0.31 0.31 0.0 0 1 148.11 373.25
  L 140.63 289.02
  A 0.31 0.31 0.0 0 1 140.94 288.68
  L 193.29 288.69
  A 0.31 0.31 0.0 0 1 193.60 288.97
  L 197.49 332.42
  A 0.31 0.31 0.0 0 0 197.72 332.70
  L 256.29 348.54
  A 0.31 0.31 0.0 0 0 256.45 348.54
  L 314.98 332.72
  A 0.31 0.31 0.0 0 0 315.20 332.45
  L 323.17 259.67
  A 0.31 0.31 0.0 0 0 322.86 259.33
  Z"
/>
</svg>
