<?xml version="1.0" encoding="UTF-8" standalone="no"?>
<!DOCTYPE svg PUBLIC "-//W3C//DTD SVG 1.1//EN" "http://www.w3.org/Graphics/SVG/1.1/DTD/svg11.dtd">
<svg xmlns="http://www.w3.org/2000/svg" version="1.1" viewBox="0.00 0.00 255.00 256.00">
<g stroke-width="2.00" fill="none" stroke-linecap="butt">
<path stroke="#458ec9" vector-effect="non-scaling-stroke" d="
  M 184.17 59.32
  L 49.51 48.69"
/>
<path stroke="#3e88c4" vector-effect="non-scaling-stroke" d="
  M 220.42 221.05
  Q 135.27 135.83 50.16 50.59
  Q 49.81 50.24 49.71 50.27
  A 0.98 0.97 79.7 0 0 49.02 51.28
  Q 54.03 116.91 58.99 182.28
  C 59.15 184.41 59.60 186.46 59.97 188.57"
/>
</g>
<path fill="#66c3fa" d="
  M 184.17 59.32
  L 49.51 48.69
  Q 87.24 26.85 124.93 4.93
  Q 126.56 3.98 128.13 2.95
  C 133.71 -0.75 139.37 -0.09 144.10 4.64
  Q 159.06 19.60 172.36 32.92
  A 10.13 10.07 -78.9 0 1 174.55 36.20
  L 184.17 59.32
  Z"
/>
<path fill="#235997" d="
  M 49.51 48.69
  L 184.17 59.32
  Q 187.49 60.23 190.86 60.93
  Q 194.34 61.66 197.49 62.71
  Q 209.79 66.81 217.78 74.47
  Q 235.35 91.29 253.87 109.64
  A 3.02 3.00 -67.6 0 1 254.75 111.77
  L 254.75 213.49
  Q 254.75 214.00 254.25 214.09
  Q 237.77 217.14 221.00 220.47
  Q 220.55 220.56 220.42 221.05
  Q 135.27 135.83 50.16 50.59
  Q 49.81 50.24 49.71 50.27
  A 0.98 0.97 79.7 0 0 49.02 51.28
  Q 54.03 116.91 58.99 182.28
  C 59.15 184.41 59.60 186.46 59.97 188.57
  L 42.54 181.72
  A 6.66 6.66 0.0 0 1 40.21 180.18
  Q 21.97 161.87 3.50 143.47
  C -0.65 139.33 -0.71 132.92 2.72 128.10
  Q 4.32 125.86 5.88 123.16
  Q 27.29 86.19 48.66 49.20
  Q 48.84 48.89 49.51 48.69
  Z"
/>
<path fill="#58b6f0" d="
  M 220.42 221.05
  L 213.66 256.00
  L 110.65 256.00
  Q 81.46 226.86 73.72 218.27
  Q 65.43 209.08 61.62 195.80
  C 61.01 193.70 60.68 190.95 59.97 188.57
  C 59.60 186.46 59.15 184.41 58.99 182.28
  Q 54.03 116.91 49.02 51.28
  A 0.98 0.97 79.7 0 1 49.71 50.27
  Q 49.81 50.24 50.16 50.59
  Q 135.27 135.83 220.42 221.05
  Z"
/>
</svg>
