<?xml version="1.0" encoding="UTF-8" standalone="no"?>
<!DOCTYPE svg PUBLIC "-//W3C//DTD SVG 1.1//EN" "http://www.w3.org/Graphics/SVG/1.1/DTD/svg11.dtd">
<svg xmlns="http://www.w3.org/2000/svg" version="1.1" viewBox="0.00 0.00 1448.00 1448.00">
<path fill="#f05030" d="
  M 1052.20 633.79
  Q 1016.43 619.66 978.85 631.74
  A 0.84 0.82 58.0 0 1 978.02 631.54
  L 826.71 480.23
  A 0.69 0.68 32.4 0 1 826.55 479.54
  Q 836.57 449.11 828.70 418.78
  C 822.36 394.36 806.82 372.31 785.49 358.18
  C 758.91 340.58 724.84 335.54 694.28 345.95
  A 1.16 1.14 -31.6 0 1 693.10 345.68
  L 536.33 188.91
  A 0.67 0.66 45.3 0 1 536.33 187.96
  Q 598.54 125.67 660.24 64.02
  C 695.26 29.03 751.07 30.03 785.64 64.61
  Q 1083.65 362.72 1382.19 661.12
  Q 1409.39 688.30 1409.74 724.41
  C 1409.94 744.16 1403.78 763.03 1391.85 778.76
  Q 1387.87 784.01 1378.97 792.92
  Q 1084.05 1087.66 793.52 1378.36
  Q 784.47 1387.43 779.51 1391.22
  Q 750.87 1413.14 715.24 1409.12
  Q 684.68 1405.66 662.69 1383.68
  Q 363.81 1084.82 64.81 785.86
  Q 46.31 767.35 40.61 743.22
  C 33.50 713.09 42.35 681.88 64.05 660.17
  Q 269.07 455.09 474.38 249.92
  A 0.47 0.47 0.0 0 1 475.05 249.92
  L 629.71 404.59
  A 0.92 0.91 -58.4 0 1 629.93 405.53
  C 628.80 408.81 627.29 412.14 626.41 415.39
  Q 613.78 461.86 637.85 501.06
  Q 654.96 528.91 686.81 542.78
  A 0.73 0.73 0.0 0 1 687.25 543.45
  L 687.25 918.97
  Q 687.25 919.46 686.80 919.65
  C 651.39 934.77 627.00 966.85 622.73 1005.08
  C 614.96 1074.71 675.87 1132.09 744.94 1120.37
  Q 777.12 1114.91 800.64 1091.87
  C 836.03 1057.20 842.78 1001.84 815.36 959.68
  Q 799.94 935.98 774.14 922.78
  Q 773.64 922.53 773.64 921.96
  L 773.65 550.25
  Q 773.65 549.47 774.20 550.02
  L 915.03 690.84
  A 0.80 0.79 -57.3 0 1 915.21 691.68
  Q 900.68 729.92 913.77 766.89
  C 932.96 821.13 993.93 849.75 1048.01 830.28
  C 1108.37 808.55 1135.14 739.27 1105.91 682.67
  C 1094.75 661.06 1075.30 642.92 1052.20 633.79
  Z"
/>
</svg>
