<?xml version="1.0" encoding="UTF-8" standalone="no"?>
<!DOCTYPE svg PUBLIC "-//W3C//DTD SVG 1.1//EN" "http://www.w3.org/Graphics/SVG/1.1/DTD/svg11.dtd">
<svg xmlns="http://www.w3.org/2000/svg" version="1.1" viewBox="0.00 0.00 512.00 512.00">
<path stroke="#fda98e" stroke-width="2.00" fill="none" stroke-linecap="butt" vector-effect="non-scaling-stroke" d="
  M 176.85 151.08
  A 0.33 0.33 0.0 0 1 177.18 150.72
  L 391.23 150.72
  A 0.33 0.33 0.0 0 0 391.56 150.42
  L 396.47 94.60
  A 0.33 0.33 0.0 0 0 396.14 94.24
  L 115.83 94.24
  A 0.33 0.33 0.0 0 0 115.50 94.60
  L 130.59 264.83
  A 0.33 0.33 0.0 0 0 130.92 265.13
  L 324.74 265.12
  A 0.33 0.33 0.0 0 1 325.07 265.48
  L 318.58 338.21
  A 0.33 0.33 0.0 0 1 318.34 338.50
  L 256.00 355.44
  A 0.33 0.33 0.0 0 1 255.82 355.44
  L 193.66 338.53
  A 0.33 0.33 0.0 0 1 193.42 338.24
  L 189.28 291.67
  A 0.33 0.33 0.0 0 0 188.95 291.37
  L 133.30 291.37
  A 0.33 0.33 0.0 0 0 132.97 291.73
  L 140.95 381.92
  A 0.33 0.33 0.0 0 0 141.19 382.21
  L 255.81 414.26
  A 0.33 0.33 0.0 0 0 255.99 414.26
  L 370.78 382.22
  A 0.33 0.33 0.0 0 0 371.02 381.93
  L 386.38 208.89
  A 0.33 0.33 0.0 0 0 386.05 208.53
  L 182.20 208.53
  A 0.33 0.33 0.0 0 1 181.87 208.23
  L 176.85 151.08"
/>
<path fill="#ff5722" d="
  M 32.03 0.00
  L 479.99 0.00
  L 439.17 460.41
  Q 439.13 460.86 438.69 460.99
  L 256.30 512.00
  L 255.64 512.00
  L 73.08 460.87
  A 0.36 0.35 -83.9 0 1 72.83 460.56
  L 32.03 0.00
  Z
  M 176.85 151.08
  A 0.33 0.33 0.0 0 1 177.18 150.72
  L 391.23 150.72
  A 0.33 0.33 0.0 0 0 391.56 150.42
  L 396.47 94.60
  A 0.33 0.33 0.0 0 0 396.14 94.24
  L 115.83 94.24
  A 0.33 0.33 0.0 0 0 115.50 94.60
  L 130.59 264.83
  A 0.33 0.33 0.0 0 0 130.92 265.13
  L 324.74 265.12
  A 0.33 0.33 0.0 0 1 325.07 265.48
  L 318.58 338.21
  A 0.33 0.33 0.0 0 1 318.34 338.50
  L 256.00 355.44
  A 0.33 0.33 0.0 0 1 255.82 355.44
  L 193.66 338.53
  A 0.33 0.33 0.0 0 1 193.42 338.24
  L 189.28 291.67
  A 0.33 0.33 0.0 0 0 188.95 291.37
  L 133.30 291.37
  A 0.33 0.33 0.0 0 0 132.97 291.73
  L 140.95 381.92
  A 0.33 0.33 0.0 0 0 141.19 382.21
  L 255.81 414.26
  A 0.33 0.33 0.0 0 0 255.99 414.26
  L 370.78 382.22
  A 0.33 0.33 0.0 0 0 371.02 381.93
  L 386.38 208.89
  A 0.33 0.33 0.0 0 0 386.05 208.53
  L 182.20 208.53
  A 0.33 0.33 0.0 0 1 181.87 208.23
  L 176.85 151.08
  Z"
/>
<path fill="#fafafa" d="
  M 176.85 151.08
  L 181.87 208.23
  A 0.33 0.33 0.0 0 0 182.20 208.53
  L 386.05 208.53
  A 0.33 0.33 0.0 0 1 386.38 208.89
  L 371.02 381.93
  A 0.33 0.33 0.0 0 1 370.78 382.22
  L 255.99 414.26
  A 0.33 0.33 0.0 0 1 255.81 414.26
  L 141.19 382.21
  A 0.33 0.33 0.0 0 1 140.95 381.92
  L 132.97 291.73
  A 0.33 0.33 0.0 0 1 133.30 291.37
  L 188.95 291.37
  A 0.33 0.33 0.0 0 1 189.28 291.67
  L 193.42 338.24
  A 0.33 0.33 0.0 0 0 193.66 338.53
  L 255.82 355.44
  A 0.33 0.33 0.0 0 0 256.00 355.44
  L 318.34 338.50
  A 0.33 0.33 0.0 0 0 318.58 338.21
  L 325.07 265.48
  A 0.33 0.33 0.0 0 0 324.74 265.12
  L 130.92 265.13
  A 0.33 0.33 0.0 0 1 130.59 264.83
  L 115.50 94.60
  A 0.33 0.33 0.0 0 1 115.83 94.24
  L 396.14 94.24
  A 0.33 0.33 0.0 0 1 396.47 94.60
  L 391.56 150.42
  A 0.33 0.33 0.0 0 1 391.23 150.72
  L 177.18 150.72
  A 0.33 0.33 0.0 0 0 176.85 151.08
  Z"
/>
</svg>
