<?xml version="1.0" encoding="UTF-8" standalone="no"?>
<!DOCTYPE svg PUBLIC "-//W3C//DTD SVG 1.1//EN" "http://www.w3.org/Graphics/SVG/1.1/DTD/svg11.dtd">
<svg xmlns="http://www.w3.org/2000/svg" version="1.1" viewBox="0.00 0.00 1052.00 1052.00">
<g stroke-width="2.00" fill="none" stroke-linecap="butt">
<path stroke="#f8eda7" vector-effect="non-scaling-stroke" d="
  M 0.00 1051.45
  L 1050.43 1051.76
  A 0.77 0.77 0.0 0 0 1051.20 1050.99
  L 1051.20 1.50
  A 0.50 0.50 0.0 0 0 1050.70 1.00
  L 0.00 1.00"
/>
<path stroke="#918740" vector-effect="non-scaling-stroke" d="
  M 755.88 587.46
  C 766.14 566.69 788.64 561.15 810.74 564.18
  C 835.27 567.53 850.90 584.46 862.23 605.21
  Q 862.48 605.67 862.91 605.39
  L 939.13 556.44
  A 0.19 0.19 0.0 0 0 939.20 556.19
  Q 929.37 538.37 915.69 523.26
  C 894.73 500.10 867.65 485.81 836.91 480.51
  C 777.89 470.33 710.10 483.53 675.13 536.88
  C 655.69 566.54 651.14 601.85 656.92 636.77
  C 662.79 672.21 681.67 700.98 710.11 721.87
  Q 730.27 736.69 753.54 747.69
  C 774.11 757.42 804.62 769.21 829.40 781.61
  C 849.61 791.72 868.21 804.49 869.48 829.46
  C 871.20 863.29 840.04 879.03 810.90 880.92
  C 779.27 882.97 750.56 874.10 728.10 851.07
  Q 715.23 837.88 705.68 821.72
  A 0.53 0.53 0.0 0 0 704.96 821.54
  L 625.38 867.61
  Q 624.94 867.86 625.18 868.32
  C 652.47 920.83 700.28 954.16 758.52 964.59
  Q 805.60 973.02 852.71 963.79
  Q 872.60 959.89 889.89 952.20
  C 926.85 935.74 954.43 906.68 963.92 867.15
  Q 972.76 830.28 963.75 791.37
  C 955.38 755.29 930.77 727.38 899.64 708.07
  Q 872.89 691.49 843.41 678.78
  C 824.40 670.59 805.37 663.06 787.08 653.67
  C 766.67 643.20 751.18 629.86 751.88 604.89
  Q 752.16 594.98 755.88 587.46"
/>
<path stroke="#918740" vector-effect="non-scaling-stroke" d="
  M 515.64 944.42
  C 557.81 916.09 571.43 867.87 571.41 819.29
  Q 571.33 659.96 571.42 483.48
  Q 571.42 483.00 570.95 483.00
  L 473.29 483.00
  Q 472.74 483.00 472.74 483.56
  Q 472.77 652.45 472.73 821.45
  C 472.72 834.26 470.58 849.29 464.27 860.27
  C 454.40 877.43 435.95 880.90 417.51 880.45
  C 385.71 879.68 370.63 855.24 356.73 830.24
  A 0.52 0.52 0.0 0 0 356.01 830.05
  L 276.57 878.12
  Q 276.11 878.40 276.34 878.88
  C 293.39 915.23 322.17 943.70 359.84 957.74
  C 383.68 966.63 408.77 969.47 434.67 968.36
  C 463.55 967.12 492.18 960.18 515.64 944.42"
/>
</g>
<path fill="#ffffff" d="
  M 0.00 0.00
  L 1052.00 0.00
  L 1052.00 1052.00
  L 0.00 1052.00
  L 0.00 1051.45
  L 1050.43 1051.76
  A 0.77 0.77 0.0 0 0 1051.20 1050.99
  L 1051.20 1.50
  A 0.50 0.50 0.0 0 0 1050.70 1.00
  L 0.00 1.00
  L 0.00 0.00
  Z"
/>
<path fill="#f0db4f" d="
  M 0.00 1051.45
  L 0.00 1.00
  L 1050.70 1.00
  A 0.50 0.50 0.0 0 1 1051.20 1.50
  L 1051.20 1050.99
  A 0.77 0.77 0.0 0 1 1050.43 1051.76
  L 0.00 1051.45
  Z
  M 755.88 587.46
  C 766.14 566.69 788.64 561.15 810.74 564.18
  C 835.27 567.53 850.90 584.46 862.23 605.21
  Q 862.48 605.67 862.91 605.39
  L 939.13 556.44
  A 0.19 0.19 0.0 0 0 939.20 556.19
  Q 929.37 538.37 915.69 523.26
  C 894.73 500.10 867.65 485.81 836.91 480.51
  C 777.89 470.33 710.10 483.53 675.13 536.88
  C 655.69 566.54 651.14 601.85 656.92 636.77
  C 662.79 672.21 681.67 700.98 710.11 721.87
  Q 730.27 736.69 753.54 747.69
  C 774.11 757.42 804.62 769.21 829.40 781.61
  C 849.61 791.72 868.21 804.49 869.48 829.46
  C 871.20 863.29 840.04 879.03 810.90 880.92
  C 779.27 882.97 750.56 874.10 728.10 851.07
  Q 715.23 837.88 705.68 821.72
  A 0.53 0.53 0.0 0 0 704.96 821.54
  L 625.38 867.61
  Q 624.94 867.86 625.18 868.32
  C 652.47 920.83 700.28 954.16 758.52 964.59
  Q 805.60 973.02 852.71 963.79
  Q 872.60 959.89 889.89 952.20
  C 926.85 935.74 954.43 906.68 963.92 867.15
  Q 972.76 830.28 963.75 791.37
  C 955.38 755.29 930.77 727.38 899.64 708.07
  Q 872.89 691.49 843.41 678.78
  C 824.40 670.59 805.37 663.06 787.08 653.67
  C 766.67 643.20 751.18 629.86 751.88 604.89
  Q 752.16 594.98 755.88 587.46
  Z
  M 515.64 944.42
  C 557.81 916.09 571.43 867.87 571.41 819.29
  Q 571.33 659.96 571.42 483.48
  Q 571.42 483.00 570.95 483.00
  L 473.29 483.00
  Q 472.74 483.00 472.74 483.56
  Q 472.77 652.45 472.73 821.45
  C 472.72 834.26 470.58 849.29 464.27 860.27
  C 454.40 877.43 435.95 880.90 417.51 880.45
  C 385.71 879.68 370.63 855.24 356.73 830.24
  A 0.52 0.52 0.0 0 0 356.01 830.05
  L 276.57 878.12
  Q 276.11 878.40 276.34 878.88
  C 293.39 915.23 322.17 943.70 359.84 957.74
  C 383.68 966.63 408.77 969.47 434.67 968.36
  C 463.55 967.12 492.18 960.18 515.64 944.42
  Z"
/>
<path fill="#323330" d="
  M 755.88 587.46
  Q 752.16 594.98 751.88 604.89
  C 751.18 629.86 766.67 643.20 787.08 653.67
  C 805.37 663.06 824.40 670.59 843.41 678.78
  Q 872.89 691.49 899.64 708.07
  C 930.77 727.38 955.38 755.29 963.75 791.37
  Q 972.76 830.28 963.92 867.15
  C 954.43 906.68 926.85 935.74 889.89 952.20
  Q 872.60 959.89 852.71 963.79
  Q 805.60 973.02 758.52 964.59
  C 700.28 954.16 652.47 920.83 625.18 868.32
  Q 624.94 867.86 625.38 867.61
  L 704.96 821.54
  A 0.53 0.53 0.0 0 1 705.68 821.72
  Q 715.23 837.88 728.10 851.07
  C 750.56 874.10 779.27 882.97 810.90 880.92
  C 840.04 879.03 871.20 863.29 869.48 829.46
  C 868.21 804.49 849.61 791.72 829.40 781.61
  C 804.62 769.21 774.11 757.42 753.54 747.69
  Q 730.27 736.69 710.11 721.87
  C 681.67 700.98 662.79 672.21 656.92 636.77
  C 651.14 601.85 655.69 566.54 675.13 536.88
  C 710.10 483.53 777.89 470.33 836.91 480.51
  C 867.65 485.81 894.73 500.10 915.69 523.26
  Q 929.37 538.37 939.20 556.19
  A 0.19 0.19 0.0 0 1 939.13 556.44
  L 862.91 605.39
  Q 862.48 605.67 862.23 605.21
  C 850.90 584.46 835.27 567.53 810.74 564.18
  C 788.64 561.15 766.14 566.69 755.88 587.46
  Z"
/>
<path fill="#323330" d="
  M 571.41 819.29
  C 571.43 867.87 557.81 916.09 515.64 944.42
  C 492.18 960.18 463.55 967.12 434.67 968.36
  C 408.77 969.47 383.68 966.63 359.84 957.74
  C 322.17 943.70 293.39 915.23 276.34 878.88
  Q 276.11 878.40 276.57 878.12
  L 356.01 830.05
  A 0.52 0.52 0.0 0 1 356.73 830.24
  C 370.63 855.24 385.71 879.68 417.51 880.45
  C 435.95 880.90 454.40 877.43 464.27 860.27
  C 470.58 849.29 472.72 834.26 472.73 821.45
  Q 472.77 652.45 472.74 483.56
  Q 472.74 483.00 473.29 483.00
  L 570.95 483.00
  Q 571.42 483.00 571.42 483.48
  Q 571.33 659.96 571.41 819.29
  Z"
/>
</svg>
