<?xml version="1.0" encoding="UTF-8" standalone="no"?>
<!DOCTYPE svg PUBLIC "-//W3C//DTD SVG 1.1//EN" "http://www.w3.org/Graphics/SVG/1.1/DTD/svg11.dtd">
<svg xmlns="http://www.w3.org/2000/svg" version="1.1" viewBox="0.00 0.00 1200.00 1200.00">
<g stroke-width="2.00" fill="none" stroke-linecap="butt">
<path stroke="#937a20" vector-effect="non-scaling-stroke" d="
  M 913.65 786.52
  Q 910.56 785.98 907.25 786.55
  Q 900.19 787.76 893.51 790.33
  Q 886.45 793.05 879.63 795.58"
/>
<path stroke="#36464e" vector-effect="non-scaling-stroke" d="
  M 879.63 795.58
  Q 878.29 792.69 877.25 789.47
  Q 876.58 787.38 872.14 784.12
  Q 867.19 780.47 861.37 778.54
  Q 846.19 773.50 830.25 772.24
  Q 829.79 772.20 829.55 771.74"
/>
<path stroke="#899195" vector-effect="non-scaling-stroke" d="
  M 829.55 771.74
  Q 848.88 735.14 852.09 693.74
  Q 853.17 679.87 852.16 667.92
  C 848.67 626.68 816.17 593.79 781.13 575.55
  Q 781.03 575.50 780.97 575.60
  L 780.96 575.60
  Q 780.88 575.73 781.00 575.83
  C 817.61 603.46 841.92 642.40 834.37 689.79
  C 830.50 714.09 818.91 737.62 803.36 756.84
  Q 798.76 762.53 793.68 766.91
  Q 792.37 768.04 792.68 766.33
  Q 794.52 756.30 794.78 746.70
  Q 796.10 698.69 786.98 651.65
  Q 784.95 641.15 782.40 632.54
  C 774.65 606.35 759.67 582.50 749.25 557.24
  Q 722.65 492.72 698.23 427.18
  C 697.02 423.93 696.06 420.55 694.85 417.27"
/>
<path stroke="#937a20" vector-effect="non-scaling-stroke" d="
  M 694.85 417.27
  Q 696.51 409.80 697.28 402.15
  Q 697.92 395.77 696.74 392.40
  C 693.96 384.47 683.58 379.93 676.05 377.84"
/>
<path stroke="#899195" vector-effect="non-scaling-stroke" d="
  M 676.05 377.84
  C 693.74 361.23 698.12 334.89 692.75 311.68
  C 689.09 295.83 678.03 278.49 661.26 273.78
  C 645.67 269.40 631.24 277.20 622.20 289.75
  C 608.59 308.63 606.99 334.33 614.50 355.85"
/>
<path stroke="#937a20" vector-effect="non-scaling-stroke" d="
  M 614.50 355.85
  Q 608.51 353.98 600.00 352.01
  Q 584.71 348.46 570.06 351.52"
/>
<path stroke="#899195" vector-effect="non-scaling-stroke" d="
  M 570.06 351.52
  C 574.41 334.63 573.08 316.12 564.93 300.52
  C 560.93 292.84 554.17 285.62 545.72 283.33
  C 528.51 278.67 515.85 295.13 511.25 309.25
  C 504.01 331.44 506.59 360.86 525.32 377.20"
/>
<path stroke="#937a20" vector-effect="non-scaling-stroke" d="
  M 525.32 377.20
  Q 518.20 382.92 511.11 388.87
  C 504.82 394.13 500.50 399.84 500.06 408.35
  C 499.30 422.75 509.21 431.21 519.36 439.40"
/>
<path stroke="#899195" vector-effect="non-scaling-stroke" d="
  M 519.36 439.40
  Q 518.02 454.09 517.54 468.60
  C 517.28 476.27 516.55 482.40 514.87 489.23
  Q 510.76 505.94 502.84 524.43
  Q 490.83 552.43 473.81 579.26
  C 466.33 591.05 456.79 600.91 450.26 613.16
  Q 437.12 637.82 427.60 667.43
  Q 424.82 676.09 422.43 686.52
  Q 417.33 708.78 415.06 731.66
  Q 415.03 731.96 414.64 731.90
  A 0.39 0.37 79.6 0 1 414.37 731.70
  Q 409.48 722.73 408.74 711.78
  Q 407.67 695.87 410.94 678.10
  Q 418.25 638.40 432.93 600.52"
/>
<path stroke="#899195" vector-effect="non-scaling-stroke" d="
  M 393.56 734.25
  Q 394.65 740.14 396.87 745.65
  Q 397.80 747.95 399.33 749.84
  C 401.95 753.09 404.03 756.29 407.06 759.42
  Q 426.27 779.32 435.44 787.33
  Q 449.77 799.84 464.40 812.01
  C 480.00 824.99 495.95 837.29 511.91 850.15
  Q 513.82 851.69 515.86 853.55
  C 519.00 856.42 522.53 859.12 524.91 862.51
  C 531.66 872.15 533.67 884.05 527.71 894.66
  C 524.87 899.73 518.79 902.06 513.25 903.85
  Q 510.93 904.60 508.87 905.78
  Q 505.52 907.71 501.05 907.41
  Q 499.81 907.33 500.61 908.28
  C 523.85 935.87 561.43 949.07 597.19 951.69
  Q 613.62 952.89 628.80 950.19
  C 667.72 943.26 705.20 924.73 736.37 900.36"
/>
<path stroke="#937a20" vector-effect="non-scaling-stroke" d="
  M 736.37 900.36
  Q 735.24 910.58 733.52 920.50
  Q 729.64 942.83 726.31 965.25
  Q 723.86 981.81 725.89 1000.96"
/>
<path stroke="#937a20" vector-effect="non-scaling-stroke" d="
  M 521.97 999.18
  Q 522.58 990.64 522.69 982.00
  Q 522.92 962.76 513.07 946.57
  C 505.16 933.55 493.92 920.36 485.41 906.49
  Q 465.94 874.75 447.43 843.58
  C 442.98 836.07 435.80 826.35 430.35 817.56
  Q 415.23 793.19 398.80 774.33
  Q 390.37 764.67 381.20 757.95
  C 375.49 753.76 369.97 751.80 362.51 752.81
  Q 355.18 753.81 348.43 758.11"
/>
<path stroke="#a28e36" vector-effect="non-scaling-stroke" d="
  M 879.63 795.58
  Q 875.23 801.42 871.40 807.75
  C 869.53 810.84 866.61 812.85 865.37 816.11
  Q 864.58 818.19 863.13 819.81
  C 852.65 831.42 837.84 838.95 822.09 837.25
  C 813.87 836.36 806.03 833.82 801.07 826.91
  Q 800.12 825.59 800.03 823.95
  Q 799.67 817.16 800.93 810.80
  C 801.51 807.88 799.92 805.47 799.82 802.54
  Q 799.62 796.35 795.22 790.77
  Q 793.57 788.66 792.26 787.09"
/>
<path stroke="#99a5ab" vector-effect="non-scaling-stroke" d="
  M 829.55 771.74
  Q 828.68 772.22 828.25 772.18
  C 814.30 771.09 801.35 774.60 790.82 784.16
  Q 790.32 784.61 790.90 784.94
  Q 792.10 785.61 792.26 787.09"
/>
<path stroke="#f6d87c" vector-effect="non-scaling-stroke" d="
  M 792.26 787.09
  Q 787.19 782.19 782.68 779.34
  C 774.00 773.87 758.67 772.62 751.08 780.89
  C 744.94 787.58 741.46 796.78 740.57 806.17
  Q 740.00 812.27 740.03 816.75
  Q 740.21 848.04 739.51 869.25
  Q 739.03 883.49 736.37 900.36"
/>
<path stroke="#f6d87c" vector-effect="non-scaling-stroke" d="
  M 694.85 417.27
  Q 691.79 428.10 682.27 434.27
  Q 673.57 439.91 667.17 442.41
  Q 659.94 445.23 654.82 448.18
  Q 640.13 456.61 624.58 465.29
  C 616.09 470.02 604.86 474.79 595.40 474.96
  C 584.82 475.14 573.59 474.93 562.90 473.13
  C 558.47 472.39 554.81 470.04 551.42 467.30
  Q 541.16 459.01 530.87 448.24
  C 527.52 444.72 523.40 442.14 519.36 439.40"
/>
<path stroke="#f6d87c" vector-effect="non-scaling-stroke" d="
  M 676.05 377.84
  Q 666.65 374.96 655.00 372.54
  Q 654.60 372.46 654.82 371.98"
/>
<path stroke="#878889" vector-effect="non-scaling-stroke" d="
  M 654.82 371.98
  C 676.92 364.90 680.37 333.23 667.37 316.65
  C 658.29 305.07 643.02 304.31 633.48 315.74
  C 622.66 328.70 622.39 347.81 631.39 361.74"
/>
<path stroke="#f6d87c" vector-effect="non-scaling-stroke" d="
  M 631.39 361.74
  Q 631.36 361.85 631.21 361.92
  Q 631.05 361.99 630.87 361.93
  L 614.50 355.85"
/>
<path stroke="#f6d87c" vector-effect="non-scaling-stroke" d="
  M 570.06 351.52
  L 556.09 356.50"
/>
<path stroke="#878889" vector-effect="non-scaling-stroke" d="
  M 556.09 356.50
  C 560.20 346.24 558.89 333.36 554.81 323.28
  C 552.27 317.00 546.99 309.51 539.94 308.45
  C 531.86 307.22 526.66 314.94 524.67 321.92
  C 520.53 336.44 524.13 358.51 538.23 366.86"
/>
<path stroke="#f6d87c" vector-effect="non-scaling-stroke" d="
  M 538.23 366.86
  L 525.32 377.20"
/>
<path stroke="#907114" vector-effect="non-scaling-stroke" d="
  M 654.82 371.98
  Q 653.75 372.00 653.24 371.77
  Q 643.08 367.20 632.85 362.77
  C 632.28 362.52 631.92 362.09 631.39 361.74"
/>
<path stroke="#907114" vector-effect="non-scaling-stroke" d="
  M 556.09 356.50
  Q 546.63 360.96 538.23 366.86"
/>
<path stroke="#b18405" vector-effect="non-scaling-stroke" d="
  M 569.47 372.55
  Q 571.06 372.14 572.17 370.94
  A 1.41 1.40 33.1 0 0 571.69 368.70
  C 564.38 365.54 561.97 369.05 558.09 374.24
  Q 556.95 375.76 558.45 376.92
  Q 558.46 376.93 559.91 378.05
  Q 561.41 379.21 562.54 377.68
  C 564.05 375.62 566.81 373.23 569.47 372.55"
/>
<path stroke="#b18405" vector-effect="non-scaling-stroke" d="
  M 609.97 371.96
  C 608.35 367.88 601.52 367.96 598.24 369.04
  A 0.94 0.94 0.0 0 0 597.71 370.41
  C 599.29 373.10 601.80 374.47 604.56 375.67
  C 607.31 376.87 608.75 379.17 611.81 379.92
  A 1.11 1.10 15.2 0 0 613.13 379.17
  Q 614.47 374.76 610.56 372.63
  Q 610.14 372.40 609.97 371.96"
/>
<path stroke="#b18405" vector-effect="non-scaling-stroke" d="
  M 554.10 442.21
  A 5.31 5.24 -35.1 0 0 555.94 442.52
  C 566.36 442.41 577.67 443.25 587.37 441.55
  Q 601.68 439.03 614.29 432.94
  Q 623.83 428.33 632.74 423.76
  Q 638.26 420.92 645.10 416.63
  Q 650.48 413.25 656.15 410.48
  Q 662.89 407.19 672.35 400.62
  Q 675.91 398.14 678.20 395.38
  A 1.81 1.81 0.0 0 0 677.71 392.66
  C 674.47 390.81 670.46 391.84 667.17 393.35
  C 659.42 396.89 652.16 401.28 644.77 405.79
  C 634.24 412.22 623.33 417.31 612.44 422.66
  Q 608.14 424.77 603.74 426.41
  C 596.40 429.13 588.72 432.59 581.17 432.52
  Q 572.61 432.44 563.37 432.58
  C 552.73 432.74 542.05 429.20 533.22 423.64
  C 531.51 422.56 529.64 422.52 527.97 421.27
  Q 521.74 416.63 512.73 409.11
  Q 511.42 408.01 509.83 407.65
  Q 508.70 407.39 507.50 407.96
  A 1.07 1.07 0.0 0 0 507.20 409.68
  Q 515.38 417.95 522.99 425.42
  Q 529.32 431.63 537.21 435.26
  Q 545.00 438.85 554.10 442.21"
/>
</g>
<path fill="#263238" d="
  M 913.65 786.52
  Q 910.56 785.98 907.25 786.55
  Q 900.19 787.76 893.51 790.33
  Q 886.45 793.05 879.63 795.58
  Q 878.29 792.69 877.25 789.47
  Q 876.58 787.38 872.14 784.12
  Q 867.19 780.47 861.37 778.54
  Q 846.19 773.50 830.25 772.24
  Q 829.79 772.20 829.55 771.74
  Q 848.88 735.14 852.09 693.74
  Q 853.17 679.87 852.16 667.92
  C 848.67 626.68 816.17 593.79 781.13 575.55
  Q 781.03 575.50 780.97 575.60
  L 780.96 575.60
  Q 780.88 575.73 781.00 575.83
  C 817.61 603.46 841.92 642.40 834.37 689.79
  C 830.50 714.09 818.91 737.62 803.36 756.84
  Q 798.76 762.53 793.68 766.91
  Q 792.37 768.04 792.68 766.33
  Q 794.52 756.30 794.78 746.70
  Q 796.10 698.69 786.98 651.65
  Q 784.95 641.15 782.40 632.54
  C 774.65 606.35 759.67 582.50 749.25 557.24
  Q 722.65 492.72 698.23 427.18
  C 697.02 423.93 696.06 420.55 694.85 417.27
  Q 696.51 409.80 697.28 402.15
  Q 697.92 395.77 696.74 392.40
  C 693.96 384.47 683.58 379.93 676.05 377.84
  C 693.74 361.23 698.12 334.89 692.75 311.68
  C 689.09 295.83 678.03 278.49 661.26 273.78
  C 645.67 269.40 631.24 277.20 622.20 289.75
  C 608.59 308.63 606.99 334.33 614.50 355.85
  Q 608.51 353.98 600.00 352.01
  Q 584.71 348.46 570.06 351.52
  C 574.41 334.63 573.08 316.12 564.93 300.52
  C 560.93 292.84 554.17 285.62 545.72 283.33
  C 528.51 278.67 515.85 295.13 511.25 309.25
  C 504.01 331.44 506.59 360.86 525.32 377.20
  Q 518.20 382.92 511.11 388.87
  C 504.82 394.13 500.50 399.84 500.06 408.35
  C 499.30 422.75 509.21 431.21 519.36 439.40
  Q 518.02 454.09 517.54 468.60
  C 517.28 476.27 516.55 482.40 514.87 489.23
  Q 510.76 505.94 502.84 524.43
  Q 490.83 552.43 473.81 579.26
  C 466.33 591.05 456.79 600.91 450.26 613.16
  Q 437.12 637.82 427.60 667.43
  Q 424.82 676.09 422.43 686.52
  Q 417.33 708.78 415.06 731.66
  Q 415.03 731.96 414.64 731.90
  A 0.39 0.37 79.6 0 1 414.37 731.70
  Q 409.48 722.73 408.74 711.78
  Q 407.67 695.87 410.94 678.10
  Q 418.25 638.40 432.93 600.52
  Q 433.24 598.83 433.98 597.26
  Q 434.05 597.12 433.90 597.04
  L 433.90 597.04
  Q 433.79 596.98 433.72 597.08
  C 420.91 617.61 409.72 638.81 401.40 661.29
  Q 391.93 686.90 391.57 715.00
  Q 391.45 724.77 393.56 734.25
  Q 394.65 740.14 396.87 745.65
  Q 397.80 747.95 399.33 749.84
  C 401.95 753.09 404.03 756.29 407.06 759.42
  Q 426.27 779.32 435.44 787.33
  Q 449.77 799.84 464.40 812.01
  C 480.00 824.99 495.95 837.29 511.91 850.15
  Q 513.82 851.69 515.86 853.55
  C 519.00 856.42 522.53 859.12 524.91 862.51
  C 531.66 872.15 533.67 884.05 527.71 894.66
  C 524.87 899.73 518.79 902.06 513.25 903.85
  Q 510.93 904.60 508.87 905.78
  Q 505.52 907.71 501.05 907.41
  Q 499.81 907.33 500.61 908.28
  C 523.85 935.87 561.43 949.07 597.19 951.69
  Q 613.62 952.89 628.80 950.19
  C 667.72 943.26 705.20 924.73 736.37 900.36
  Q 735.24 910.58 733.52 920.50
  Q 729.64 942.83 726.31 965.25
  Q 723.86 981.81 725.89 1000.96
  Q 693.22 994.35 659.00 995.39
  Q 635.90 996.09 617.99 996.99
  Q 607.56 997.52 598.01 997.51
  Q 574.50 997.48 551.00 997.83
  Q 536.60 998.04 521.97 999.18
  Q 522.58 990.64 522.69 982.00
  Q 522.92 962.76 513.07 946.57
  C 505.16 933.55 493.92 920.36 485.41 906.49
  Q 465.94 874.75 447.43 843.58
  C 442.98 836.07 435.80 826.35 430.35 817.56
  Q 415.23 793.19 398.80 774.33
  Q 390.37 764.67 381.20 757.95
  C 375.49 753.76 369.97 751.80 362.51 752.81
  Q 355.18 753.81 348.43 758.11
  Q 345.84 753.30 346.23 746.00
  Q 346.75 736.06 348.12 728.74
  Q 351.71 709.61 358.09 691.06
  Q 372.11 650.26 391.46 611.97
  Q 396.18 602.64 401.00 592.75
  C 411.50 571.25 425.37 550.77 439.45 530.32
  Q 444.90 522.42 451.22 515.15
  C 466.08 498.07 480.32 479.42 488.94 459.31
  Q 492.99 449.86 494.45 438.46
  Q 495.31 431.82 494.49 422.54
  C 490.52 377.24 486.50 330.94 486.80 286.16
  Q 486.95 262.63 491.03 240.10
  C 496.34 210.71 510.49 186.04 536.91 170.67
  C 581.27 144.87 630.93 139.71 677.09 162.26
  Q 682.17 164.74 687.31 166.69
  C 698.63 170.97 708.91 178.85 717.76 187.27
  Q 724.54 193.72 729.99 202.22
  C 748.27 230.70 758.56 262.14 762.43 294.74
  Q 763.40 302.92 762.66 311.25
  C 762.10 317.69 760.94 324.27 760.63 330.56
  C 759.78 347.90 763.56 366.13 767.77 383.53
  Q 779.23 430.85 804.60 471.47
  C 821.04 497.78 840.10 522.67 857.64 547.86
  Q 886.58 589.43 906.32 637.49
  Q 916.81 663.05 922.51 689.53
  C 926.94 710.13 928.54 732.07 923.26 752.16
  Q 922.64 754.52 922.31 757.06
  Q 921.83 760.71 921.47 762.02
  Q 918.09 774.35 913.65 786.52
  Z"
/>
<path fill="#eceff1" d="
  M 676.05 377.84
  Q 666.65 374.96 655.00 372.54
  Q 654.60 372.46 654.82 371.98
  C 676.92 364.90 680.37 333.23 667.37 316.65
  C 658.29 305.07 643.02 304.31 633.48 315.74
  C 622.66 328.70 622.39 347.81 631.39 361.74
  Q 631.36 361.85 631.21 361.92
  Q 631.05 361.99 630.87 361.93
  L 614.50 355.85
  C 606.99 334.33 608.59 308.63 622.20 289.75
  C 631.24 277.20 645.67 269.40 661.26 273.78
  C 678.03 278.49 689.09 295.83 692.75 311.68
  C 698.12 334.89 693.74 361.23 676.05 377.84
  Z"
/>
<path fill="#eceff1" d="
  M 570.06 351.52
  L 556.09 356.50
  C 560.20 346.24 558.89 333.36 554.81 323.28
  C 552.27 317.00 546.99 309.51 539.94 308.45
  C 531.86 307.22 526.66 314.94 524.67 321.92
  C 520.53 336.44 524.13 358.51 538.23 366.86
  L 525.32 377.20
  C 506.59 360.86 504.01 331.44 511.25 309.25
  C 515.85 295.13 528.51 278.67 545.72 283.33
  C 554.17 285.62 560.93 292.84 564.93 300.52
  C 573.08 316.12 574.41 334.63 570.06 351.52
  Z"
/>
<path fill="#212121" d="
  M 654.82 371.98
  Q 653.75 372.00 653.24 371.77
  Q 643.08 367.20 632.85 362.77
  C 632.28 362.52 631.92 362.09 631.39 361.74
  C 622.39 347.81 622.66 328.70 633.48 315.74
  C 643.02 304.31 658.29 305.07 667.37 316.65
  C 680.37 333.23 676.92 364.90 654.82 371.98
  Z"
/>
<path fill="#212121" d="
  M 556.09 356.50
  Q 546.63 360.96 538.23 366.86
  C 524.13 358.51 520.53 336.44 524.67 321.92
  C 526.66 314.94 531.86 307.22 539.94 308.45
  C 546.99 309.51 552.27 317.00 554.81 323.28
  C 558.89 333.36 560.20 346.24 556.09 356.50
  Z"
/>
<path fill="#ffc107" d="
  M 614.50 355.85
  L 630.87 361.93
  Q 631.05 361.99 631.21 361.92
  Q 631.36 361.85 631.39 361.74
  C 631.92 362.09 632.28 362.52 632.85 362.77
  Q 643.08 367.20 653.24 371.77
  Q 653.75 372.00 654.82 371.98
  Q 654.60 372.46 655.00 372.54
  Q 666.65 374.96 676.05 377.84
  C 683.58 379.93 693.96 384.47 696.74 392.40
  Q 697.92 395.77 697.28 402.15
  Q 696.51 409.80 694.85 417.27
  Q 691.79 428.10 682.27 434.27
  Q 673.57 439.91 667.17 442.41
  Q 659.94 445.23 654.82 448.18
  Q 640.13 456.61 624.58 465.29
  C 616.09 470.02 604.86 474.79 595.40 474.96
  C 584.82 475.14 573.59 474.93 562.90 473.13
  C 558.47 472.39 554.81 470.04 551.42 467.30
  Q 541.16 459.01 530.87 448.24
  C 527.52 444.72 523.40 442.14 519.36 439.40
  C 509.21 431.21 499.30 422.75 500.06 408.35
  C 500.50 399.84 504.82 394.13 511.11 388.87
  Q 518.20 382.92 525.32 377.20
  L 538.23 366.86
  Q 546.63 360.96 556.09 356.50
  L 570.06 351.52
  Q 584.71 348.46 600.00 352.01
  Q 608.51 353.98 614.50 355.85
  Z
  M 569.47 372.55
  Q 571.06 372.14 572.17 370.94
  A 1.41 1.40 33.1 0 0 571.69 368.70
  C 564.38 365.54 561.97 369.05 558.09 374.24
  Q 556.95 375.76 558.45 376.92
  Q 558.46 376.93 559.91 378.05
  Q 561.41 379.21 562.54 377.68
  C 564.05 375.62 566.81 373.23 569.47 372.55
  Z
  M 609.97 371.96
  C 608.35 367.88 601.52 367.96 598.24 369.04
  A 0.94 0.94 0.0 0 0 597.71 370.41
  C 599.29 373.10 601.80 374.47 604.56 375.67
  C 607.31 376.87 608.75 379.17 611.81 379.92
  A 1.11 1.10 15.2 0 0 613.13 379.17
  Q 614.47 374.76 610.56 372.63
  Q 610.14 372.40 609.97 371.96
  Z
  M 554.10 442.21
  A 5.31 5.24 -35.1 0 0 555.94 442.52
  C 566.36 442.41 577.67 443.25 587.37 441.55
  Q 601.68 439.03 614.29 432.94
  Q 623.83 428.33 632.74 423.76
  Q 638.26 420.92 645.10 416.63
  Q 650.48 413.25 656.15 410.48
  Q 662.89 407.19 672.35 400.62
  Q 675.91 398.14 678.20 395.38
  A 1.81 1.81 0.0 0 0 677.71 392.66
  C 674.47 390.81 670.46 391.84 667.17 393.35
  C 659.42 396.89 652.16 401.28 644.77 405.79
  C 634.24 412.22 623.33 417.31 612.44 422.66
  Q 608.14 424.77 603.74 426.41
  C 596.40 429.13 588.72 432.59 581.17 432.52
  Q 572.61 432.44 563.37 432.58
  C 552.73 432.74 542.05 429.20 533.22 423.64
  C 531.51 422.56 529.64 422.52 527.97 421.27
  Q 521.74 416.63 512.73 409.11
  Q 511.42 408.01 509.83 407.65
  Q 508.70 407.39 507.50 407.96
  A 1.07 1.07 0.0 0 0 507.20 409.68
  Q 515.38 417.95 522.99 425.42
  Q 529.32 431.63 537.21 435.26
  Q 545.00 438.85 554.10 442.21
  Z"
/>
<path fill="#634703" d="
  M 569.47 372.55
  C 566.81 373.23 564.05 375.62 562.54 377.68
  Q 561.41 379.21 559.91 378.05
  Q 558.46 376.93 558.45 376.92
  Q 556.95 375.76 558.09 374.24
  C 561.97 369.05 564.38 365.54 571.69 368.70
  A 1.41 1.40 33.1 0 1 572.17 370.94
  Q 571.06 372.14 569.47 372.55
  Z"
/>
<path fill="#634703" d="
  M 610.56 372.63
  Q 614.47 374.76 613.13 379.17
  A 1.11 1.10 15.2 0 1 611.81 379.92
  C 608.75 379.17 607.31 376.87 604.56 375.67
  C 601.80 374.47 599.29 373.10 597.71 370.41
  A 0.94 0.94 0.0 0 1 598.24 369.04
  C 601.52 367.96 608.35 367.88 609.97 371.96
  Q 610.14 372.40 610.56 372.63
  Z"
/>
<path fill="#634703" d="
  M 554.10 442.21
  Q 545.00 438.85 537.21 435.26
  Q 529.32 431.63 522.99 425.42
  Q 515.38 417.95 507.20 409.68
  A 1.07 1.07 0.0 0 1 507.50 407.96
  Q 508.70 407.39 509.83 407.65
  Q 511.42 408.01 512.73 409.11
  Q 521.74 416.63 527.97 421.27
  C 529.64 422.52 531.51 422.56 533.22 423.64
  C 542.05 429.20 552.73 432.74 563.37 432.58
  Q 572.61 432.44 581.17 432.52
  C 588.72 432.59 596.40 429.13 603.74 426.41
  Q 608.14 424.77 612.44 422.66
  C 623.33 417.31 634.24 412.22 644.77 405.79
  C 652.16 401.28 659.42 396.89 667.17 393.35
  C 670.46 391.84 674.47 390.81 677.71 392.66
  A 1.81 1.81 0.0 0 1 678.20 395.38
  Q 675.91 398.14 672.35 400.62
  Q 662.89 407.19 656.15 410.48
  Q 650.48 413.25 645.10 416.63
  Q 638.26 420.92 632.74 423.76
  Q 623.83 428.33 614.29 432.94
  Q 601.68 439.03 587.37 441.55
  C 577.67 443.25 566.36 442.41 555.94 442.52
  A 5.31 5.24 -35.1 0 1 554.10 442.21
  Z"
/>
<path fill="#eceff1" d="
  M 694.85 417.27
  C 696.06 420.55 697.02 423.93 698.23 427.18
  Q 722.65 492.72 749.25 557.24
  C 759.67 582.50 774.65 606.35 782.40 632.54
  Q 784.95 641.15 786.98 651.65
  Q 796.10 698.69 794.78 746.70
  Q 794.52 756.30 792.68 766.33
  Q 792.37 768.04 793.68 766.91
  Q 798.76 762.53 803.36 756.84
  C 818.91 737.62 830.50 714.09 834.37 689.79
  C 841.92 642.40 817.61 603.46 781.00 575.83
  Q 780.88 575.73 780.96 575.60
  L 780.97 575.60
  Q 781.03 575.50 781.13 575.55
  C 816.17 593.79 848.67 626.68 852.16 667.92
  Q 853.17 679.87 852.09 693.74
  Q 848.88 735.14 829.55 771.74
  Q 828.68 772.22 828.25 772.18
  C 814.30 771.09 801.35 774.60 790.82 784.16
  Q 790.32 784.61 790.90 784.94
  Q 792.10 785.61 792.26 787.09
  Q 787.19 782.19 782.68 779.34
  C 774.00 773.87 758.67 772.62 751.08 780.89
  C 744.94 787.58 741.46 796.78 740.57 806.17
  Q 740.00 812.27 740.03 816.75
  Q 740.21 848.04 739.51 869.25
  Q 739.03 883.49 736.37 900.36
  C 705.20 924.73 667.72 943.26 628.80 950.19
  Q 613.62 952.89 597.19 951.69
  C 561.43 949.07 523.85 935.87 500.61 908.28
  Q 499.81 907.33 501.05 907.41
  Q 505.52 907.71 508.87 905.78
  Q 510.93 904.60 513.25 903.85
  C 518.79 902.06 524.87 899.73 527.71 894.66
  C 533.67 884.05 531.66 872.15 524.91 862.51
  C 522.53 859.12 519.00 856.42 515.86 853.55
  Q 513.82 851.69 511.91 850.15
  C 495.95 837.29 480.00 824.99 464.40 812.01
  Q 449.77 799.84 435.44 787.33
  Q 426.27 779.32 407.06 759.42
  C 404.03 756.29 401.95 753.09 399.33 749.84
  Q 397.80 747.95 396.87 745.65
  Q 394.65 740.14 393.56 734.25
  Q 393.78 732.72 393.95 731.26
  Q 398.01 697.10 402.16 662.91
  Q 402.51 660.02 403.84 657.43
  Q 418.30 629.03 432.93 600.52
  Q 418.25 638.40 410.94 678.10
  Q 407.67 695.87 408.74 711.78
  Q 409.48 722.73 414.37 731.70
  A 0.39 0.37 79.6 0 0 414.64 731.90
  Q 415.03 731.96 415.06 731.66
  Q 417.33 708.78 422.43 686.52
  Q 424.82 676.09 427.60 667.43
  Q 437.12 637.82 450.26 613.16
  C 456.79 600.91 466.33 591.05 473.81 579.26
  Q 490.83 552.43 502.84 524.43
  Q 510.76 505.94 514.87 489.23
  C 516.55 482.40 517.28 476.27 517.54 468.60
  Q 518.02 454.09 519.36 439.40
  C 523.40 442.14 527.52 444.72 530.87 448.24
  Q 541.16 459.01 551.42 467.30
  C 554.81 470.04 558.47 472.39 562.90 473.13
  C 573.59 474.93 584.82 475.14 595.40 474.96
  C 604.86 474.79 616.09 470.02 624.58 465.29
  Q 640.13 456.61 654.82 448.18
  Q 659.94 445.23 667.17 442.41
  Q 673.57 439.91 682.27 434.27
  Q 691.79 428.10 694.85 417.27
  Z"
/>
<path fill="#ffc107" d="
  M 521.97 999.18
  C 518.86 1033.56 499.97 1053.69 465.07 1055.38
  Q 448.98 1056.16 436.64 1053.05
  Q 423.59 1049.75 409.01 1043.89
  Q 381.43 1032.80 360.36 1025.42
  C 350.04 1021.81 338.90 1018.76 327.90 1016.50
  Q 304.36 1011.65 281.57 1006.38
  C 268.09 1003.26 253.97 999.78 241.26 993.93
  C 233.87 990.52 225.86 983.96 223.37 975.87
  C 220.83 967.64 222.99 958.59 225.02 950.24
  Q 225.94 946.46 227.94 943.32
  Q 231.91 937.07 235.60 930.57
  C 240.75 921.49 240.47 913.17 239.28 902.78
  C 237.87 890.48 234.42 878.69 230.62 866.90
  C 226.43 853.92 223.52 840.01 238.76 833.23
  Q 245.41 830.26 251.80 828.85
  Q 263.78 826.21 277.21 823.32
  C 285.40 821.55 293.15 818.79 299.66 813.44
  Q 309.21 805.59 317.86 793.26
  C 323.71 784.93 329.17 776.07 336.33 768.71
  Q 342.20 762.68 348.43 758.11
  Q 355.18 753.81 362.51 752.81
  C 369.97 751.80 375.49 753.76 381.20 757.95
  Q 390.37 764.67 398.80 774.33
  Q 415.23 793.19 430.35 817.56
  C 435.80 826.35 442.98 836.07 447.43 843.58
  Q 465.94 874.75 485.41 906.49
  C 493.92 920.36 505.16 933.55 513.07 946.57
  Q 522.92 962.76 522.69 982.00
  Q 522.58 990.64 521.97 999.18
  Z"
/>
<path fill="#455a64" d="
  M 829.55 771.74
  Q 829.79 772.20 830.25 772.24
  Q 846.19 773.50 861.37 778.54
  Q 867.19 780.47 872.14 784.12
  Q 876.58 787.38 877.25 789.47
  Q 878.29 792.69 879.63 795.58
  Q 875.23 801.42 871.40 807.75
  C 869.53 810.84 866.61 812.85 865.37 816.11
  Q 864.58 818.19 863.13 819.81
  C 852.65 831.42 837.84 838.95 822.09 837.25
  C 813.87 836.36 806.03 833.82 801.07 826.91
  Q 800.12 825.59 800.03 823.95
  Q 799.67 817.16 800.93 810.80
  C 801.51 807.88 799.92 805.47 799.82 802.54
  Q 799.62 796.35 795.22 790.77
  Q 793.57 788.66 792.26 787.09
  Q 792.10 785.61 790.90 784.94
  Q 790.32 784.61 790.82 784.16
  C 801.35 774.60 814.30 771.09 828.25 772.18
  Q 828.68 772.22 829.55 771.74
  Z"
/>
<path fill="#ffc107" d="
  M 792.26 787.09
  Q 793.57 788.66 795.22 790.77
  Q 799.62 796.35 799.82 802.54
  C 799.92 805.47 801.51 807.88 800.93 810.80
  Q 799.67 817.16 800.03 823.95
  Q 800.12 825.59 801.07 826.91
  C 806.03 833.82 813.87 836.36 822.09 837.25
  C 837.84 838.95 852.65 831.42 863.13 819.81
  Q 864.58 818.19 865.37 816.11
  C 866.61 812.85 869.53 810.84 871.40 807.75
  Q 875.23 801.42 879.63 795.58
  Q 886.45 793.05 893.51 790.33
  Q 900.19 787.76 907.25 786.55
  Q 910.56 785.98 913.65 786.52
  C 925.25 789.70 929.77 805.51 931.52 815.71
  Q 933.76 828.85 935.91 842.43
  C 936.84 848.33 938.71 853.47 942.32 858.40
  Q 955.36 876.25 974.86 886.14
  Q 981.64 889.58 987.65 892.21
  Q 1001.69 898.36 999.74 914.39
  Q 998.79 922.19 994.07 926.62
  C 989.71 930.71 985.17 934.75 980.06 938.03
  C 959.46 951.26 937.44 963.25 917.13 975.59
  Q 909.95 979.95 900.50 986.58
  Q 883.83 998.28 866.72 1010.34
  C 857.10 1017.12 846.63 1029.22 837.61 1035.44
  Q 819.08 1048.20 798.70 1049.58
  Q 779.21 1050.90 762.32 1047.45
  Q 751.20 1045.18 742.82 1037.91
  C 731.58 1028.15 727.96 1014.98 725.89 1000.96
  Q 723.86 981.81 726.31 965.25
  Q 729.64 942.83 733.52 920.50
  Q 735.24 910.58 736.37 900.36
  Q 739.03 883.49 739.51 869.25
  Q 740.21 848.04 740.03 816.75
  Q 740.00 812.27 740.57 806.17
  C 741.46 796.78 744.94 787.58 751.08 780.89
  C 758.67 772.62 774.00 773.87 782.68 779.34
  Q 787.19 782.19 792.26 787.09
  Z"
/>
</svg>
