<?xml version="1.0" encoding="UTF-8" standalone="no"?>
<!DOCTYPE svg PUBLIC "-//W3C//DTD SVG 1.1//EN" "http://www.w3.org/Graphics/SVG/1.1/DTD/svg11.dtd">
<svg xmlns="http://www.w3.org/2000/svg" version="1.1" viewBox="0.00 0.00 512.00 512.00">
<g stroke-width="2.00" fill="none" stroke-linecap="butt">
<path stroke="#53ac44" vector-effect="non-scaling-stroke" d="
  M 256.58 18.34
  Q 256.18 25.58 256.44 32.15
  Q 256.47 33.06 257.01 35.79
  Q 257.33 37.43 257.35 39.50
  Q 257.42 47.74 257.55 55.98
  C 257.61 60.06 258.25 64.34 258.28 68.50
  Q 258.43 89.10 258.40 109.25
  C 258.38 120.38 259.44 131.49 259.33 141.93
  Q 259.12 161.50 259.32 176.95
  Q 259.32 177.03 259.53 179.55
  Q 259.65 181.06 258.58 180.00
  Q 257.68 179.12 257.25 177.83
  Q 239.03 123.49 223.12 76.63
  Q 223.08 76.51 222.95 76.50
  Q 222.76 76.49 222.72 76.62
  Q 222.46 77.46 222.46 76.59
  Q 222.45 76.21 222.54 75.78
  Q 222.64 75.28 222.48 74.80
  Q 220.55 69.28 218.71 63.75
  Q 218.41 62.84 216.30 61.45"
/>
<path stroke="#449f37" vector-effect="non-scaling-stroke" d="
  M 351.82 170.47
  Q 350.51 171.29 348.98 171.18
  Q 348.44 171.14 347.94 171.35
  Q 345.31 172.48 342.50 172.09
  A 1.10 1.09 26.5 0 0 341.59 172.39
  Q 341.03 172.93 340.25 173.00
  Q 337.68 173.21 334.94 173.11
  A 0.31 0.31 0.0 0 0 334.62 173.46
  Q 334.64 173.63 334.54 173.75
  Q 334.29 174.07 333.88 174.06
  Q 329.92 173.93 328.35 174.36
  Q 325.81 175.05 323.21 175.06
  Q 322.74 175.06 322.35 175.33
  Q 321.94 175.61 321.47 175.82
  Q 320.77 176.14 320.01 176.12
  Q 317.99 176.06 316.11 176.19
  Q 315.97 176.20 315.87 176.30
  Q 315.82 176.35 315.87 176.42
  Q 316.27 176.92 315.61 176.94
  Q 312.76 177.05 309.90 177.37
  Q 309.71 177.39 309.67 177.58
  Q 309.62 177.90 309.29 177.91
  Q 306.49 177.97 303.80 178.68
  Q 302.06 179.14 300.63 179.13
  Q 298.99 179.12 297.39 179.12
  A 1.20 1.17 -64.1 0 0 296.64 179.39
  Q 296.49 179.51 296.34 179.63
  Q 296.03 179.88 295.60 179.94
  Q 293.55 180.22 291.47 180.12
  Q 290.96 180.10 290.60 180.45
  Q 290.04 180.99 289.46 181.00
  Q 286.96 181.06 284.73 181.18
  Q 284.23 181.21 283.83 181.51
  Q 283.63 181.66 283.41 181.80
  Q 283.09 182.02 282.71 182.03
  Q 280.76 182.10 278.83 182.17
  Q 278.30 182.19 277.88 182.50
  C 277.47 182.79 277.02 183.00 276.49 183.03
  Q 275.02 183.12 273.66 183.08
  Q 272.30 183.05 270.97 183.56
  Q 268.83 184.39 266.47 184.07
  Q 265.81 183.98 265.68 184.63
  Q 265.64 184.80 265.50 184.89
  Q 265.10 185.14 264.63 185.14
  Q 262.73 185.14 261.03 185.13
  A 0.65 0.65 0.0 0 0 260.38 185.78
  L 260.38 282.53
  Q 260.38 283.16 259.98 283.64
  Q 259.34 284.41 259.95 285.23
  Q 260.26 285.66 260.26 286.19
  Q 260.22 300.96 260.26 316.54
  Q 260.27 318.66 260.61 320.80
  Q 260.96 323.03 260.27 325.24
  Q 259.55 327.50 259.49 329.86
  Q 259.27 337.42 259.38 347.64
  Q 259.40 349.81 258.85 352.19
  C 257.91 356.27 258.39 361.33 258.31 365.56
  Q 258.29 366.84 257.58 370.33
  C 256.98 373.29 257.68 375.97 257.05 379.40"
/>
<path stroke="#78a861" vector-effect="non-scaling-stroke" d="
  M 256.44 384.63
  Q 255.91 391.78 254.99 398.76
  Q 254.72 400.74 254.49 404.77
  Q 254.34 407.38 253.81 410.76
  Q 253.60 412.08 253.37 413.48
  Q 252.59 418.27 251.44 424.22
  C 251.23 425.30 250.60 426.33 250.52 427.35
  Q 250.42 428.50 250.11 429.65
  Q 248.64 434.99 246.97 440.16"
/>
<path stroke="#88b376" vector-effect="non-scaling-stroke" d="
  M 273.87 436.21
  L 267.66 431.20"
/>
<path stroke="#76a15e" vector-effect="non-scaling-stroke" d="
  M 267.66 431.20
  Q 266.32 427.77 264.59 424.17
  Q 262.73 420.29 261.92 417.00
  Q 259.51 407.28 258.78 400.49
  Q 258.02 393.44 257.14 386.53"
/>
<path stroke="#bcbca0" vector-effect="non-scaling-stroke" d="
  M 267.66 431.20
  Q 265.50 434.28 263.37 440.50
  Q 259.55 451.74 255.74 463.00
  Q 255.08 464.94 252.65 465.87"
/>
</g>
<path fill="#60b24f" d="
  M 256.58 18.34
  Q 256.18 25.58 256.44 32.15
  Q 256.47 33.06 257.01 35.79
  Q 257.33 37.43 257.35 39.50
  Q 257.42 47.74 257.55 55.98
  C 257.61 60.06 258.25 64.34 258.28 68.50
  Q 258.43 89.10 258.40 109.25
  C 258.38 120.38 259.44 131.49 259.33 141.93
  Q 259.12 161.50 259.32 176.95
  Q 259.32 177.03 259.53 179.55
  Q 259.65 181.06 258.58 180.00
  Q 257.68 179.12 257.25 177.83
  Q 239.03 123.49 223.12 76.63
  Q 223.08 76.51 222.95 76.50
  Q 222.76 76.49 222.72 76.62
  Q 222.46 77.46 222.46 76.59
  Q 222.45 76.21 222.54 75.78
  Q 222.64 75.28 222.48 74.80
  Q 220.55 69.28 218.71 63.75
  Q 218.41 62.84 216.30 61.45
  C 216.62 61.05 216.82 60.66 217.11 60.38
  C 224.11 53.45 230.98 46.36 238.31 39.73
  C 245.55 33.18 252.55 26.14 253.37 15.89
  Q 253.50 14.31 253.83 12.85
  Q 254.02 12.05 254.33 12.81
  L 256.58 18.34
  Z"
/>
<path fill="#46a539" d="
  M 256.58 18.34
  Q 262.42 29.29 267.65 39.30
  Q 269.29 42.43 275.95 49.56
  Q 282.34 56.41 288.75 63.24
  Q 332.34 109.67 351.82 170.47
  Q 350.51 171.29 348.98 171.18
  Q 348.44 171.14 347.94 171.35
  Q 345.31 172.48 342.50 172.09
  A 1.10 1.09 26.5 0 0 341.59 172.39
  Q 341.03 172.93 340.25 173.00
  Q 337.68 173.21 334.94 173.11
  A 0.31 0.31 0.0 0 0 334.62 173.46
  Q 334.64 173.63 334.54 173.75
  Q 334.29 174.07 333.88 174.06
  Q 329.92 173.93 328.35 174.36
  Q 325.81 175.05 323.21 175.06
  Q 322.74 175.06 322.35 175.33
  Q 321.94 175.61 321.47 175.82
  Q 320.77 176.14 320.01 176.12
  Q 317.99 176.06 316.11 176.19
  Q 315.97 176.20 315.87 176.30
  Q 315.82 176.35 315.87 176.42
  Q 316.27 176.92 315.61 176.94
  Q 312.76 177.05 309.90 177.37
  Q 309.71 177.39 309.67 177.58
  Q 309.62 177.90 309.29 177.91
  Q 306.49 177.97 303.80 178.68
  Q 302.06 179.14 300.63 179.13
  Q 298.99 179.12 297.39 179.12
  A 1.20 1.17 -64.1 0 0 296.64 179.39
  Q 296.49 179.51 296.34 179.63
  Q 296.03 179.88 295.60 179.94
  Q 293.55 180.22 291.47 180.12
  Q 290.96 180.10 290.60 180.45
  Q 290.04 180.99 289.46 181.00
  Q 286.96 181.06 284.73 181.18
  Q 284.23 181.21 283.83 181.51
  Q 283.63 181.66 283.41 181.80
  Q 283.09 182.02 282.71 182.03
  Q 280.76 182.10 278.83 182.17
  Q 278.30 182.19 277.88 182.50
  C 277.47 182.79 277.02 183.00 276.49 183.03
  Q 275.02 183.12 273.66 183.08
  Q 272.30 183.05 270.97 183.56
  Q 268.83 184.39 266.47 184.07
  Q 265.81 183.98 265.68 184.63
  Q 265.64 184.80 265.50 184.89
  Q 265.10 185.14 264.63 185.14
  Q 262.73 185.14 261.03 185.13
  A 0.65 0.65 0.0 0 0 260.38 185.78
  L 260.38 282.53
  Q 260.38 283.16 259.98 283.64
  Q 259.34 284.41 259.95 285.23
  Q 260.26 285.66 260.26 286.19
  Q 260.22 300.96 260.26 316.54
  Q 260.27 318.66 260.61 320.80
  Q 260.96 323.03 260.27 325.24
  Q 259.55 327.50 259.49 329.86
  Q 259.27 337.42 259.38 347.64
  Q 259.40 349.81 258.85 352.19
  C 257.91 356.27 258.39 361.33 258.31 365.56
  Q 258.29 366.84 257.58 370.33
  C 256.98 373.29 257.68 375.97 257.05 379.40
  L 256.44 384.63
  Q 255.91 391.78 254.99 398.76
  Q 254.72 400.74 254.49 404.77
  Q 254.34 407.38 253.81 410.76
  Q 253.60 412.08 253.37 413.48
  Q 252.59 418.27 251.44 424.22
  C 251.23 425.30 250.60 426.33 250.52 427.35
  Q 250.42 428.50 250.11 429.65
  Q 248.64 434.99 246.97 440.16
  Q 234.89 430.36 226.10 422.15
  C 191.96 390.24 166.27 350.25 153.91 304.95
  Q 149.02 287.03 147.59 269.40
  C 146.68 258.13 146.03 246.91 146.81 235.60
  Q 148.98 204.15 155.91 176.37
  C 159.37 162.51 165.55 148.57 170.30 135.08
  Q 172.46 128.94 175.85 122.86
  Q 182.50 110.92 189.23 98.29
  Q 192.01 93.07 196.47 87.25
  Q 206.36 74.36 215.65 62.14
  Q 216.14 61.49 216.30 61.45
  Q 218.41 62.84 218.71 63.75
  Q 220.55 69.28 222.48 74.80
  Q 222.64 75.28 222.54 75.78
  Q 222.45 76.21 222.46 76.59
  Q 222.46 77.46 222.72 76.62
  Q 222.76 76.49 222.95 76.50
  Q 223.08 76.51 223.12 76.63
  Q 239.03 123.49 257.25 177.83
  Q 257.68 179.12 258.58 180.00
  Q 259.65 181.06 259.53 179.55
  Q 259.32 177.03 259.32 176.95
  Q 259.12 161.50 259.33 141.93
  C 259.44 131.49 258.38 120.38 258.40 109.25
  Q 258.43 89.10 258.28 68.50
  C 258.25 64.34 257.61 60.06 257.55 55.98
  Q 257.42 47.74 257.35 39.50
  Q 257.33 37.43 257.01 35.79
  Q 256.47 33.06 256.44 32.15
  Q 256.18 25.58 256.58 18.34
  Z"
/>
<path fill="#429834" d="
  M 351.82 170.47
  Q 359.70 192.49 362.82 212.74
  Q 368.80 251.54 362.16 292.85
  Q 361.14 299.20 358.62 307.99
  C 356.75 314.55 355.12 321.72 352.85 327.94
  Q 344.68 350.28 333.76 369.45
  Q 322.74 388.79 305.69 407.13
  C 295.29 418.30 286.13 427.31 273.87 436.21
  L 267.66 431.20
  Q 266.32 427.77 264.59 424.17
  Q 262.73 420.29 261.92 417.00
  Q 259.51 407.28 258.78 400.49
  Q 258.02 393.44 257.14 386.53
  L 257.05 379.40
  C 257.68 375.97 256.98 373.29 257.58 370.33
  Q 258.29 366.84 258.31 365.56
  C 258.39 361.33 257.91 356.27 258.85 352.19
  Q 259.40 349.81 259.38 347.64
  Q 259.27 337.42 259.49 329.86
  Q 259.55 327.50 260.27 325.24
  Q 260.96 323.03 260.61 320.80
  Q 260.27 318.66 260.26 316.54
  Q 260.22 300.96 260.26 286.19
  Q 260.26 285.66 259.95 285.23
  Q 259.34 284.41 259.98 283.64
  Q 260.38 283.16 260.38 282.53
  L 260.38 185.78
  A 0.65 0.65 0.0 0 1 261.03 185.13
  Q 262.73 185.14 264.63 185.14
  Q 265.10 185.14 265.50 184.89
  Q 265.64 184.80 265.68 184.63
  Q 265.81 183.98 266.47 184.07
  Q 268.83 184.39 270.97 183.56
  Q 272.30 183.05 273.66 183.08
  Q 275.02 183.12 276.49 183.03
  C 277.02 183.00 277.47 182.79 277.88 182.50
  Q 278.30 182.19 278.83 182.17
  Q 280.76 182.10 282.71 182.03
  Q 283.09 182.02 283.41 181.80
  Q 283.63 181.66 283.83 181.51
  Q 284.23 181.21 284.73 181.18
  Q 286.96 181.06 289.46 181.00
  Q 290.04 180.99 290.60 180.45
  Q 290.96 180.10 291.47 180.12
  Q 293.55 180.22 295.60 179.94
  Q 296.03 179.88 296.34 179.63
  Q 296.49 179.51 296.64 179.39
  A 1.20 1.17 -64.1 0 1 297.39 179.12
  Q 298.99 179.12 300.63 179.13
  Q 302.06 179.14 303.80 178.68
  Q 306.49 177.97 309.29 177.91
  Q 309.62 177.90 309.67 177.58
  Q 309.71 177.39 309.90 177.37
  Q 312.76 177.05 315.61 176.94
  Q 316.27 176.92 315.87 176.42
  Q 315.82 176.35 315.87 176.30
  Q 315.97 176.20 316.11 176.19
  Q 317.99 176.06 320.01 176.12
  Q 320.77 176.14 321.47 175.82
  Q 321.94 175.61 322.35 175.33
  Q 322.74 175.06 323.21 175.06
  Q 325.81 175.05 328.35 174.36
  Q 329.92 173.93 333.88 174.06
  Q 334.29 174.07 334.54 173.75
  Q 334.64 173.63 334.62 173.46
  A 0.31 0.31 0.0 0 1 334.94 173.11
  Q 337.68 173.21 340.25 173.00
  Q 341.03 172.93 341.59 172.39
  A 1.10 1.09 26.5 0 1 342.50 172.09
  Q 345.31 172.48 347.94 171.35
  Q 348.44 171.14 348.98 171.18
  Q 350.51 171.29 351.82 170.47
  Z"
/>
<path fill="#a9aa88" d="
  M 256.44 384.63
  Q 256.94 385.30 257.14 386.53
  Q 258.02 393.44 258.78 400.49
  Q 259.51 407.28 261.92 417.00
  Q 262.73 420.29 264.59 424.17
  Q 266.32 427.77 267.66 431.20
  Q 265.50 434.28 263.37 440.50
  Q 259.55 451.74 255.74 463.00
  Q 255.08 464.94 252.65 465.87
  C 251.48 459.65 250.72 453.19 248.92 447.06
  Q 247.91 443.64 246.97 440.16
  Q 248.64 434.99 250.11 429.65
  Q 250.42 428.50 250.52 427.35
  C 250.60 426.33 251.23 425.30 251.44 424.22
  Q 252.59 418.27 253.37 413.48
  Q 253.60 412.08 253.81 410.76
  Q 254.34 407.38 254.49 404.77
  Q 254.72 400.74 254.99 398.76
  Q 255.91 391.78 256.44 384.63
  Z"
/>
<path fill="#cecdb7" d="
  M 267.66 431.20
  L 273.87 436.21
  Q 272.63 438.77 271.03 441.49
  C 269.61 443.90 268.52 446.79 268.27 449.51
  Q 267.63 456.47 266.89 464.08
  C 265.74 475.88 266.32 487.95 267.39 499.42
  A 0.29 0.29 0.0 0 1 267.00 499.72
  L 256.67 495.85
  A 4.12 4.10 10.0 0 1 254.00 492.05
  Q 253.97 488.94 254.02 485.97
  C 254.13 479.36 253.18 472.52 252.65 465.87
  Q 255.08 464.94 255.74 463.00
  Q 259.55 451.74 263.37 440.50
  Q 265.50 434.28 267.66 431.20
  Z"
/>
</svg>
