<?xml version="1.0" encoding="UTF-8" standalone="no"?>
<!DOCTYPE svg PUBLIC "-//W3C//DTD SVG 1.1//EN" "http://www.w3.org/Graphics/SVG/1.1/DTD/svg11.dtd">
<svg xmlns="http://www.w3.org/2000/svg" version="1.1" viewBox="0.00 0.00 256.00 256.00">
<path fill="#000000" d="
  M 119.28 0.00
  L 131.04 0.00
  Q 139.61 0.15 146.37 1.16
  C 173.18 5.14 197.85 17.24 217.21 36.14
  Q 251.67 69.78 256.00 119.28
  L 256.00 136.83
  Q 254.82 149.30 253.13 156.24
  Q 240.90 206.36 198.04 235.54
  Q 197.42 235.96 197.01 235.33
  Q 146.65 158.91 96.04 82.48
  A 3.96 3.96 0.0 0 0 93.21 80.73
  Q 89.39 80.26 84.93 80.56
  C 82.16 80.74 79.97 82.58 79.98 85.55
  Q 80.09 134.25 80.01 182.91
  A 4.73 4.73 0.0 0 0 84.90 187.64
  C 88.51 187.51 95.39 188.86 95.47 183.00
  Q 95.86 153.67 95.70 120.65
  C 95.68 117.41 96.02 113.56 95.98 110.07
  Q 95.97 109.07 96.54 109.89
  Q 118.14 141.48 140.16 174.33
  Q 145.80 182.74 151.70 190.77
  Q 170.22 215.96 188.57 240.33
  A 0.57 0.57 0.0 0 1 188.37 241.18
  Q 164.08 253.87 137.11 256.00
  L 118.76 256.00
  Q 74.61 252.23 42.77 223.71
  Q 4.49 189.43 0.00 136.70
  L 0.00 119.47
  Q 3.32 76.56 30.32 45.07
  Q 64.90 4.72 119.28 0.00
  Z
  M 169.29 76.98
  C 165.20 76.66 158.90 76.48 158.89 81.80
  Q 158.84 113.13 158.83 144.80
  Q 158.83 147.12 160.07 149.00
  Q 167.14 159.67 173.55 169.68
  Q 174.71 171.48 174.71 169.34
  Q 174.68 127.29 174.71 82.51
  Q 174.71 77.42 169.29 76.98
  Z"
/>
</svg>
