<?xml version="1.0" encoding="UTF-8" standalone="no"?>
<!DOCTYPE svg PUBLIC "-//W3C//DTD SVG 1.1//EN" "http://www.w3.org/Graphics/SVG/1.1/DTD/svg11.dtd">
<svg xmlns="http://www.w3.org/2000/svg" version="1.1" viewBox="0.00 0.00 1354.00 1547.00">
<path stroke="#80cb9b" stroke-width="2.00" fill="none" stroke-linecap="butt" vector-effect="non-scaling-stroke" d="
  M 887.51 906.43
  Q 887.26 906.44 887.06 906.18
  Q 883.34 901.37 880.25 897.81
  Q 877.17 894.26 874.20 890.76
  Q 799.98 803.11 730.66 720.37
  Q 619.05 587.14 503.79 449.56
  Q 496.70 441.10 490.74 434.80
  Q 467.27 410.03 434.56 397.45
  Q 393.49 381.65 349.10 389.76
  C 308.31 397.22 277.62 432.92 277.65 474.86
  Q 277.83 781.55 277.72 1074.04
  C 277.71 1097.65 288.51 1121.60 307.32 1136.95
  C 331.56 1156.76 363.74 1163.00 393.49 1153.17
  Q 421.38 1143.94 437.31 1120.58
  Q 452.75 1097.94 452.78 1070.75
  Q 452.78 1068.94 452.66 913.75
  Q 452.57 799.15 452.62 670.25
  Q 452.63 654.31 453.19 638.55
  Q 453.21 638.02 453.55 638.43
  C 584.79 795.55 712.97 948.46 842.39 1102.51
  Q 850.05 1111.62 856.07 1117.05
  C 892.27 1149.68 941.59 1163.29 989.59 1154.43
  C 1021.64 1148.51 1046.50 1128.29 1057.58 1097.36
  Q 1061.06 1087.64 1061.64 1078.10
  Q 1062.08 1070.79 1062.08 1058.78
  Q 1062.04 768.57 1062.01 478.32
  Q 1062.01 465.71 1060.80 458.57
  C 1056.24 431.62 1038.85 408.74 1014.79 396.22
  C 963.54 369.54 900.22 400.11 889.24 456.77
  Q 887.89 463.76 887.86 476.32
  C 887.64 599.47 887.44 727.14 887.61 845.50
  Q 887.66 875.75 887.88 906.06
  A 0.38 0.37 -0.8 0 1 887.51 906.43"
/>
<path fill="#009736" d="
  M 1354.00 410.88
  L 1354.00 416.25
  Q 1353.70 417.12 1353.70 418.25
  C 1353.69 465.08 1353.56 511.92 1353.55 558.75
  Q 1353.48 850.75 1353.49 1142.75
  Q 1353.49 1145.63 1352.36 1149.00
  Q 1348.86 1159.48 1341.40 1166.92
  Q 1337.52 1170.78 1325.36 1177.78
  Q 1024.52 1351.02 706.78 1533.67
  Q 701.27 1536.84 696.49 1539.79
  Q 689.93 1543.84 685.59 1545.12
  C 676.83 1547.70 667.81 1546.33 659.90 1541.79
  Q 336.47 1356.27 19.20 1173.34
  C 10.49 1168.32 4.09 1159.62 1.51 1150.08
  Q 0.28 1145.51 0.29 1134.08
  Q 0.49 753.30 0.23 421.00
  Q 0.22 406.40 0.74 403.02
  Q 2.59 390.88 11.26 382.09
  Q 14.99 378.31 23.16 373.61
  Q 324.41 200.43 630.56 24.07
  C 644.94 15.78 659.28 7.43 673.68 0.67
  C 675.43 -0.16 677.56 0.37 679.27 1.19
  Q 701.72 11.98 722.48 24.30
  Q 731.38 29.57 739.76 34.39
  Q 1035.62 204.56 1331.44 374.82
  Q 1351.80 386.53 1354.00 410.88
  Z
  M 887.51 906.43
  Q 887.26 906.44 887.06 906.18
  Q 883.34 901.37 880.25 897.81
  Q 877.17 894.26 874.20 890.76
  Q 799.98 803.11 730.66 720.37
  Q 619.05 587.14 503.79 449.56
  Q 496.70 441.10 490.74 434.80
  Q 467.27 410.03 434.56 397.45
  Q 393.49 381.65 349.10 389.76
  C 308.31 397.22 277.62 432.92 277.65 474.86
  Q 277.83 781.55 277.72 1074.04
  C 277.71 1097.65 288.51 1121.60 307.32 1136.95
  C 331.56 1156.76 363.74 1163.00 393.49 1153.17
  Q 421.38 1143.94 437.31 1120.58
  Q 452.75 1097.94 452.78 1070.75
  Q 452.78 1068.94 452.66 913.75
  Q 452.57 799.15 452.62 670.25
  Q 452.63 654.31 453.19 638.55
  Q 453.21 638.02 453.55 638.43
  C 584.79 795.55 712.97 948.46 842.39 1102.51
  Q 850.05 1111.62 856.07 1117.05
  C 892.27 1149.68 941.59 1163.29 989.59 1154.43
  C 1021.64 1148.51 1046.50 1128.29 1057.58 1097.36
  Q 1061.06 1087.64 1061.64 1078.10
  Q 1062.08 1070.79 1062.08 1058.78
  Q 1062.04 768.57 1062.01 478.32
  Q 1062.01 465.71 1060.80 458.57
  C 1056.24 431.62 1038.85 408.74 1014.79 396.22
  C 963.54 369.54 900.22 400.11 889.24 456.77
  Q 887.89 463.76 887.86 476.32
  C 887.64 599.47 887.44 727.14 887.61 845.50
  Q 887.66 875.75 887.88 906.06
  A 0.38 0.37 -0.8 0 1 887.51 906.43
  Z"
/>
<path fill="#ffffff" d="
  M 887.51 906.43
  A 0.38 0.37 -0.8 0 0 887.88 906.06
  Q 887.66 875.75 887.61 845.50
  C 887.44 727.14 887.64 599.47 887.86 476.32
  Q 887.89 463.76 889.24 456.77
  C 900.22 400.11 963.54 369.54 1014.79 396.22
  C 1038.85 408.74 1056.24 431.62 1060.80 458.57
  Q 1062.01 465.71 1062.01 478.32
  Q 1062.04 768.57 1062.08 1058.78
  Q 1062.08 1070.79 1061.64 1078.10
  Q 1061.06 1087.64 1057.58 1097.36
  C 1046.50 1128.29 1021.64 1148.51 989.59 1154.43
  C 941.59 1163.29 892.27 1149.68 856.07 1117.05
  Q 850.05 1111.62 842.39 1102.51
  C 712.97 948.46 584.79 795.55 453.55 638.43
  Q 453.21 638.02 453.19 638.55
  Q 452.63 654.31 452.62 670.25
  Q 452.57 799.15 452.66 913.75
  Q 452.78 1068.94 452.78 1070.75
  Q 452.75 1097.94 437.31 1120.58
  Q 421.38 1143.94 393.49 1153.17
  C 363.74 1163.00 331.56 1156.76 307.32 1136.95
  C 288.51 1121.60 277.71 1097.65 277.72 1074.04
  Q 277.83 781.55 277.65 474.86
  C 277.62 432.92 308.31 397.22 349.10 389.76
  Q 393.49 381.65 434.56 397.45
  Q 467.27 410.03 490.74 434.80
  Q 496.70 441.10 503.79 449.56
  Q 619.05 587.14 730.66 720.37
  Q 799.98 803.11 874.20 890.76
  Q 877.17 894.26 880.25 897.81
  Q 883.34 901.37 887.06 906.18
  Q 887.26 906.44 887.51 906.43
  Z"
/>
</svg>
