<?xml version="1.0" encoding="UTF-8" standalone="no"?>
<!DOCTYPE svg PUBLIC "-//W3C//DTD SVG 1.1//EN" "http://www.w3.org/Graphics/SVG/1.1/DTD/svg11.dtd">
<svg xmlns="http://www.w3.org/2000/svg" version="1.1" viewBox="0.00 0.00 1395.00 1503.00">
<path fill="#8dc94a" d="
  M 8.91 390.80
  Q 22.42 358.67 50.55 339.58
  Q 56.89 335.27 67.72 329.30
  Q 342.25 177.94 622.79 22.88
  Q 636.70 15.18 640.41 13.41
  C 672.85 -2.14 711.98 -4.28 746.06 9.58
  Q 753.64 12.66 763.31 18.00
  Q 1045.99 174.26 1329.18 330.41
  Q 1340.03 336.39 1345.53 340.27
  C 1375.41 361.35 1394.78 396.34 1394.77 433.20
  Q 1394.71 746.37 1394.78 1069.80
  C 1394.79 1108.90 1372.60 1145.30 1340.00 1166.07
  Q 1336.54 1168.27 1322.61 1175.95
  Q 1124.17 1285.34 928.79 1393.12
  Q 856.69 1432.90 755.03 1488.86
  Q 740.40 1496.92 721.00 1500.38
  Q 680.24 1507.66 642.90 1490.38
  C 635.31 1486.86 624.12 1480.00 618.65 1476.92
  Q 541.10 1433.14 463.53 1389.41
  C 457.45 1385.99 451.57 1382.31 445.66 1378.57
  C 441.63 1376.01 429.95 1368.60 433.08 1362.59
  C 435.89 1357.20 445.12 1353.28 450.51 1351.06
  Q 462.47 1346.11 474.46 1341.12
  Q 501.75 1329.75 523.70 1317.83
  C 530.04 1314.39 535.08 1314.43 541.28 1317.95
  Q 600.26 1351.43 657.15 1383.53
  Q 671.68 1391.74 685.59 1399.58
  Q 690.58 1402.40 693.07 1403.01
  C 699.16 1404.49 704.92 1402.30 710.44 1399.17
  Q 736.53 1384.37 761.49 1370.27
  Q 873.80 1306.81 987.10 1245.16
  Q 1165.08 1148.33 1281.75 1084.01
  Q 1287.96 1080.59 1290.13 1074.26
  Q 1291.34 1070.70 1291.34 1062.90
  Q 1291.16 759.55 1291.31 437.93
  Q 1291.31 431.10 1290.10 428.10
  Q 1287.60 421.90 1282.52 418.89
  Q 1274.31 414.03 1262.70 407.65
  Q 1044.49 287.75 707.53 101.79
  Q 701.52 98.47 694.95 99.37
  Q 691.06 99.91 683.67 103.97
  C 519.23 194.36 355.65 284.78 193.63 374.09
  Q 128.63 409.93 114.43 417.65
  Q 107.79 421.26 105.20 427.44
  Q 103.71 430.97 103.71 437.01
  Q 103.61 751.10 103.85 1067.88
  Q 103.85 1071.63 104.68 1074.12
  Q 106.41 1079.33 110.99 1082.29
  Q 160.34 1114.23 214.59 1141.41
  Q 249.41 1158.85 284.62 1171.59
  Q 299.74 1177.05 317.44 1180.77
  C 332.81 1183.99 348.44 1185.24 362.94 1180.28
  Q 370.85 1177.56 378.75 1171.83
  C 397.59 1158.12 408.49 1137.50 408.51 1114.00
  C 408.66 907.24 408.19 695.63 408.74 485.75
  C 408.75 480.44 413.96 475.11 418.58 473.23
  Q 421.62 471.99 428.06 472.05
  Q 435.53 472.11 442.49 472.06
  Q 464.32 471.90 496.29 472.10
  Q 502.13 472.13 505.19 473.30
  C 511.90 475.87 515.81 483.58 515.34 490.60
  Q 515.22 492.49 515.22 494.37
  Q 515.46 807.10 515.17 1121.47
  C 515.14 1154.61 507.19 1188.00 490.08 1216.56
  Q 468.22 1253.06 429.58 1270.06
  Q 404.06 1281.29 373.37 1285.61
  Q 363.43 1287.01 353.51 1287.34
  Q 306.65 1288.89 262.65 1274.17
  Q 240.65 1266.81 218.39 1255.09
  C 208.33 1249.79 193.90 1242.76 182.44 1236.60
  C 146.22 1217.10 106.97 1194.43 68.35 1173.72
  Q 56.22 1167.21 51.09 1163.64
  C 23.38 1144.35 4.24 1114.23 0.83 1080.49
  Q 0.16 1073.90 0.17 1060.73
  Q 0.32 745.39 0.26 430.54
  Q 0.26 411.37 8.91 390.80
  Z"
/>
<path fill="#8dc94a" d="
  M 1018.45 940.31
  C 1040.64 926.22 1049.72 901.41 1048.12 875.56
  Q 1047.39 863.80 1043.23 856.43
  C 1034.64 841.21 1017.54 832.84 1001.02 827.61
  Q 983.86 822.19 964.98 818.07
  Q 929.99 810.45 893.44 806.42
  Q 848.54 801.48 808.61 796.94
  Q 781.71 793.88 755.51 788.86
  C 731.96 784.34 709.42 778.42 686.61 769.91
  C 647.17 755.18 610.89 727.01 597.86 685.33
  Q 586.14 647.82 591.26 610.06
  Q 599.92 546.17 651.90 507.57
  C 681.87 485.32 717.30 472.00 753.44 464.54
  Q 786.30 457.76 818.29 456.32
  C 894.69 452.86 971.97 456.73 1041.28 490.68
  Q 1089.43 514.26 1115.33 561.63
  Q 1138.34 603.69 1139.44 651.42
  C 1139.57 657.25 1133.71 662.29 1128.50 664.02
  Q 1125.57 664.99 1120.10 665.03
  Q 1073.51 665.32 1046.33 664.84
  C 1038.39 664.70 1032.77 656.89 1031.17 649.77
  C 1025.06 622.68 1012.18 596.07 989.21 579.74
  Q 977.70 571.56 961.66 565.79
  Q 938.73 557.55 915.69 553.56
  C 879.52 547.31 842.71 546.13 805.78 551.24
  Q 785.22 554.09 765.90 560.28
  C 747.89 566.05 727.49 575.32 716.37 590.13
  C 706.28 603.57 702.74 621.28 704.93 637.96
  Q 706.42 649.30 711.29 656.59
  Q 717.76 666.29 726.68 672.25
  C 741.18 681.95 759.60 687.44 776.97 690.63
  Q 799.96 694.86 829.50 696.95
  Q 865.30 699.48 890.24 701.72
  Q 911.51 703.62 940.77 707.96
  Q 986.54 714.75 1028.61 726.11
  Q 1042.91 729.97 1057.47 734.90
  Q 1089.78 745.83 1112.16 762.82
  C 1129.83 776.23 1144.41 793.14 1152.03 813.54
  Q 1158.95 832.09 1161.54 854.42
  Q 1166.49 897.10 1152.55 935.84
  C 1122.33 1019.84 1029.24 1051.34 948.52 1060.89
  Q 910.24 1065.42 871.71 1064.92
  Q 824.92 1064.31 791.14 1060.17
  Q 754.36 1055.65 719.10 1044.16
  C 673.69 1029.35 630.00 1004.82 601.41 965.98
  C 578.66 935.10 568.87 897.86 570.60 859.61
  Q 570.86 853.96 575.47 850.00
  C 580.65 845.55 585.33 845.60 593.05 845.54
  Q 624.98 845.33 659.06 845.66
  Q 665.92 845.73 668.79 847.11
  C 675.68 850.43 677.93 856.37 679.05 864.11
  C 683.18 892.56 696.04 923.89 721.85 939.29
  C 735.21 947.27 751.09 952.92 765.74 956.93
  Q 795.87 965.19 831.40 968.50
  Q 881.02 973.12 927.66 967.88
  Q 955.59 964.74 981.44 956.90
  C 994.42 952.96 1006.93 947.62 1018.45 940.31
  Z"
/>
</svg>
