<?xml version="1.0" encoding="UTF-8" standalone="no"?>
<svg xmlns="http://www.w3.org/2000/svg" version="1.2" baseProfile="tiny" viewBox="0.00 0.00 512.00 512.00">
<g stroke-width="2.00" fill="none" stroke-linecap="butt">
<path stroke="#808080" vector-effect="non-scaling-stroke" d="
  M 247.97 356.78
  Q 247.58 393.25 249.49 424.42
  Q 250.24 436.66 252.11 448.95
  Q 254.12 462.13 262.38 475.39
  C 274.30 494.54 293.76 501.17 315.39 497.85
  Q 329.06 495.75 341.54 490.73
  C 364.15 481.64 375.15 463.05 378.94 439.73
  Q 384.77 403.92 390.53 351.12
  Q 390.59 350.53 391.16 350.67
  C 405.80 354.31 421.68 353.30 436.50 350.43
  C 450.91 347.64 462.16 342.60 474.28 334.07
  C 480.53 329.68 488.40 322.78 489.58 315.14
  C 490.59 308.65 485.97 304.06 479.63 303.34
  Q 475.41 302.86 471.70 303.53
  C 458.94 305.81 446.58 308.11 433.35 307.69
  Q 424.15 307.39 417.10 303.80
  A 0.68 0.67 -60.0 0 1 416.84 302.83
  Q 453.59 245.95 473.46 181.62
  Q 481.12 156.80 485.04 131.16
  Q 488.71 107.14 486.39 88.46
  C 485.06 77.77 482.00 69.66 474.83 61.30
  C 444.51 26.00 402.07 11.56 356.16 13.87
  Q 328.59 15.26 303.96 23.40
  Q 303.33 23.61 302.69 23.46
  C 269.75 15.88 234.79 16.88 206.25 35.75
  Q 205.81 36.04 205.31 35.86
  C 180.18 26.64 152.35 20.58 125.52 20.16
  C 108.77 19.90 91.63 22.21 76.27 28.68
  C 40.96 43.57 25.69 75.84 22.64 112.62
  Q 20.64 136.58 24.25 158.41
  Q 33.46 214.30 51.17 269.30
  C 59.60 295.48 87.30 376.51 126.57 365.44
  Q 137.86 362.26 146.76 351.69
  Q 165.80 329.10 187.02 306.10
  Q 187.44 305.65 187.98 305.94
  Q 200.72 312.69 215.44 313.29
  A 0.51 0.50 -69.5 0 1 215.81 314.11
  Q 211.92 318.99 207.91 323.90
  C 203.48 329.31 196.98 331.65 190.19 333.12
  Q 182.24 334.83 174.09 336.85
  Q 165.59 338.95 160.42 344.24
  C 156.74 348.01 156.52 354.30 159.56 358.74
  C 163.48 364.48 171.47 368.17 178.35 370.03
  C 202.91 376.66 228.20 373.69 247.52 356.57
  A 0.27 0.27 0.0 0 1 247.97 356.78"
/>
<path stroke="#99b3c8" vector-effect="non-scaling-stroke" d="
  M 331.14 33.64
  Q 363.97 49.36 387.34 78.93
  C 400.07 95.03 410.74 113.40 416.44 132.19
  Q 417.78 136.62 417.86 138.72
  Q 418.17 146.72 417.43 155.39
  C 416.66 164.31 414.96 173.67 413.88 182.74
  Q 412.39 195.22 413.84 207.46
  Q 415.49 221.29 416.65 234.92
  C 418.18 252.97 415.25 270.49 405.98 286.28
  Q 405.66 286.82 406.05 287.31
  L 407.73 289.43
  Q 408.12 289.91 408.45 289.39
  Q 443.92 232.84 461.97 169.94
  Q 469.15 144.93 471.96 121.13
  C 473.52 107.97 474.19 92.73 469.97 80.27
  C 468.48 75.87 465.53 72.58 462.54 69.12
  C 428.63 29.93 377.10 21.84 328.36 31.76
  Q 327.71 31.89 328.29 32.20
  Q 329.70 32.95 331.14 33.64"
/>
<path stroke="#99b3c8" vector-effect="non-scaling-stroke" d="
  M 247.60 305.08
  Q 257.70 310.59 261.63 323.26
  Q 262.99 327.66 262.84 331.89
  Q 261.15 378.47 263.90 424.97
  Q 264.76 439.61 266.88 449.80
  Q 268.77 458.91 275.45 468.95
  Q 286.35 485.34 307.20 484.21
  Q 320.98 483.46 335.71 477.72
  C 350.79 471.84 359.07 461.21 362.93 445.69
  Q 365.33 436.04 366.91 424.63
  Q 372.80 381.92 376.79 345.36
  C 377.46 339.26 377.44 333.20 377.97 327.16
  Q 379.74 307.03 398.39 301.84
  A 0.55 0.55 0.0 0 0 398.66 300.96
  Q 391.06 292.03 385.11 282.49
  C 382.76 278.73 381.03 274.64 379.09 270.66
  Q 377.12 266.59 374.56 262.05
  C 362.77 241.09 351.49 219.63 344.84 196.60
  Q 342.55 188.66 341.58 180.00
  C 338.97 156.49 349.07 138.77 373.20 134.28
  Q 386.47 131.80 401.17 133.55
  Q 401.76 133.62 401.61 133.04
  Q 401.16 131.29 400.51 129.67
  Q 388.43 99.52 365.45 75.70
  C 337.72 46.95 300.45 32.34 260.43 33.54
  Q 236.38 34.26 217.14 45.86
  C 190.35 62.01 176.84 92.88 170.60 122.85
  Q 167.89 135.88 166.98 147.77
  Q 166.92 148.52 167.58 148.15
  C 190.68 135.26 231.15 124.57 246.47 154.54
  Q 249.68 160.81 251.91 172.77
  C 257.52 202.92 259.11 234.78 246.12 263.21
  Q 237.26 282.59 231.43 301.37
  Q 231.12 302.37 232.15 302.20
  Q 239.97 300.92 247.60 305.08"
/>
<path stroke="#99b3c8" vector-effect="non-scaling-stroke" d="
  M 152.06 154.89
  C 153.97 116.40 164.75 75.00 192.53 47.00
  A 0.22 0.22 0.0 0 0 192.44 46.63
  Q 167.64 38.62 142.73 35.68
  C 120.73 33.07 96.90 34.24 77.29 43.98
  C 52.86 56.11 41.27 79.84 37.77 106.26
  Q 34.44 131.39 38.16 154.33
  Q 48.16 215.99 67.74 273.52
  C 72.47 287.42 78.22 301.59 84.75 314.79
  Q 92.22 329.91 101.08 340.62
  C 107.65 348.56 117.41 356.08 127.76 349.50
  Q 132.51 346.48 136.04 342.26
  Q 155.22 319.36 175.05 298.00
  Q 175.48 297.54 175.01 297.12
  Q 151.18 275.37 150.09 243.49
  Q 149.86 236.77 151.24 225.70
  Q 153.53 207.37 152.98 187.74
  C 152.67 176.59 151.54 165.41 152.06 154.89"
/>
<path stroke="#99b3c8" vector-effect="non-scaling-stroke" d="
  M 359.89 197.37
  C 365.26 213.60 373.12 230.12 381.02 244.03
  Q 389.52 258.96 396.12 273.05
  Q 396.44 273.72 396.75 273.05
  C 405.77 253.26 402.31 231.67 399.77 210.95
  C 398.33 199.19 398.59 187.96 400.31 175.79
  C 401.33 168.60 402.69 161.38 403.15 154.23
  Q 403.33 151.41 403.51 148.62
  A 0.48 0.48 0.0 0 0 403.09 148.11
  C 382.60 145.49 353.39 145.81 355.38 175.24
  Q 356.11 185.93 359.89 197.37"
/>
<path stroke="#99b3c8" vector-effect="non-scaling-stroke" d="
  M 217.48 298.42
  C 221.39 285.06 226.29 272.49 232.00 259.94
  Q 238.53 245.58 240.64 230.58
  C 243.45 210.67 240.85 189.70 236.51 169.21
  C 229.23 134.78 184.81 153.26 167.08 165.24
  A 1.97 1.96 -19.6 0 0 166.22 167.04
  Q 169.05 199.39 165.35 228.20
  Q 164.04 238.43 164.58 246.08
  C 166.49 273.37 188.08 298.46 216.76 298.94
  Q 217.32 298.95 217.48 298.42"
/>
<path stroke="#99b3c8" vector-effect="non-scaling-stroke" d="
  M 436.55 335.80
  C 449.20 333.09 460.32 327.33 470.15 319.16
  Q 471.73 317.85 469.73 318.28
  Q 449.72 322.56 432.38 321.95
  Q 417.18 321.42 407.65 314.64
  Q 407.05 314.21 406.34 314.39
  Q 402.13 315.47 398.88 316.93
  C 392.24 319.93 391.46 328.77 392.08 335.26
  A 0.86 0.86 0.0 0 0 392.60 335.97
  Q 396.18 337.47 400.03 337.97
  C 411.91 339.52 424.75 338.33 436.55 335.80"
/>
<path stroke="#99b3c8" vector-effect="non-scaling-stroke" d="
  M 177.83 354.77
  Q 190.80 359.52 205.44 358.86
  C 222.63 358.09 236.76 350.04 246.90 335.85
  C 247.97 334.36 248.20 332.57 248.17 330.79
  C 248.10 324.24 243.67 317.14 236.67 316.31
  Q 233.19 315.90 230.11 319.55
  Q 223.83 327.00 218.38 333.60
  C 208.61 345.43 192.61 347.17 178.77 350.44
  Q 176.42 351.00 174.04 352.03
  Q 173.40 352.31 173.97 352.72
  Q 175.72 354.00 177.83 354.77"
/>
<path stroke="#99b3c8" vector-effect="non-scaling-stroke" d="
  M 370.01 156.36
  C 365.09 158.58 364.90 162.36 369.03 165.64
  C 376.50 171.56 384.88 168.64 389.49 160.91
  C 391.88 156.89 388.10 154.70 384.77 154.24
  Q 377.06 153.18 370.01 156.36"
/>
<path stroke="#99b3c8" vector-effect="non-scaling-stroke" d="
  M 224.26 159.62
  Q 217.38 156.85 209.98 157.83
  C 205.93 158.37 201.75 160.89 203.97 165.69
  C 206.57 171.31 213.07 175.71 219.43 174.58
  C 226.46 173.34 236.33 164.47 224.26 159.62"
/>
</g>
<path fill="#000000" d="
  M 360.81 0.00
  L 371.30 0.00
  C 418.32 1.38 460.16 19.83 489.66 57.21
  Q 496.50 65.88 499.45 78.80
  C 503.97 98.61 502.15 121.25 498.46 141.69
  Q 493.09 171.38 482.88 200.99
  Q 466.01 249.88 440.16 293.70
  A 0.29 0.28 -75.8 0 0 440.41 294.13
  C 450.41 293.86 460.21 291.81 470.38 290.04
  C 485.66 287.37 501.45 294.22 504.22 310.74
  C 507.52 330.37 486.17 345.49 471.65 353.75
  C 451.72 365.08 424.88 369.35 401.85 367.67
  Q 401.35 367.64 401.26 368.13
  Q 400.74 370.72 400.64 372.98
  C 398.56 418.93 395.90 479.39 347.73 501.69
  Q 330.12 509.85 306.46 512.00
  L 298.74 512.00
  Q 275.32 510.46 260.92 494.09
  C 253.41 485.55 248.98 473.89 245.22 462.37
  C 240.77 448.76 239.08 434.92 238.11 418.00
  Q 237.02 399.12 236.68 381.94
  A 0.38 0.37 77.9 0 0 236.16 381.60
  C 220.65 388.16 204.13 389.63 187.43 387.19
  C 173.37 385.14 159.39 380.69 150.20 370.25
  A 0.60 0.59 49.2 0 0 149.37 370.18
  C 137.05 380.57 121.33 384.37 106.00 379.08
  C 85.95 372.16 71.64 351.79 61.81 332.78
  Q 49.47 308.93 39.97 280.46
  Q 21.03 223.67 10.77 162.86
  C 7.86 145.59 7.27 128.66 8.88 110.87
  Q 10.75 90.17 16.98 73.47
  C 33.16 30.12 69.99 9.23 114.64 7.08
  C 143.84 5.68 174.78 11.65 203.28 21.19
  Q 203.79 21.36 204.27 21.09
  C 233.96 3.52 269.47 3.12 302.89 8.50
  Q 304.94 8.83 307.25 8.19
  Q 333.49 0.88 360.81 0.00
  Z
  M 247.97 356.78
  Q 247.58 393.25 249.49 424.42
  Q 250.24 436.66 252.11 448.95
  Q 254.12 462.13 262.38 475.39
  C 274.30 494.54 293.76 501.17 315.39 497.85
  Q 329.06 495.75 341.54 490.73
  C 364.15 481.64 375.15 463.05 378.94 439.73
  Q 384.77 403.92 390.53 351.12
  Q 390.59 350.53 391.16 350.67
  C 405.80 354.31 421.68 353.30 436.50 350.43
  C 450.91 347.64 462.16 342.60 474.28 334.07
  C 480.53 329.68 488.40 322.78 489.58 315.14
  C 490.59 308.65 485.97 304.06 479.63 303.34
  Q 475.41 302.86 471.70 303.53
  C 458.94 305.81 446.58 308.11 433.35 307.69
  Q 424.15 307.39 417.10 303.80
  A 0.68 0.67 -60.0 0 1 416.84 302.83
  Q 453.59 245.95 473.46 181.62
  Q 481.12 156.80 485.04 131.16
  Q 488.71 107.14 486.39 88.46
  C 485.06 77.77 482.00 69.66 474.83 61.30
  C 444.51 26.00 402.07 11.56 356.16 13.87
  Q 328.59 15.26 303.96 23.40
  Q 303.33 23.61 302.69 23.46
  C 269.75 15.88 234.79 16.88 206.25 35.75
  Q 205.81 36.04 205.31 35.86
  C 180.18 26.64 152.35 20.58 125.52 20.16
  C 108.77 19.90 91.63 22.21 76.27 28.68
  C 40.96 43.57 25.69 75.84 22.64 112.62
  Q 20.64 136.58 24.25 158.41
  Q 33.46 214.30 51.17 269.30
  C 59.60 295.48 87.30 376.51 126.57 365.44
  Q 137.86 362.26 146.76 351.69
  Q 165.80 329.10 187.02 306.10
  Q 187.44 305.65 187.98 305.94
  Q 200.72 312.69 215.44 313.29
  A 0.51 0.50 -69.5 0 1 215.81 314.11
  Q 211.92 318.99 207.91 323.90
  C 203.48 329.31 196.98 331.65 190.19 333.12
  Q 182.24 334.83 174.09 336.85
  Q 165.59 338.95 160.42 344.24
  C 156.74 348.01 156.52 354.30 159.56 358.74
  C 163.48 364.48 171.47 368.17 178.35 370.03
  C 202.91 376.66 228.20 373.69 247.52 356.57
  A 0.27 0.27 0.0 0 1 247.97 356.78
  Z"
/>
<path fill="#ffffff" d="
  M 247.97 356.78
  A 0.27 0.27 0.0 0 0 247.52 356.57
  C 228.20 373.69 202.91 376.66 178.35 370.03
  C 171.47 368.17 163.48 364.48 159.56 358.74
  C 156.52 354.30 156.74 348.01 160.42 344.24
  Q 165.59 338.95 174.09 336.85
  Q 182.24 334.83 190.19 333.12
  C 196.98 331.65 203.48 329.31 207.91 323.90
  Q 211.92 318.99 215.81 314.11
  A 0.51 0.50 -69.5 0 0 215.44 313.29
  Q 200.72 312.69 187.98 305.94
  Q 187.44 305.65 187.02 306.10
  Q 165.80 329.10 146.76 351.69
  Q 137.86 362.26 126.57 365.44
  C 87.30 376.51 59.60 295.48 51.17 269.30
  Q 33.46 214.30 24.25 158.41
  Q 20.64 136.58 22.64 112.62
  C 25.69 75.84 40.96 43.57 76.27 28.68
  C 91.63 22.21 108.77 19.90 125.52 20.16
  C 152.35 20.58 180.18 26.64 205.31 35.86
  Q 205.81 36.04 206.25 35.75
  C 234.79 16.88 269.75 15.88 302.69 23.46
  Q 303.33 23.61 303.96 23.40
  Q 328.59 15.26 356.16 13.87
  C 402.07 11.56 444.51 26.00 474.83 61.30
  C 482.00 69.66 485.06 77.77 486.39 88.46
  Q 488.71 107.14 485.04 131.16
  Q 481.12 156.80 473.46 181.62
  Q 453.59 245.95 416.84 302.83
  A 0.68 0.67 -60.0 0 0 417.10 303.80
  Q 424.15 307.39 433.35 307.69
  C 446.58 308.11 458.94 305.81 471.70 303.53
  Q 475.41 302.86 479.63 303.34
  C 485.97 304.06 490.59 308.65 489.58 315.14
  C 488.40 322.78 480.53 329.68 474.28 334.07
  C 462.16 342.60 450.91 347.64 436.50 350.43
  C 421.68 353.30 405.80 354.31 391.16 350.67
  Q 390.59 350.53 390.53 351.12
  Q 384.77 403.92 378.94 439.73
  C 375.15 463.05 364.15 481.64 341.54 490.73
  Q 329.06 495.75 315.39 497.85
  C 293.76 501.17 274.30 494.54 262.38 475.39
  Q 254.12 462.13 252.11 448.95
  Q 250.24 436.66 249.49 424.42
  Q 247.58 393.25 247.97 356.78
  Z
  M 331.14 33.64
  Q 363.97 49.36 387.34 78.93
  C 400.07 95.03 410.74 113.40 416.44 132.19
  Q 417.78 136.62 417.86 138.72
  Q 418.17 146.72 417.43 155.39
  C 416.66 164.31 414.96 173.67 413.88 182.74
  Q 412.39 195.22 413.84 207.46
  Q 415.49 221.29 416.65 234.92
  C 418.18 252.97 415.25 270.49 405.98 286.28
  Q 405.66 286.82 406.05 287.31
  L 407.73 289.43
  Q 408.12 289.91 408.45 289.39
  Q 443.92 232.84 461.97 169.94
  Q 469.15 144.93 471.96 121.13
  C 473.52 107.97 474.19 92.73 469.97 80.27
  C 468.48 75.87 465.53 72.58 462.54 69.12
  C 428.63 29.93 377.10 21.84 328.36 31.76
  Q 327.71 31.89 328.29 32.20
  Q 329.70 32.95 331.14 33.64
  Z
  M 247.60 305.08
  Q 257.70 310.59 261.63 323.26
  Q 262.99 327.66 262.84 331.89
  Q 261.15 378.47 263.90 424.97
  Q 264.76 439.61 266.88 449.80
  Q 268.77 458.91 275.45 468.95
  Q 286.35 485.34 307.20 484.21
  Q 320.98 483.46 335.71 477.72
  C 350.79 471.84 359.07 461.21 362.93 445.69
  Q 365.33 436.04 366.91 424.63
  Q 372.80 381.92 376.79 345.36
  C 377.46 339.26 377.44 333.20 377.97 327.16
  Q 379.74 307.03 398.39 301.84
  A 0.55 0.55 0.0 0 0 398.66 300.96
  Q 391.06 292.03 385.11 282.49
  C 382.76 278.73 381.03 274.64 379.09 270.66
  Q 377.12 266.59 374.56 262.05
  C 362.77 241.09 351.49 219.63 344.84 196.60
  Q 342.55 188.66 341.58 180.00
  C 338.97 156.49 349.07 138.77 373.20 134.28
  Q 386.47 131.80 401.17 133.55
  Q 401.76 133.62 401.61 133.04
  Q 401.16 131.29 400.51 129.67
  Q 388.43 99.52 365.45 75.70
  C 337.72 46.95 300.45 32.34 260.43 33.54
  Q 236.38 34.26 217.14 45.86
  C 190.35 62.01 176.84 92.88 170.60 122.85
  Q 167.89 135.88 166.98 147.77
  Q 166.92 148.52 167.58 148.15
  C 190.68 135.26 231.15 124.57 246.47 154.54
  Q 249.68 160.81 251.91 172.77
  C 257.52 202.92 259.11 234.78 246.12 263.21
  Q 237.26 282.59 231.43 301.37
  Q 231.12 302.37 232.15 302.20
  Q 239.97 300.92 247.60 305.08
  Z
  M 152.06 154.89
  C 153.97 116.40 164.75 75.00 192.53 47.00
  A 0.22 0.22 0.0 0 0 192.44 46.63
  Q 167.64 38.62 142.73 35.68
  C 120.73 33.07 96.90 34.24 77.29 43.98
  C 52.86 56.11 41.27 79.84 37.77 106.26
  Q 34.44 131.39 38.16 154.33
  Q 48.16 215.99 67.74 273.52
  C 72.47 287.42 78.22 301.59 84.75 314.79
  Q 92.22 329.91 101.08 340.62
  C 107.65 348.56 117.41 356.08 127.76 349.50
  Q 132.51 346.48 136.04 342.26
  Q 155.22 319.36 175.05 298.00
  Q 175.48 297.54 175.01 297.12
  Q 151.18 275.37 150.09 243.49
  Q 149.86 236.77 151.24 225.70
  Q 153.53 207.37 152.98 187.74
  C 152.67 176.59 151.54 165.41 152.06 154.89
  Z
  M 359.89 197.37
  C 365.26 213.60 373.12 230.12 381.02 244.03
  Q 389.52 258.96 396.12 273.05
  Q 396.44 273.72 396.75 273.05
  C 405.77 253.26 402.31 231.67 399.77 210.95
  C 398.33 199.19 398.59 187.96 400.31 175.79
  C 401.33 168.60 402.69 161.38 403.15 154.23
  Q 403.33 151.41 403.51 148.62
  A 0.48 0.48 0.0 0 0 403.09 148.11
  C 382.60 145.49 353.39 145.81 355.38 175.24
  Q 356.11 185.93 359.89 197.37
  Z
  M 217.48 298.42
  C 221.39 285.06 226.29 272.49 232.00 259.94
  Q 238.53 245.58 240.64 230.58
  C 243.45 210.67 240.85 189.70 236.51 169.21
  C 229.23 134.78 184.81 153.26 167.08 165.24
  A 1.97 1.96 -19.6 0 0 166.22 167.04
  Q 169.05 199.39 165.35 228.20
  Q 164.04 238.43 164.58 246.08
  C 166.49 273.37 188.08 298.46 216.76 298.94
  Q 217.32 298.95 217.48 298.42
  Z
  M 436.55 335.80
  C 449.20 333.09 460.32 327.33 470.15 319.16
  Q 471.73 317.85 469.73 318.28
  Q 449.72 322.56 432.38 321.95
  Q 417.18 321.42 407.65 314.64
  Q 407.05 314.21 406.34 314.39
  Q 402.13 315.47 398.88 316.93
  C 392.24 319.93 391.46 328.77 392.08 335.26
  A 0.86 0.86 0.0 0 0 392.60 335.97
  Q 396.18 337.47 400.03 337.97
  C 411.91 339.52 424.75 338.33 436.55 335.80
  Z
  M 177.83 354.77
  Q 190.80 359.52 205.44 358.86
  C 222.63 358.09 236.76 350.04 246.90 335.85
  C 247.97 334.36 248.20 332.57 248.17 330.79
  C 248.10 324.24 243.67 317.14 236.67 316.31
  Q 233.19 315.90 230.11 319.55
  Q 223.83 327.00 218.38 333.60
  C 208.61 345.43 192.61 347.17 178.77 350.44
  Q 176.42 351.00 174.04 352.03
  Q 173.40 352.31 173.97 352.72
  Q 175.72 354.00 177.83 354.77
  Z"
/>
<path fill="#336791" d="
  M 331.14 33.64
  Q 329.70 32.95 328.29 32.20
  Q 327.71 31.89 328.36 31.76
  C 377.10 21.84 428.63 29.93 462.54 69.12
  C 465.53 72.58 468.48 75.87 469.97 80.27
  C 474.19 92.73 473.52 107.97 471.96 121.13
  Q 469.15 144.93 461.97 169.94
  Q 443.92 232.84 408.45 289.39
  Q 408.12 289.91 407.73 289.43
  L 406.05 287.31
  Q 405.66 286.82 405.98 286.28
  C 415.25 270.49 418.18 252.97 416.65 234.92
  Q 415.49 221.29 413.84 207.46
  Q 412.39 195.22 413.88 182.74
  C 414.96 173.67 416.66 164.31 417.43 155.39
  Q 418.17 146.72 417.86 138.72
  Q 417.78 136.62 416.44 132.19
  C 410.74 113.40 400.07 95.03 387.34 78.93
  Q 363.97 49.36 331.14 33.64
  Z"
/>
<path fill="#336791" d="
  M 247.60 305.08
  Q 239.97 300.92 232.15 302.20
  Q 231.12 302.37 231.43 301.37
  Q 237.26 282.59 246.12 263.21
  C 259.11 234.78 257.52 202.92 251.91 172.77
  Q 249.68 160.81 246.47 154.54
  C 231.15 124.57 190.68 135.26 167.58 148.15
  Q 166.92 148.52 166.98 147.77
  Q 167.89 135.88 170.60 122.85
  C 176.84 92.88 190.35 62.01 217.14 45.86
  Q 236.38 34.26 260.43 33.54
  C 300.45 32.34 337.72 46.95 365.45 75.70
  Q 388.43 99.52 400.51 129.67
  Q 401.16 131.29 401.61 133.04
  Q 401.76 133.62 401.17 133.55
  Q 386.47 131.80 373.20 134.28
  C 349.07 138.77 338.97 156.49 341.58 180.00
  Q 342.55 188.66 344.84 196.60
  C 351.49 219.63 362.77 241.09 374.56 262.05
  Q 377.12 266.59 379.09 270.66
  C 381.03 274.64 382.76 278.73 385.11 282.49
  Q 391.06 292.03 398.66 300.96
  A 0.55 0.55 0.0 0 1 398.39 301.84
  Q 379.74 307.03 377.97 327.16
  C 377.44 333.20 377.46 339.26 376.79 345.36
  Q 372.80 381.92 366.91 424.63
  Q 365.33 436.04 362.93 445.69
  C 359.07 461.21 350.79 471.84 335.71 477.72
  Q 320.98 483.46 307.20 484.21
  Q 286.35 485.34 275.45 468.95
  Q 268.77 458.91 266.88 449.80
  Q 264.76 439.61 263.90 424.97
  Q 261.15 378.47 262.84 331.89
  Q 262.99 327.66 261.63 323.26
  Q 257.70 310.59 247.60 305.08
  Z"
/>
<path fill="#336791" d="
  M 192.53 47.00
  C 164.75 75.00 153.97 116.40 152.06 154.89
  C 151.54 165.41 152.67 176.59 152.98 187.74
  Q 153.53 207.37 151.24 225.70
  Q 149.86 236.77 150.09 243.49
  Q 151.18 275.37 175.01 297.12
  Q 175.48 297.54 175.05 298.00
  Q 155.22 319.36 136.04 342.26
  Q 132.51 346.48 127.76 349.50
  C 117.41 356.08 107.65 348.56 101.08 340.62
  Q 92.22 329.91 84.75 314.79
  C 78.22 301.59 72.47 287.42 67.74 273.52
  Q 48.16 215.99 38.16 154.33
  Q 34.44 131.39 37.77 106.26
  C 41.27 79.84 52.86 56.11 77.29 43.98
  C 96.90 34.24 120.73 33.07 142.73 35.68
  Q 167.64 38.62 192.44 46.63
  A 0.22 0.22 0.0 0 1 192.53 47.00
  Z"
/>
<path fill="#336791" d="
  M 381.02 244.03
  C 373.12 230.12 365.26 213.60 359.89 197.37
  Q 356.11 185.93 355.38 175.24
  C 353.39 145.81 382.60 145.49 403.09 148.11
  A 0.48 0.48 0.0 0 1 403.51 148.62
  Q 403.33 151.41 403.15 154.23
  C 402.69 161.38 401.33 168.60 400.31 175.79
  C 398.59 187.96 398.33 199.19 399.77 210.95
  C 402.31 231.67 405.77 253.26 396.75 273.05
  Q 396.44 273.72 396.12 273.05
  Q 389.52 258.96 381.02 244.03
  Z
  M 370.01 156.36
  C 365.09 158.58 364.90 162.36 369.03 165.64
  C 376.50 171.56 384.88 168.64 389.49 160.91
  C 391.88 156.89 388.10 154.70 384.77 154.24
  Q 377.06 153.18 370.01 156.36
  Z"
/>
<path fill="#336791" d="
  M 232.00 259.94
  C 226.29 272.49 221.39 285.06 217.48 298.42
  Q 217.32 298.95 216.76 298.94
  C 188.08 298.46 166.49 273.37 164.58 246.08
  Q 164.04 238.43 165.35 228.20
  Q 169.05 199.39 166.22 167.04
  A 1.97 1.96 -19.6 0 1 167.08 165.24
  C 184.81 153.26 229.23 134.78 236.51 169.21
  C 240.85 189.70 243.45 210.67 240.64 230.58
  Q 238.53 245.58 232.00 259.94
  Z
  M 224.26 159.62
  Q 217.38 156.85 209.98 157.83
  C 205.93 158.37 201.75 160.89 203.97 165.69
  C 206.57 171.31 213.07 175.71 219.43 174.58
  C 226.46 173.34 236.33 164.47 224.26 159.62
  Z"
/>
<path fill="#ffffff" d="
  M 370.01 156.36
  Q 377.06 153.18 384.77 154.24
  C 388.10 154.70 391.88 156.89 389.49 160.91
  C 384.88 168.64 376.50 171.56 369.03 165.64
  C 364.90 162.36 365.09 158.58 370.01 156.36
  Z"
/>
<path fill="#ffffff" d="
  M 224.26 159.62
  C 236.33 164.47 226.46 173.34 219.43 174.58
  C 213.07 175.71 206.57 171.31 203.97 165.69
  C 201.75 160.89 205.93 158.37 209.98 157.83
  Q 217.38 156.85 224.26 159.62
  Z"
/>
<path fill="#336791" d="
  M 470.15 319.16
  C 460.32 327.33 449.20 333.09 436.55 335.80
  C 424.75 338.33 411.91 339.52 400.03 337.97
  Q 396.18 337.47 392.60 335.97
  A 0.86 0.86 0.0 0 1 392.08 335.26
  C 391.46 328.77 392.24 319.93 398.88 316.93
  Q 402.13 315.47 406.34 314.39
  Q 407.05 314.21 407.65 314.64
  Q 417.18 321.42 432.38 321.95
  Q 449.72 322.56 469.73 318.28
  Q 471.73 317.85 470.15 319.16
  Z"
/>
<path fill="#336791" d="
  M 177.83 354.77
  Q 175.72 354.00 173.97 352.72
  Q 173.40 352.31 174.04 352.03
  Q 176.42 351.00 178.77 350.44
  C 192.61 347.17 208.61 345.43 218.38 333.60
  Q 223.83 327.00 230.11 319.55
  Q 233.19 315.90 236.67 316.31
  C 243.67 317.14 248.10 324.24 248.17 330.79
  C 248.20 332.57 247.97 334.36 246.90 335.85
  C 236.76 350.04 222.63 358.09 205.44 358.86
  Q 190.80 359.52 177.83 354.77
  Z"
/>
</svg>
