<?xml version="1.0" encoding="UTF-8" standalone="no"?>
<svg xmlns="http://www.w3.org/2000/svg" version="1.2" baseProfile="tiny" viewBox="0.00 0.00 512.00 512.00">
<g stroke-width="2.00" fill="none" stroke-linecap="butt">
<path stroke="#2e6b9e" vector-effect="non-scaling-stroke" d="
  M 101.91 150.20
  C 73.14 150.23 53.05 167.92 46.24 195.14
  Q 43.47 206.19 41.30 218.95
  Q 36.00 250.07 42.78 283.00
  C 46.48 300.96 50.43 320.41 64.78 333.36
  Q 74.06 341.73 86.91 343.22
  Q 91.83 343.80 102.37 343.60
  Q 110.25 343.45 117.62 343.65
  Q 118.21 343.67 118.22 343.07
  Q 118.39 327.54 118.20 312.90
  Q 118.04 300.29 119.49 292.72
  C 126.13 258.19 157.29 230.23 192.92 230.28
  Q 244.66 230.35 298.76 230.24
  C 318.85 230.19 335.31 216.64 340.23 197.46
  Q 341.58 192.20 341.59 184.32
  Q 341.66 137.65 341.62 89.48
  Q 341.61 81.74 340.21 76.60
  Q 336.32 62.28 323.23 52.77
  Q 312.17 44.73 301.17 42.61
  Q 258.71 34.43 208.90 39.92
  Q 196.45 41.29 184.22 44.35
  C 171.89 47.44 158.22 52.80 153.97 65.91
  C 150.75 75.85 151.42 87.25 151.54 97.82
  Q 151.55 98.17 151.89 98.17
  Q 199.67 98.26 242.35 98.08
  Q 248.31 98.05 250.95 99.16
  Q 256.60 101.52 256.61 109.51
  Q 256.65 123.23 256.61 139.29
  C 256.59 146.37 251.96 150.21 245.37 150.20
  Q 173.85 150.11 101.91 150.20"
/>
<path stroke="#9abdda" vector-effect="non-scaling-stroke" d="
  M 206.48 70.39
  A 19.07 19.07 0.0 0 0 187.41 51.32
  A 19.07 19.07 0.0 0 0 168.34 70.39
  A 19.07 19.07 0.0 0 0 187.41 89.46
  A 19.07 19.07 0.0 0 0 206.48 70.39"
/>
<path stroke="#dfb11a" vector-effect="non-scaling-stroke" d="
  M 391.89 215.53
  C 386.90 244.01 365.51 268.24 337.70 276.39
  Q 327.33 279.43 315.77 279.42
  Q 266.67 279.39 214.75 279.38
  C 204.36 279.37 195.62 281.65 187.67 287.67
  Q 175.14 297.16 171.21 311.74
  Q 169.64 317.57 169.66 326.04
  Q 169.78 374.24 169.68 421.28
  Q 169.66 427.73 170.98 432.31
  C 177.54 455.11 205.63 464.77 225.99 469.65
  Q 257.70 477.25 288.82 472.41
  Q 298.67 470.88 308.77 468.32
  C 331.82 462.50 360.05 450.57 359.78 422.05
  Q 359.74 417.51 359.85 412.64
  Q 359.86 411.96 359.19 411.96
  Q 313.47 411.97 266.43 411.97
  Q 258.49 411.97 255.98 406.44
  Q 254.58 403.35 254.73 396.71
  Q 255.00 384.40 254.74 372.54
  C 254.63 367.57 255.45 363.64 259.96 360.79
  Q 262.06 359.46 265.14 359.47
  Q 350.00 359.57 423.97 359.44
  C 445.23 359.40 454.22 342.94 461.03 325.45
  Q 468.93 305.20 471.43 288.53
  C 475.61 260.67 471.08 231.68 463.18 204.32
  C 459.27 190.76 451.79 175.17 438.00 169.15
  Q 431.49 166.31 425.23 166.18
  Q 410.46 165.87 393.54 166.09
  A 0.49 0.49 0.0 0 0 393.05 166.57
  Q 392.88 181.93 393.04 196.46
  Q 393.17 208.24 391.89 215.53"
/>
<path stroke="#ffe58e" vector-effect="non-scaling-stroke" d="
  M 315.4693 460.0616
  A 19.19 18.94 88.3 0 0 333.8317 440.3181
  A 19.19 18.94 88.3 0 0 314.3307 421.6984
  A 19.19 18.94 88.3 0 0 295.9683 441.4419
  A 19.19 18.94 88.3 0 0 315.4693 460.0616"
/>
</g>
<path fill="#275c87" d="
  M 236.66 129.75
  L 236.66 118.75
  Q 236.67 118.12 236.03 118.12
  Q 188.81 118.14 141.65 118.11
  Q 136.12 118.11 133.06 113.45
  Q 131.31 110.77 131.39 105.14
  Q 131.57 93.93 131.51 84.69
  Q 131.45 74.87 133.44 65.44
  C 138.95 39.36 160.37 28.89 184.59 23.74
  Q 198.92 20.69 212.66 19.38
  Q 257.16 15.12 299.52 21.92
  C 328.10 26.51 353.59 45.10 360.15 73.95
  Q 361.71 80.81 361.64 92.07
  Q 361.36 139.31 361.63 181.03
  Q 361.71 192.69 360.22 199.89
  C 355.14 224.41 335.99 243.76 311.54 248.93
  Q 304.57 250.40 292.98 250.35
  Q 243.32 250.12 193.63 250.31
  C 164.74 250.42 138.66 275.62 138.36 304.69
  Q 138.16 324.05 138.32 352.63
  C 138.36 360.05 133.41 363.67 126.39 363.61
  Q 110.44 363.49 93.68 363.57
  Q 58.62 363.75 39.84 334.69
  Q 32.53 323.39 28.66 309.89
  C 20.16 280.22 16.50 249.91 21.08 219.21
  Q 23.19 205.11 26.77 190.54
  C 35.66 154.32 64.36 130.17 102.05 130.18
  Q 169.01 130.18 236.25 130.16
  Q 236.66 130.16 236.66 129.75
  Z
  M 101.91 150.20
  C 73.14 150.23 53.05 167.92 46.24 195.14
  Q 43.47 206.19 41.30 218.95
  Q 36.00 250.07 42.78 283.00
  C 46.48 300.96 50.43 320.41 64.78 333.36
  Q 74.06 341.73 86.91 343.22
  Q 91.83 343.80 102.37 343.60
  Q 110.25 343.45 117.62 343.65
  Q 118.21 343.67 118.22 343.07
  Q 118.39 327.54 118.20 312.90
  Q 118.04 300.29 119.49 292.72
  C 126.13 258.19 157.29 230.23 192.92 230.28
  Q 244.66 230.35 298.76 230.24
  C 318.85 230.19 335.31 216.64 340.23 197.46
  Q 341.58 192.20 341.59 184.32
  Q 341.66 137.65 341.62 89.48
  Q 341.61 81.74 340.21 76.60
  Q 336.32 62.28 323.23 52.77
  Q 312.17 44.73 301.17 42.61
  Q 258.71 34.43 208.90 39.92
  Q 196.45 41.29 184.22 44.35
  C 171.89 47.44 158.22 52.80 153.97 65.91
  C 150.75 75.85 151.42 87.25 151.54 97.82
  Q 151.55 98.17 151.89 98.17
  Q 199.67 98.26 242.35 98.08
  Q 248.31 98.05 250.95 99.16
  Q 256.60 101.52 256.61 109.51
  Q 256.65 123.23 256.61 139.29
  C 256.59 146.37 251.96 150.21 245.37 150.20
  Q 173.85 150.11 101.91 150.20
  Z"
/>
<path fill="#347ab4" d="
  M 46.24 195.14
  C 53.05 167.92 73.14 150.23 101.91 150.20
  Q 173.85 150.11 245.37 150.20
  C 251.96 150.21 256.59 146.37 256.61 139.29
  Q 256.65 123.23 256.61 109.51
  Q 256.60 101.52 250.95 99.16
  Q 248.31 98.05 242.35 98.08
  Q 199.67 98.26 151.89 98.17
  Q 151.55 98.17 151.54 97.82
  C 151.42 87.25 150.75 75.85 153.97 65.91
  C 158.22 52.80 171.89 47.44 184.22 44.35
  Q 196.45 41.29 208.90 39.92
  Q 258.71 34.43 301.17 42.61
  Q 312.17 44.73 323.23 52.77
  Q 336.32 62.28 340.21 76.60
  Q 341.61 81.74 341.62 89.48
  Q 341.66 137.65 341.59 184.32
  Q 341.58 192.20 340.23 197.46
  C 335.31 216.64 318.85 230.19 298.76 230.24
  Q 244.66 230.35 192.92 230.28
  C 157.29 230.23 126.13 258.19 119.49 292.72
  Q 118.04 300.29 118.20 312.90
  Q 118.39 327.54 118.22 343.07
  Q 118.21 343.67 117.62 343.65
  Q 110.25 343.45 102.37 343.60
  Q 91.83 343.80 86.91 343.22
  Q 74.06 341.73 64.78 333.36
  C 50.43 320.41 46.48 300.96 42.78 283.00
  Q 36.00 250.07 41.30 218.95
  Q 43.47 206.19 46.24 195.14
  Z
  M 206.48 70.39
  A 19.07 19.07 0.0 0 0 187.41 51.32
  A 19.07 19.07 0.0 0 0 168.34 70.39
  A 19.07 19.07 0.0 0 0 187.41 89.46
  A 19.07 19.07 0.0 0 0 206.48 70.39
  Z"
/>
<circle fill="#ffffff" cx="187.41" cy="70.39" r="19.07"/>
<path fill="#bf9816" d="
  M 275.50 391.97
  Q 322.68 391.98 369.28 391.97
  C 376.61 391.96 380.06 397.25 379.85 404.22
  C 379.57 413.63 380.42 423.11 379.01 432.27
  C 374.98 458.55 352.97 474.59 329.03 482.96
  Q 268.81 504.01 208.91 485.72
  C 182.82 477.76 156.11 462.40 150.71 433.20
  Q 149.66 427.55 149.69 414.02
  Q 149.80 364.61 149.72 322.95
  C 149.67 293.28 171.29 266.63 200.38 260.57
  Q 206.22 259.36 214.79 259.37
  Q 266.67 259.45 316.30 259.43
  C 347.18 259.42 372.92 233.10 372.99 202.40
  Q 373.03 182.66 372.97 156.73
  C 372.96 152.23 375.58 147.83 379.80 146.69
  Q 382.41 145.98 385.54 146.01
  Q 402.89 146.16 421.37 146.06
  Q 454.13 145.90 471.25 173.46
  Q 478.60 185.29 482.89 200.57
  C 489.04 222.53 493.08 246.03 492.98 268.12
  Q 492.87 293.85 484.45 319.34
  C 475.87 345.29 464.02 373.17 434.19 378.54
  Q 428.34 379.59 414.39 379.57
  Q 346.60 379.45 275.47 379.54
  Q 274.81 379.54 274.81 380.20
  L 274.82 391.29
  Q 274.82 391.97 275.50 391.97
  Z
  M 391.89 215.53
  C 386.90 244.01 365.51 268.24 337.70 276.39
  Q 327.33 279.43 315.77 279.42
  Q 266.67 279.39 214.75 279.38
  C 204.36 279.37 195.62 281.65 187.67 287.67
  Q 175.14 297.16 171.21 311.74
  Q 169.64 317.57 169.66 326.04
  Q 169.78 374.24 169.68 421.28
  Q 169.66 427.73 170.98 432.31
  C 177.54 455.11 205.63 464.77 225.99 469.65
  Q 257.70 477.25 288.82 472.41
  Q 298.67 470.88 308.77 468.32
  C 331.82 462.50 360.05 450.57 359.78 422.05
  Q 359.74 417.51 359.85 412.64
  Q 359.86 411.96 359.19 411.96
  Q 313.47 411.97 266.43 411.97
  Q 258.49 411.97 255.98 406.44
  Q 254.58 403.35 254.73 396.71
  Q 255.00 384.40 254.74 372.54
  C 254.63 367.57 255.45 363.64 259.96 360.79
  Q 262.06 359.46 265.14 359.47
  Q 350.00 359.57 423.97 359.44
  C 445.23 359.40 454.22 342.94 461.03 325.45
  Q 468.93 305.20 471.43 288.53
  C 475.61 260.67 471.08 231.68 463.18 204.32
  C 459.27 190.76 451.79 175.17 438.00 169.15
  Q 431.49 166.31 425.23 166.18
  Q 410.46 165.87 393.54 166.09
  A 0.49 0.49 0.0 0 0 393.05 166.57
  Q 392.88 181.93 393.04 196.46
  Q 393.17 208.24 391.89 215.53
  Z"
/>
<path fill="#ffca1d" d="
  M 337.70 276.39
  C 365.51 268.24 386.90 244.01 391.89 215.53
  Q 393.17 208.24 393.04 196.46
  Q 392.88 181.93 393.05 166.57
  A 0.49 0.49 0.0 0 1 393.54 166.09
  Q 410.46 165.87 425.23 166.18
  Q 431.49 166.31 438.00 169.15
  C 451.79 175.17 459.27 190.76 463.18 204.32
  C 471.08 231.68 475.61 260.67 471.43 288.53
  Q 468.93 305.20 461.03 325.45
  C 454.22 342.94 445.23 359.40 423.97 359.44
  Q 350.00 359.57 265.14 359.47
  Q 262.06 359.46 259.96 360.79
  C 255.45 363.64 254.63 367.57 254.74 372.54
  Q 255.00 384.40 254.73 396.71
  Q 254.58 403.35 255.98 406.44
  Q 258.49 411.97 266.43 411.97
  Q 313.47 411.97 359.19 411.96
  Q 359.86 411.96 359.85 412.64
  Q 359.74 417.51 359.78 422.05
  C 360.05 450.57 331.82 462.50 308.77 468.32
  Q 298.67 470.88 288.82 472.41
  Q 257.70 477.25 225.99 469.65
  C 205.63 464.77 177.54 455.11 170.98 432.31
  Q 169.66 427.73 169.68 421.28
  Q 169.78 374.24 169.66 326.04
  Q 169.64 317.57 171.21 311.74
  Q 175.14 297.16 187.67 287.67
  C 195.62 281.65 204.36 279.37 214.75 279.38
  Q 266.67 279.39 315.77 279.42
  Q 327.33 279.43 337.70 276.39
  Z
  M 315.4693 460.0616
  A 19.19 18.94 88.3 0 0 333.8317 440.3181
  A 19.19 18.94 88.3 0 0 314.3307 421.6984
  A 19.19 18.94 88.3 0 0 295.9683 441.4419
  A 19.19 18.94 88.3 0 0 315.4693 460.0616
  Z"
/>
<ellipse fill="#ffffff" cx="0.00" cy="0.00" transform="translate(314.90,440.88) rotate(88.3)" rx="19.19" ry="18.94"/>
</svg>
