<?xml version="1.0" encoding="UTF-8" standalone="no"?>
<svg xmlns="http://www.w3.org/2000/svg" version="1.2" baseProfile="tiny" viewBox="0.00 0.00 256.00 228.00">
<path fill="#00d8ff" d="
  M 181.14 228.00
  L 177.96 228.00
  Q 166.06 226.42 155.63 220.75
  C 146.29 215.67 136.80 208.26 128.82 200.17
  A 0.57 0.57 0.0 0 0 128.00 200.18
  Q 114.69 214.32 96.98 222.42
  Q 86.11 227.39 75.60 228.00
  L 75.26 228.00
  Q 73.43 227.50 71.52 227.21
  Q 61.20 225.60 56.09 217.17
  Q 51.10 208.96 50.02 197.62
  Q 48.25 179.10 53.94 158.13
  Q 54.13 157.42 53.42 157.25
  Q 29.92 151.49 11.11 135.60
  C 5.65 130.99 2.38 125.17 0.83 118.08
  C -4.12 95.59 28.99 79.86 45.59 74.51
  Q 49.52 73.24 53.87 72.18
  Q 54.45 72.04 54.29 71.46
  Q 46.63 44.50 51.83 21.12
  Q 53.48 13.67 60.33 7.08
  Q 66.70 0.96 76.08 1.35
  Q 87.11 1.80 98.16 7.47
  Q 114.50 15.86 127.92 29.23
  Q 128.32 29.62 128.69 29.21
  Q 144.68 11.90 167.55 3.08
  Q 172.85 1.03 177.92 0.92
  Q 183.02 0.80 188.68 2.74
  C 200.87 6.93 205.12 22.25 205.87 33.60
  Q 207.17 53.04 201.94 71.66
  Q 201.77 72.26 202.38 72.41
  Q 220.69 76.70 236.18 87.01
  C 247.02 94.22 253.99 100.40 255.59 113.23
  C 256.66 121.82 250.17 130.68 243.63 136.33
  Q 234.37 144.35 221.90 149.93
  C 215.79 152.67 209.22 155.36 202.68 156.81
  A 0.38 0.37 75.9 0 0 202.40 157.29
  Q 207.71 175.65 206.26 194.74
  C 205.60 203.46 204.45 210.60 199.42 217.68
  Q 192.69 227.14 181.14 228.00
  Z
  M 174.78 66.13
  Q 182.85 67.62 190.57 69.22
  Q 191.32 69.37 191.53 68.63
  Q 195.94 52.45 195.17 35.95
  Q 194.71 25.82 190.91 18.42
  Q 187.89 12.54 181.15 11.96
  Q 175.55 11.48 170.75 13.39
  Q 151.08 21.19 136.20 37.07
  A 0.52 0.51 -44.6 0 0 136.19 37.77
  Q 147.34 49.89 156.94 63.27
  Q 157.37 63.86 158.09 63.94
  C 163.78 64.60 169.15 65.09 174.78 66.13
  Z
  M 65.59 69.21
  C 77.03 66.58 87.00 64.97 97.90 63.95
  A 2.04 2.03 -75.3 0 0 99.38 63.08
  C 105.69 53.89 112.93 45.54 119.97 37.71
  A 0.78 0.77 -46.4 0 0 119.95 36.64
  C 108.69 25.37 91.90 13.00 75.81 12.05
  C 68.53 11.62 63.05 19.09 61.93 25.52
  Q 58.33 46.21 64.82 68.75
  A 0.66 0.66 0.0 0 0 65.59 69.21
  Z
  M 113.48 61.97
  A 0.34 0.34 0.0 0 0 113.74 62.53
  L 142.44 62.63
  A 0.34 0.34 0.0 0 0 142.70 62.07
  L 128.41 45.13
  A 0.34 0.34 0.0 0 0 127.89 45.12
  L 113.48 61.97
  Z
  M 107.86 73.79
  Q 104.95 73.56 103.37 76.05
  Q 90.22 96.76 81.98 113.18
  C 81.48 114.17 81.73 115.51 82.23 116.45
  Q 93.08 137.18 104.06 153.88
  Q 104.83 155.04 106.21 155.11
  Q 128.58 156.20 150.44 154.94
  C 151.88 154.85 152.42 153.77 153.10 152.68
  C 161.05 139.76 168.22 127.59 174.14 115.74
  C 174.90 114.21 174.24 112.89 173.51 111.54
  Q 163.70 93.43 152.61 75.87
  C 151.93 74.80 151.41 74.11 150.01 74.03
  Q 129.43 72.85 109.93 73.83
  Q 108.91 73.88 107.86 73.79
  Z
  M 75.19 100.91
  A 0.31 0.31 0.0 0 0 75.76 100.96
  L 90.26 75.95
  A 0.31 0.31 0.0 0 0 89.93 75.49
  L 68.07 79.53
  A 0.31 0.31 0.0 0 0 67.84 79.93
  L 75.19 100.91
  Z
  M 165.96 75.55
  A 0.31 0.31 0.0 0 0 165.63 76.01
  L 180.31 101.09
  A 0.31 0.31 0.0 0 0 180.86 101.04
  L 188.41 80.14
  A 0.31 0.31 0.0 0 0 188.17 79.73
  L 165.96 75.55
  Z
  M 35.89 139.21
  Q 45.92 144.13 56.05 146.77
  Q 57.00 147.02 57.29 146.08
  Q 62.52 129.27 69.17 114.69
  A 1.02 1.02 0.0 0 0 69.17 113.85
  Q 62.48 99.30 57.49 83.12
  Q 57.32 82.58 56.78 82.71
  Q 39.81 86.60 25.47 95.83
  Q 17.36 101.04 13.07 107.89
  C 4.77 121.16 26.26 134.49 35.89 139.21
  Z
  M 200.06 146.40
  Q 216.47 141.77 229.19 133.64
  C 234.79 130.06 246.12 121.04 244.62 113.31
  Q 243.13 105.55 236.36 100.38
  Q 219.77 87.71 199.41 82.81
  Q 198.87 82.68 198.70 83.21
  Q 193.59 99.22 187.03 113.72
  Q 186.80 114.21 187.03 114.71
  Q 194.06 129.94 199.13 145.90
  A 0.76 0.76 0.0 0 0 200.06 146.40
  Z
  M 180.99 127.56
  A 0.33 0.33 0.0 0 0 180.40 127.51
  L 165.84 153.02
  A 0.33 0.33 0.0 0 0 166.19 153.51
  L 188.63 149.41
  A 0.33 0.33 0.0 0 0 188.88 148.97
  L 180.99 127.56
  Z
  M 90.01 153.82
  A 0.35 0.35 0.0 0 0 90.38 153.30
  L 75.79 127.92
  A 0.35 0.35 0.0 0 0 75.15 127.97
  L 67.61 149.20
  A 0.35 0.35 0.0 0 0 67.87 149.66
  L 90.01 153.82
  Z
  M 195.68 190.92
  Q 196.24 175.00 191.86 160.22
  Q 191.69 159.66 191.11 159.79
  Q 174.77 163.52 158.16 165.08
  A 1.14 1.13 -74.9 0 0 157.35 165.55
  Q 147.94 178.90 136.59 191.41
  Q 136.22 191.83 136.60 192.24
  Q 148.75 205.42 165.36 213.36
  C 169.36 215.27 174.08 216.61 178.49 216.99
  C 192.31 218.17 195.30 201.56 195.68 190.92
  Z
  M 64.65 160.83
  C 60.74 174.50 59.00 189.56 61.92 202.73
  Q 63.15 208.32 66.21 212.52
  C 70.42 218.30 79.00 217.41 85.22 215.47
  C 98.04 211.47 110.33 202.47 120.26 192.76
  A 0.83 0.82 -43.8 0 0 120.29 191.60
  Q 109.11 179.64 99.22 165.99
  A 1.70 1.69 -15.6 0 0 97.97 165.29
  Q 81.39 163.84 65.60 160.27
  A 0.80 0.80 0.0 0 0 64.65 160.83
  Z
  M 143.16 166.87
  A 0.32 0.32 0.0 0 0 142.91 166.34
  L 113.77 166.55
  A 0.32 0.32 0.0 0 0 113.53 167.07
  L 128.22 184.06
  A 0.32 0.32 0.0 0 0 128.70 184.06
  L 143.16 166.87
  Z"
/>
<circle fill="#00d8ff" cx="128.00" cy="114.23" r="22.72"/>
</svg>
