<?xml version="1.0" encoding="UTF-8" standalone="no"?>
<svg xmlns="http://www.w3.org/2000/svg" version="1.2" baseProfile="tiny" viewBox="0.00 0.00 512.00 512.00">
<g stroke-width="2.00" fill="none" stroke-linecap="butt">
<path stroke="#be2825" vector-effect="non-scaling-stroke" d="
  M 507.10 139.18
  Q 504.78 141.51 502.81 143.82
  Q 501.00 145.96 493.44 150.43
  Q 485.60 155.07 471.21 161.46
  C 424.86 182.05 378.09 201.86 330.33 222.60
  C 317.69 228.09 302.74 234.76 288.94 241.76
  C 278.11 247.25 266.20 251.85 254.42 252.34
  C 243.59 252.79 233.56 249.65 223.61 245.06
  C 211.79 239.60 199.30 234.30 187.01 229.19
  Q 115.12 199.26 47.77 171.09
  Q 41.72 168.55 35.39 165.70
  C 27.18 162.00 19.15 158.70 11.51 153.51
  Q 7.50 150.79 3.89 146.34"
/>
<path stroke="#be2825" vector-effect="non-scaling-stroke" d="
  M 483.08 206.75
  Q 459.69 217.67 447.26 222.98
  Q 382.01 250.90 316.17 279.79
  Q 308.24 283.27 300.53 287.00
  C 290.01 292.10 279.80 297.67 268.48 300.92
  Q 248.26 306.72 228.61 298.09
  C 217.35 293.14 205.62 287.86 194.40 283.17
  Q 132.35 257.26 68.34 230.63
  Q 47.73 222.06 27.73 213.20"
/>
<path stroke="#be2825" vector-effect="non-scaling-stroke" d="
  M 507.12 224.63
  Q 503.76 229.63 498.90 232.88
  Q 492.74 237.01 485.51 240.72
  Q 474.79 246.22 447.63 257.89
  Q 367.82 292.19 316.67 314.70
  C 306.22 319.30 295.96 324.33 285.81 329.32
  Q 279.51 332.42 272.25 334.93
  Q 249.83 342.68 228.22 333.03
  Q 204.60 322.48 180.67 312.54
  Q 123.06 288.60 64.16 264.03
  Q 43.28 255.32 23.58 246.36
  Q 15.75 242.79 8.85 237.66
  Q 7.21 236.45 3.88 232.03"
/>
<path stroke="#be2825" vector-effect="non-scaling-stroke" d="
  M 486.59 291.08
  Q 468.77 299.61 450.21 307.64
  Q 393.37 332.23 336.54 356.80
  Q 326.32 361.22 305.99 370.48
  C 296.31 374.88 287.16 379.87 277.34 383.98
  Q 251.88 394.63 227.59 383.72
  Q 202.79 372.57 178.52 362.50
  Q 120.20 338.30 62.70 314.31
  Q 43.58 306.33 24.64 297.94
  Q 24.25 297.77 23.79 297.76"
/>
<path stroke="#be2825" vector-effect="non-scaling-stroke" d="
  M 507.12 307.69
  Q 502.34 314.21 493.06 319.55
  Q 485.31 324.00 477.17 327.69
  Q 460.21 335.38 443.41 342.64
  Q 391.13 365.25 340.40 387.22
  Q 325.33 393.74 306.09 402.49
  C 296.81 406.70 287.08 411.97 277.08 416.11
  Q 253.40 425.90 231.49 417.35
  C 224.07 414.46 217.25 411.11 209.79 407.85
  Q 200.80 403.91 193.55 400.89
  Q 124.25 372.07 52.62 342.13
  Q 44.85 338.88 37.15 335.45
  C 26.51 330.70 17.48 327.13 8.59 320.42
  Q 7.39 319.52 3.88 315.03"
/>
<path stroke="#ec9793" vector-effect="non-scaling-stroke" d="
  M 238.88 88.67
  L 203.22 101.53
  Q 202.06 101.94 203.29 102.05
  L 251.71 106.43
  A 1.18 1.17 76.9 0 1 252.62 107.00
  L 267.84 132.32
  A 0.23 0.23 0.0 0 0 268.25 132.29
  L 277.58 109.81
  A 1.08 1.05 7.9 0 1 278.45 109.17
  L 320.21 104.84
  Q 321.56 104.70 320.29 104.22
  L 288.07 92.17
  Q 287.63 92.00 287.81 91.57
  L 296.31 71.18
  Q 296.58 70.55 295.93 70.76
  L 264.00 81.21
  Q 263.50 81.37 263.01 81.18
  L 229.02 67.90
  Q 228.25 67.60 228.64 68.32
  L 239.20 87.82
  Q 239.53 88.43 238.88 88.67"
/>
<path stroke="#be2825" vector-effect="non-scaling-stroke" d="
  M 372.78 111.46
  L 297.58 140.99
  Q 296.76 141.32 297.58 141.64
  L 365.03 168.31
  Q 365.51 168.49 365.99 168.31
  L 373.15 165.61"
/>
<path stroke="#a9221e" vector-effect="non-scaling-stroke" d="
  M 373.15 165.61
  L 441.11 138.75
  Q 442.06 138.37 441.11 138.00
  Q 407.44 124.69 373.50 111.28
  Q 372.86 111.03 372.78 111.46"
/>
<path stroke="#8f1b1b" vector-effect="non-scaling-stroke" d="
  M 373.15 165.61
  L 372.78 111.46"
/>
<path stroke="#ec9793" vector-effect="non-scaling-stroke" d="
  M 214.93 141.90
  A 62.30 24.15 0.0 0 0 152.63 117.75
  A 62.30 24.15 0.0 0 0 90.33 141.90
  A 62.30 24.15 0.0 0 0 152.63 166.05
  A 62.30 24.15 0.0 0 0 214.93 141.90"
/>
<path stroke="#ec9793" vector-effect="non-scaling-stroke" d="
  M 184.76 185.15
  L 265.24 218.53
  A 0.34 0.33 28.0 0 0 265.64 218.41
  L 300.41 167.44
  A 0.21 0.21 0.0 0 0 300.20 167.11
  L 184.78 184.80
  Q 184.16 184.90 184.76 185.15"
/>
</g>
<path fill="#d82f27" d="
  M 507.10 139.18
  Q 504.78 141.51 502.81 143.82
  Q 501.00 145.96 493.44 150.43
  Q 485.60 155.07 471.21 161.46
  C 424.86 182.05 378.09 201.86 330.33 222.60
  C 317.69 228.09 302.74 234.76 288.94 241.76
  C 278.11 247.25 266.20 251.85 254.42 252.34
  C 243.59 252.79 233.56 249.65 223.61 245.06
  C 211.79 239.60 199.30 234.30 187.01 229.19
  Q 115.12 199.26 47.77 171.09
  Q 41.72 168.55 35.39 165.70
  C 27.18 162.00 19.15 158.70 11.51 153.51
  Q 7.50 150.79 3.89 146.34
  Q 3.40 143.50 4.24 141.47
  C 6.29 136.49 14.85 132.27 19.55 130.42
  C 87.89 103.58 155.73 76.89 221.42 52.07
  Q 226.58 50.12 232.22 48.19
  C 242.65 44.63 253.55 41.01 264.69 40.99
  Q 275.50 40.98 286.07 44.48
  Q 301.09 49.47 318.11 56.17
  Q 405.44 90.56 492.75 124.48
  Q 497.99 126.51 502.71 129.82
  Q 508.00 133.51 507.10 139.18
  Z
  M 238.88 88.67
  L 203.22 101.53
  Q 202.06 101.94 203.29 102.05
  L 251.71 106.43
  A 1.18 1.17 76.9 0 1 252.62 107.00
  L 267.84 132.32
  A 0.23 0.23 0.0 0 0 268.25 132.29
  L 277.58 109.81
  A 1.08 1.05 7.9 0 1 278.45 109.17
  L 320.21 104.84
  Q 321.56 104.70 320.29 104.22
  L 288.07 92.17
  Q 287.63 92.00 287.81 91.57
  L 296.31 71.18
  Q 296.58 70.55 295.93 70.76
  L 264.00 81.21
  Q 263.50 81.37 263.01 81.18
  L 229.02 67.90
  Q 228.25 67.60 228.64 68.32
  L 239.20 87.82
  Q 239.53 88.43 238.88 88.67
  Z
  M 372.78 111.46
  L 297.58 140.99
  Q 296.76 141.32 297.58 141.64
  L 365.03 168.31
  Q 365.51 168.49 365.99 168.31
  L 373.15 165.61
  L 441.11 138.75
  Q 442.06 138.37 441.11 138.00
  Q 407.44 124.69 373.50 111.28
  Q 372.86 111.03 372.78 111.46
  Z
  M 214.93 141.90
  A 62.30 24.15 0.0 0 0 152.63 117.75
  A 62.30 24.15 0.0 0 0 90.33 141.90
  A 62.30 24.15 0.0 0 0 152.63 166.05
  A 62.30 24.15 0.0 0 0 214.93 141.90
  Z
  M 184.76 185.15
  L 265.24 218.53
  A 0.34 0.33 28.0 0 0 265.64 218.41
  L 300.41 167.44
  A 0.21 0.21 0.0 0 0 300.20 167.11
  L 184.78 184.80
  Q 184.16 184.90 184.76 185.15
  Z"
/>
<path fill="#ffffff" d="
  M 239.20 87.82
  L 228.64 68.32
  Q 228.25 67.60 229.02 67.90
  L 263.01 81.18
  Q 263.50 81.37 264.00 81.21
  L 295.93 70.76
  Q 296.58 70.55 296.31 71.18
  L 287.81 91.57
  Q 287.63 92.00 288.07 92.17
  L 320.29 104.22
  Q 321.56 104.70 320.21 104.84
  L 278.45 109.17
  A 1.08 1.05 7.9 0 0 277.58 109.81
  L 268.25 132.29
  A 0.23 0.23 0.0 0 1 267.84 132.32
  L 252.62 107.00
  A 1.18 1.17 76.9 0 0 251.71 106.43
  L 203.29 102.05
  Q 202.06 101.94 203.22 101.53
  L 238.88 88.67
  Q 239.53 88.43 239.20 87.82
  Z"
/>
<path fill="#791514" d="
  M 373.15 165.61
  L 372.78 111.46
  Q 372.86 111.03 373.50 111.28
  Q 407.44 124.69 441.11 138.00
  Q 442.06 138.37 441.11 138.75
  L 373.15 165.61
  Z"
/>
<path fill="#a42122" d="
  M 372.78 111.46
  L 373.15 165.61
  L 365.99 168.31
  Q 365.51 168.49 365.03 168.31
  L 297.58 141.64
  Q 296.76 141.32 297.58 140.99
  L 372.78 111.46
  Z"
/>
<ellipse fill="#ffffff" cx="152.63" cy="141.90" rx="62.30" ry="24.15"/>
<path fill="#a42122" d="
  M 507.10 139.18
  Q 507.14 163.24 507.15 186.64
  C 507.15 194.77 490.68 203.26 483.08 206.75
  Q 459.69 217.67 447.26 222.98
  Q 382.01 250.90 316.17 279.79
  Q 308.24 283.27 300.53 287.00
  C 290.01 292.10 279.80 297.67 268.48 300.92
  Q 248.26 306.72 228.61 298.09
  C 217.35 293.14 205.62 287.86 194.40 283.17
  Q 132.35 257.26 68.34 230.63
  Q 47.73 222.06 27.73 213.20
  Q 21.18 210.26 15.29 206.99
  Q 9.02 203.51 5.32 198.94
  Q 4.00 197.31 3.98 194.50
  Q 3.81 170.88 3.89 146.34
  Q 7.50 150.79 11.51 153.51
  C 19.15 158.70 27.18 162.00 35.39 165.70
  Q 41.72 168.55 47.77 171.09
  Q 115.12 199.26 187.01 229.19
  C 199.30 234.30 211.79 239.60 223.61 245.06
  C 233.56 249.65 243.59 252.79 254.42 252.34
  C 266.20 251.85 278.11 247.25 288.94 241.76
  C 302.74 234.76 317.69 228.09 330.33 222.60
  C 378.09 201.86 424.86 182.05 471.21 161.46
  Q 485.60 155.07 493.44 150.43
  Q 501.00 145.96 502.81 143.82
  Q 504.78 141.51 507.10 139.18
  Z"
/>
<path fill="#ffffff" d="
  M 265.24 218.53
  L 184.76 185.15
  Q 184.16 184.90 184.78 184.80
  L 300.20 167.11
  A 0.21 0.21 0.0 0 1 300.41 167.44
  L 265.64 218.41
  A 0.34 0.33 28.0 0 1 265.24 218.53
  Z"
/>
<path fill="#d82f27" d="
  M 483.08 206.75
  Q 490.26 209.24 496.92 212.37
  C 501.82 214.69 507.95 218.25 507.12 224.63
  Q 503.76 229.63 498.90 232.88
  Q 492.74 237.01 485.51 240.72
  Q 474.79 246.22 447.63 257.89
  Q 367.82 292.19 316.67 314.70
  C 306.22 319.30 295.96 324.33 285.81 329.32
  Q 279.51 332.42 272.25 334.93
  Q 249.83 342.68 228.22 333.03
  Q 204.60 322.48 180.67 312.54
  Q 123.06 288.60 64.16 264.03
  Q 43.28 255.32 23.58 246.36
  Q 15.75 242.79 8.85 237.66
  Q 7.21 236.45 3.88 232.03
  Q 3.34 228.73 4.83 226.33
  Q 6.62 223.44 10.78 221.00
  Q 18.58 216.43 27.73 213.20
  Q 47.73 222.06 68.34 230.63
  Q 132.35 257.26 194.40 283.17
  C 205.62 287.86 217.35 293.14 228.61 298.09
  Q 248.26 306.72 268.48 300.92
  C 279.80 297.67 290.01 292.10 300.53 287.00
  Q 308.24 283.27 316.17 279.79
  Q 382.01 250.90 447.26 222.98
  Q 459.69 217.67 483.08 206.75
  Z"
/>
<path fill="#a42122" d="
  M 507.12 224.63
  Q 507.12 248.72 507.15 272.64
  C 507.16 280.37 492.73 288.00 486.59 291.08
  Q 468.77 299.61 450.21 307.64
  Q 393.37 332.23 336.54 356.80
  Q 326.32 361.22 305.99 370.48
  C 296.31 374.88 287.16 379.87 277.34 383.98
  Q 251.88 394.63 227.59 383.72
  Q 202.79 372.57 178.52 362.50
  Q 120.20 338.30 62.70 314.31
  Q 43.58 306.33 24.64 297.94
  Q 24.25 297.77 23.79 297.76
  Q 23.83 297.60 23.75 297.45
  Q 23.69 297.32 23.56 297.27
  C 17.74 294.58 3.95 287.93 3.92 280.50
  Q 3.82 256.50 3.88 232.03
  Q 7.21 236.45 8.85 237.66
  Q 15.75 242.79 23.58 246.36
  Q 43.28 255.32 64.16 264.03
  Q 123.06 288.60 180.67 312.54
  Q 204.60 322.48 228.22 333.03
  Q 249.83 342.68 272.25 334.93
  Q 279.51 332.42 285.81 329.32
  C 295.96 324.33 306.22 319.30 316.67 314.70
  Q 367.82 292.19 447.63 257.89
  Q 474.79 246.22 485.51 240.72
  Q 492.74 237.01 498.90 232.88
  Q 503.76 229.63 507.12 224.63
  Z"
/>
<path fill="#d82f27" d="
  M 486.59 291.08
  Q 496.21 294.09 503.43 299.32
  Q 507.75 302.45 507.12 307.69
  Q 502.34 314.21 493.06 319.55
  Q 485.31 324.00 477.17 327.69
  Q 460.21 335.38 443.41 342.64
  Q 391.13 365.25 340.40 387.22
  Q 325.33 393.74 306.09 402.49
  C 296.81 406.70 287.08 411.97 277.08 416.11
  Q 253.40 425.90 231.49 417.35
  C 224.07 414.46 217.25 411.11 209.79 407.85
  Q 200.80 403.91 193.55 400.89
  Q 124.25 372.07 52.62 342.13
  Q 44.85 338.88 37.15 335.45
  C 26.51 330.70 17.48 327.13 8.59 320.42
  Q 7.39 319.52 3.88 315.03
  Q 3.20 310.78 6.12 307.62
  C 10.36 303.05 18.01 299.83 23.79 297.76
  Q 24.25 297.77 24.64 297.94
  Q 43.58 306.33 62.70 314.31
  Q 120.20 338.30 178.52 362.50
  Q 202.79 372.57 227.59 383.72
  Q 251.88 394.63 277.34 383.98
  C 287.16 379.87 296.31 374.88 305.99 370.48
  Q 326.32 361.22 336.54 356.80
  Q 393.37 332.23 450.21 307.64
  Q 468.77 299.61 486.59 291.08
  Z"
/>
<path fill="#a42122" d="
  M 507.12 307.69
  Q 507.14 331.68 507.13 355.63
  C 507.12 363.46 492.75 370.87 486.71 373.89
  Q 472.13 381.18 452.96 389.43
  Q 390.75 416.20 329.56 442.85
  Q 318.16 447.81 306.53 453.13
  C 296.39 457.76 286.93 462.97 276.63 467.17
  Q 253.91 476.44 232.56 468.66
  C 223.45 465.34 211.51 459.26 200.91 454.85
  Q 124.43 423.03 48.01 391.06
  C 37.43 386.63 26.26 381.78 16.52 376.60
  C 12.49 374.45 6.18 370.45 4.46 366.20
  Q 3.85 364.68 3.85 361.97
  Q 3.82 338.70 3.88 315.03
  Q 7.39 319.52 8.59 320.42
  C 17.48 327.13 26.51 330.70 37.15 335.45
  Q 44.85 338.88 52.62 342.13
  Q 124.25 372.07 193.55 400.89
  Q 200.80 403.91 209.79 407.85
  C 217.25 411.11 224.07 414.46 231.49 417.35
  Q 253.40 425.90 277.08 416.11
  C 287.08 411.97 296.81 406.70 306.09 402.49
  Q 325.33 393.74 340.40 387.22
  Q 391.13 365.25 443.41 342.64
  Q 460.21 335.38 477.17 327.69
  Q 485.31 324.00 493.06 319.55
  Q 502.34 314.21 507.12 307.69
  Z"
/>
</svg>
