<?xml version="1.0" encoding="UTF-8" standalone="no"?>
<svg xmlns="http://www.w3.org/2000/svg" version="1.2" baseProfile="tiny" viewBox="0.00 0.00 512.00 511.00">
<path fill="#000000" d="
  M 254.33 0.00
  L 257.77 0.00
  Q 260.67 0.99 262.90 4.57
  Q 268.61 13.69 274.57 23.43
  C 275.77 25.38 278.43 25.17 280.45 25.40
  Q 281.56 25.53 282.35 24.70
  Q 289.95 16.63 297.94 7.98
  Q 300.38 5.33 303.06 4.87
  C 307.92 4.03 310.42 7.08 311.90 11.16
  Q 315.77 21.88 319.56 31.80
  C 320.29 33.72 323.22 33.96 324.96 34.52
  A 2.19 2.16 -53.6 0 0 326.88 34.22
  Q 336.05 27.71 345.02 21.14
  C 348.93 18.28 354.06 17.48 357.04 22.21
  Q 357.86 23.52 358.34 26.44
  Q 360.17 37.64 361.98 48.73
  A 2.17 2.17 0.0 0 0 363.06 50.27
  L 366.68 52.28
  Q 367.63 52.80 368.62 52.35
  Q 378.77 47.75 390.23 42.45
  C 394.04 40.69 398.53 42.00 400.31 45.78
  Q 401.24 47.77 401.05 51.83
  Q 400.53 63.02 400.22 73.86
  A 1.48 1.48 0.0 0 0 400.78 75.06
  L 404.08 77.71
  A 2.52 2.48 57.4 0 0 406.22 78.20
  Q 417.61 75.52 428.70 72.84
  C 435.26 71.26 439.82 76.32 438.24 82.67
  Q 435.26 94.64 432.88 105.41
  Q 432.71 106.16 433.20 106.75
  L 435.88 110.05
  A 2.31 2.30 -20.7 0 0 437.77 110.90
  Q 450.25 110.43 461.46 110.00
  C 467.51 109.77 471.08 115.47 468.53 121.07
  Q 463.65 131.82 458.66 142.75
  A 1.30 1.28 44.5 0 0 458.68 143.87
  C 459.35 145.18 460.13 146.45 460.69 147.82
  Q 461.12 148.89 462.27 149.08
  Q 475.18 151.14 486.60 153.07
  Q 489.27 153.53 490.71 155.54
  Q 494.12 160.32 490.77 164.93
  Q 482.85 175.82 477.01 184.03
  A 2.56 2.52 55.6 0 0 476.63 186.14
  C 477.08 187.85 477.64 190.75 479.46 191.45
  Q 489.33 195.27 499.32 198.88
  Q 503.83 200.52 505.13 202.43
  C 508.07 206.70 506.05 210.47 502.53 213.75
  Q 494.37 221.32 486.67 228.30
  Q 486.43 228.52 486.17 228.72
  Q 485.73 229.05 485.79 229.59
  C 486.01 231.85 485.61 235.07 487.82 236.44
  Q 497.88 242.67 507.65 248.73
  C 509.41 249.82 510.82 251.58 511.14 253.66
  C 511.78 257.96 510.00 259.93 506.40 262.18
  Q 496.70 268.22 486.96 274.25
  A 1.40 1.39 77.3 0 0 486.30 275.30
  L 485.76 280.43
  Q 485.71 280.89 486.05 281.20
  Q 495.39 289.82 504.00 297.91
  C 508.13 301.79 506.99 308.36 501.54 310.40
  Q 490.68 314.47 479.06 318.83
  A 2.21 2.20 -2.9 0 0 477.70 320.33
  C 477.25 322.04 475.85 324.55 477.00 326.17
  Q 483.26 335.00 489.81 343.91
  C 491.52 346.24 493.03 348.87 492.07 351.89
  Q 490.61 356.48 485.95 357.25
  Q 473.87 359.25 462.28 361.09
  A 1.92 1.90 -79.9 0 0 460.93 362.04
  L 459.01 365.50
  A 2.86 2.83 47.3 0 0 458.92 368.06
  Q 463.93 378.99 468.66 389.37
  C 471.05 394.62 467.52 400.37 461.76 400.16
  Q 450.39 399.73 437.31 399.27
  A 1.56 1.55 -69.5 0 0 436.04 399.85
  L 433.00 403.67
  A 1.12 1.11 58.2 0 0 432.78 404.62
  Q 435.11 414.59 438.28 428.01
  C 439.20 431.92 437.72 435.41 433.93 437.15
  Q 431.97 438.06 429.51 437.49
  Q 416.93 434.57 405.99 431.97
  A 2.00 1.98 -57.6 0 0 404.29 432.36
  L 400.77 435.18
  A 1.48 1.44 70.8 0 0 400.23 436.34
  Q 400.52 448.08 401.12 460.75
  C 401.23 463.13 399.98 465.73 397.92 467.13
  Q 394.36 469.57 390.00 467.57
  Q 379.00 462.54 368.73 457.89
  A 2.19 2.18 43.3 0 0 366.82 457.94
  L 362.98 459.93
  Q 362.12 460.37 361.97 461.33
  Q 360.16 473.00 358.23 484.76
  C 357.23 490.79 351.22 493.44 346.16 489.80
  Q 336.59 482.92 326.93 475.98
  Q 326.03 475.33 325.00 475.70
  Q 323.07 476.39 320.99 476.89
  A 1.45 1.41 -77.7 0 0 320.19 477.42
  Q 319.73 478.04 319.43 478.84
  Q 315.57 489.03 311.79 499.41
  C 309.39 505.99 303.00 507.68 298.04 502.34
  Q 289.59 493.24 282.12 485.22
  Q 281.75 484.82 281.20 484.88
  L 276.05 485.40
  Q 275.45 485.47 275.13 485.99
  Q 269.99 494.35 264.27 503.56
  C 261.64 507.81 260.18 510.59 255.25 510.27
  Q 251.72 510.04 249.67 506.79
  Q 243.37 496.78 236.93 486.27
  Q 236.42 485.43 235.43 485.36
  Q 233.25 485.20 231.06 484.87
  Q 230.03 484.71 229.48 485.51
  Q 229.29 485.79 229.07 486.02
  Q 221.90 493.52 215.35 500.83
  Q 212.52 503.99 210.31 504.94
  C 205.97 506.80 201.95 504.32 200.39 500.11
  Q 196.25 488.92 192.23 478.29
  A 2.40 2.39 -2.0 0 0 190.69 476.86
  L 186.99 475.73
  Q 185.79 475.36 184.76 476.10
  Q 175.27 482.94 166.34 489.39
  C 162.70 492.03 157.95 492.41 155.14 488.44
  Q 154.00 486.83 153.68 484.79
  Q 151.69 472.22 149.83 461.19
  Q 149.73 460.58 149.22 460.25
  Q 147.05 458.84 144.89 457.88
  Q 144.02 457.49 143.15 457.89
  Q 132.76 462.63 121.43 467.78
  C 117.64 469.50 113.25 468.06 111.52 464.28
  Q 110.62 462.31 110.78 459.24
  Q 111.43 446.91 111.66 436.24
  A 1.18 1.15 20.9 0 0 111.24 435.33
  L 107.60 432.27
  A 1.56 1.56 0.0 0 0 106.26 431.95
  Q 93.91 434.73 82.88 437.42
  C 76.91 438.87 72.13 433.97 73.55 428.04
  Q 76.42 416.01 79.00 404.98
  Q 79.22 404.05 78.61 403.32
  L 75.68 399.81
  Q 75.23 399.26 74.52 399.28
  Q 63.14 399.66 52.22 400.09
  Q 47.81 400.26 46.01 399.10
  C 41.44 396.15 41.97 391.89 44.07 387.38
  Q 48.98 376.87 53.16 367.52
  A 1.80 1.79 42.7 0 0 53.09 365.91
  L 51.03 362.23
  Q 50.47 361.22 49.33 361.04
  Q 37.78 359.21 25.43 357.14
  Q 23.10 356.75 21.53 355.04
  C 18.54 351.78 19.06 348.06 21.46 344.75
  Q 28.51 335.04 35.10 325.87
  A 1.77 1.76 54.4 0 0 35.35 324.32
  C 34.66 322.13 34.42 319.36 31.98 318.46
  Q 21.92 314.75 11.43 310.85
  Q 8.36 309.71 6.86 307.84
  C 4.24 304.58 5.31 300.32 8.24 297.57
  Q 17.18 289.17 25.30 281.66
  Q 25.86 281.13 25.93 280.37
  C 26.14 278.09 26.14 274.95 23.91 273.59
  Q 14.11 267.57 3.72 261.04
  Q 1.61 259.71 0.95 257.27
  Q -0.56 251.73 4.36 248.67
  Q 13.76 242.80 24.63 236.09
  Q 25.08 235.82 25.30 235.34
  C 25.87 234.10 25.78 232.61 26.01 231.28
  Q 26.32 229.41 24.91 228.12
  Q 16.80 220.68 7.79 212.18
  C 3.58 208.20 5.14 201.78 10.52 199.72
  Q 20.99 195.71 31.97 191.74
  C 34.36 190.88 34.69 188.11 35.25 186.02
  A 2.44 2.44 0.0 0 0 34.87 183.96
  Q 28.07 174.55 21.10 164.86
  C 18.67 161.49 18.99 157.04 22.39 154.45
  Q 24.08 153.16 26.95 152.72
  Q 38.73 150.91 49.80 149.02
  Q 50.51 148.90 50.85 148.27
  L 52.90 144.49
  A 2.59 2.57 47.2 0 0 52.98 142.16
  Q 47.79 130.97 43.04 120.47
  C 41.32 116.66 43.12 112.13 46.91 110.61
  Q 48.48 109.98 52.64 110.12
  Q 63.99 110.51 74.26 110.92
  A 2.10 2.09 -69.5 0 0 75.97 110.14
  L 78.55 106.90
  Q 79.16 106.13 78.95 105.16
  Q 76.60 94.80 73.70 83.07
  C 71.99 76.19 76.43 71.20 83.53 72.93
  Q 95.03 75.73 105.98 78.29
  A 1.87 1.86 31.5 0 0 107.62 77.90
  L 111.03 75.04
  Q 111.45 74.68 111.48 74.13
  Q 111.55 72.59 111.51 71.00
  Q 111.32 62.22 110.85 53.28
  Q 110.54 47.35 111.70 45.42
  C 113.70 42.09 117.89 40.75 121.50 42.42
  Q 132.15 47.31 143.14 52.32
  A 2.14 2.14 0.0 0 0 145.02 52.28
  C 146.76 51.39 149.61 50.54 149.95 48.39
  Q 151.78 37.15 153.75 25.09
  Q 154.24 22.09 156.30 20.53
  C 160.21 17.56 163.67 18.75 167.16 21.35
  Q 176.02 27.95 184.99 34.23
  A 2.22 2.21 -36.5 0 0 186.96 34.52
  Q 188.77 33.91 190.69 33.35
  Q 191.80 33.03 192.19 32.01
  Q 196.15 21.42 200.51 9.85
  C 202.77 3.84 209.40 3.06 213.57 7.60
  Q 221.73 16.49 229.48 24.70
  A 1.91 1.90 -19.1 0 0 230.71 25.29
  Q 232.69 25.46 235.18 24.94
  Q 236.53 24.66 237.96 22.33
  Q 243.49 13.29 249.10 4.33
  Q 251.30 0.81 254.33 0.00
  Z
  M 265.9829 70.6957
  A 15.04 14.73 45.6 0 0 265.9842 49.6440
  A 15.04 14.73 45.6 0 0 244.9371 49.2043
  A 15.04 14.73 45.6 0 0 244.9358 70.2560
  A 15.04 14.73 45.6 0 0 265.9829 70.6957
  Z
  M 383.73 183.35
  C 387.95 210.62 367.87 230.74 346.84 243.84
  A 0.73 0.73 0.0 0 0 346.80 245.06
  Q 353.78 250.07 359.65 256.06
  C 369.13 265.75 373.71 279.72 376.02 293.28
  Q 377.10 299.57 383.08 302.56
  C 395.80 308.92 414.44 305.79 418.89 289.98
  C 420.73 283.44 420.16 276.99 420.30 270.38
  Q 420.36 267.26 423.48 267.26
  L 441.45 267.26
  Q 442.13 267.26 442.17 266.59
  Q 443.18 250.65 441.66 235.22
  A 0.57 0.56 -81.7 0 0 441.33 234.77
  Q 424.85 227.41 408.26 220.07
  C 399.65 216.26 397.12 208.20 400.82 199.94
  Q 409.14 181.32 417.88 161.48
  A 1.13 1.11 -48.9 0 0 417.82 160.46
  C 390.38 113.28 344.76 80.63 291.08 70.19
  A 1.38 1.36 -60.6 0 0 289.87 70.54
  Q 278.08 81.67 265.93 93.45
  C 261.17 98.06 256.07 100.26 249.61 97.81
  Q 246.46 96.61 241.02 90.78
  Q 231.66 80.74 221.79 70.53
  A 1.22 1.21 62.0 0 0 220.66 70.18
  Q 168.48 80.68 129.30 116.46
  C 125.82 119.63 121.96 123.96 118.19 127.52
  Q 116.64 128.98 118.76 128.98
  Q 211.52 129.08 306.18 128.93
  Q 318.86 128.91 325.43 130.22
  C 352.29 135.58 379.31 154.77 383.73 183.35
  Z
  M 89.65 197.85
  A 15.15 15.15 0.0 0 0 74.50 182.70
  A 15.15 15.15 0.0 0 0 59.35 197.85
  A 15.15 15.15 0.0 0 0 74.50 213.00
  A 15.15 15.15 0.0 0 0 89.65 197.85
  Z
  M 451.13 198.14
  A 15.11 15.11 0.0 0 0 436.02 183.03
  A 15.11 15.11 0.0 0 0 420.91 198.14
  A 15.11 15.11 0.0 0 0 436.02 213.25
  A 15.11 15.11 0.0 0 0 451.13 198.14
  Z
  M 70.01 237.88
  Q 67.38 272.40 76.38 303.82
  A 0.97 0.97 0.0 0 0 77.31 304.52
  L 128.95 304.52
  A 0.97 0.96 90.0 0 0 129.91 303.55
  L 129.90 186.44
  A 0.97 0.97 0.0 0 0 128.94 185.47
  L 104.25 185.41
  A 0.60 0.60 0.0 0 0 103.70 186.26
  Q 107.55 194.56 110.28 201.20
  C 113.09 208.05 109.81 215.82 103.08 218.85
  Q 86.95 226.11 71.02 233.08
  A 0.95 0.95 0.0 0 0 70.47 233.80
  Q 70.16 235.90 70.01 237.88
  Z
  M 213.74 187.30
  L 213.68 221.16
  A 0.65 0.65 0.0 0 0 214.33 221.81
  L 273.60 221.91
  A 25.96 16.89 0.1 0 0 299.59 205.06
  L 299.59 203.68
  A 25.96 16.89 0.1 0 0 273.66 186.75
  L 214.39 186.65
  A 0.65 0.65 0.0 0 0 213.74 187.30
  Z
  M 259.85 306.70
  A 1.82 1.81 -83.6 0 1 261.26 308.47
  L 261.25 362.47
  A 1.62 1.62 0.0 0 1 259.89 364.07
  Q 257.92 364.38 255.50 364.38
  Q 181.16 364.33 107.01 364.32
  A 0.51 0.51 0.0 0 0 106.60 365.14
  Q 113.63 374.51 121.41 382.64
  Q 121.76 383.02 122.28 383.02
  Q 123.35 383.04 124.52 382.80
  Q 136.94 380.21 150.06 377.19
  C 157.04 375.59 162.95 376.17 167.41 381.94
  Q 169.33 384.41 170.86 391.98
  Q 173.75 406.30 177.14 421.57
  C 177.43 422.89 178.28 423.14 179.36 423.62
  C 228.01 445.40 283.66 445.39 332.03 423.86
  Q 333.03 423.42 333.25 422.39
  Q 336.72 406.22 340.41 388.79
  C 342.19 380.38 349.41 375.59 357.84 377.44
  Q 373.83 380.96 388.10 383.97
  Q 389.06 384.18 389.76 383.45
  Q 398.16 374.78 405.60 364.88
  A 0.38 0.38 0.0 0 0 405.29 364.27
  Q 368.23 364.37 330.88 364.35
  Q 326.37 364.35 323.47 363.52
  C 315.04 361.12 307.93 352.27 303.62 344.54
  Q 300.11 338.26 297.98 328.35
  Q 295.34 316.05 292.79 303.16
  C 290.14 289.79 284.37 277.96 270.70 273.71
  Q 265.49 272.09 254.76 272.24
  Q 233.56 272.52 214.38 272.30
  Q 213.71 272.29 213.71 272.97
  L 213.71 306.05
  Q 213.71 306.45 214.10 306.45
  Q 235.67 306.43 257.81 306.47
  Q 258.83 306.47 259.85 306.70
  Z
  M 157.99 410.99
  A 15.16 15.16 0.0 0 0 142.83 395.83
  A 15.16 15.16 0.0 0 0 127.67 410.99
  A 15.16 15.16 0.0 0 0 142.83 426.15
  A 15.16 15.16 0.0 0 0 157.99 410.99
  Z
  M 382.69 411.71
  A 15.15 15.15 0.0 0 0 367.54 396.56
  A 15.15 15.15 0.0 0 0 352.39 411.71
  A 15.15 15.15 0.0 0 0 367.54 426.86
  A 15.15 15.15 0.0 0 0 382.69 411.71
  Z"
/>
</svg>
