<?xml version="1.0" encoding="UTF-8" standalone="no"?>
<svg xmlns="http://www.w3.org/2000/svg" version="1.2" baseProfile="tiny" viewBox="0.00 0.00 512.00 460.00">
<path fill="#fb2d26" d="
  M 512.00 406.12
  L 512.00 411.96
  Q 509.78 438.47 487.75 451.53
  Q 475.09 459.03 458.82 460.00
  L 410.30 460.00
  Q 412.05 434.75 410.19 408.75
  Q 410.14 408.00 410.89 407.99
  Q 422.65 407.87 434.98 408.02
  Q 440.51 408.09 443.25 407.10
  C 448.78 405.10 451.97 399.70 451.49 393.80
  C 451.15 389.65 447.62 384.70 445.38 380.81
  Q 358.64 230.00 267.14 71.09
  Q 263.69 65.09 256.80 64.66
  C 248.83 64.17 245.65 69.55 242.15 75.74
  Q 229.58 97.99 216.26 120.90
  A 0.48 0.47 -56.5 0 0 216.38 121.51
  C 253.76 149.93 286.30 184.83 311.39 224.46
  Q 375.35 325.51 372.48 447.50
  Q 372.34 453.76 372.02 460.00
  L 229.49 460.00
  Q 231.74 438.75 230.00 416.50
  C 224.82 350.37 194.52 290.30 144.82 246.65
  A 0.66 0.66 0.0 0 0 143.81 246.82
  L 124.37 280.59
  A 0.47 0.47 0.0 0 0 124.45 281.18
  Q 157.10 311.77 174.78 353.00
  Q 196.42 403.47 190.14 460.00
  L 53.52 460.00
  Q 41.37 459.14 32.00 455.32
  Q 3.29 443.62 0.00 412.18
  L 0.00 405.75
  Q 1.50 389.80 9.07 376.77
  Q 23.01 352.74 36.19 330.20
  A 1.00 0.99 -60.4 0 1 37.52 329.83
  Q 59.75 341.97 77.57 360.88
  A 1.02 1.01 39.1 0 1 77.70 362.09
  Q 69.97 375.25 62.71 387.60
  Q 58.23 395.23 62.42 401.86
  Q 66.24 407.91 74.00 407.89
  Q 104.31 407.82 136.43 408.00
  A 0.66 0.65 -5.1 0 0 137.08 407.23
  C 128.78 360.86 100.59 321.48 59.99 297.64
  C 58.81 296.95 57.54 296.40 56.39 295.68
  Q 55.94 295.41 56.20 294.95
  L 126.97 171.96
  A 1.00 1.00 0.0 0 1 128.34 171.59
  Q 205.54 215.97 247.03 293.00
  C 266.04 328.28 277.55 367.29 281.33 407.37
  Q 281.39 407.94 281.97 407.94
  L 318.95 407.99
  A 0.85 0.84 87.2 0 0 319.79 407.06
  Q 309.87 299.01 241.30 216.59
  C 215.02 185.01 182.81 158.43 147.10 138.21
  A 0.60 0.60 0.0 0 1 146.87 137.39
  Q 177.84 83.42 208.92 29.69
  C 217.36 15.08 232.46 2.86 249.75 0.63
  C 268.94 -1.85 285.99 7.16 297.94 22.08
  Q 301.33 26.30 307.23 36.55
  Q 404.73 206.02 502.21 375.49
  Q 510.62 390.12 512.00 406.12
  Z"
/>
</svg>
