<?xml version="1.0" encoding="UTF-8" standalone="no"?>
<svg xmlns="http://www.w3.org/2000/svg" version="1.2" baseProfile="tiny" viewBox="0.00 0.00 1024.00 1024.00">
<g stroke-width="2.00" fill="none" stroke-linecap="butt">
<path stroke="#80bde6" vector-effect="non-scaling-stroke" d="
  M 941.26 835.99
  Q 941.82 832.39 942.29 828.75
  Q 946.25 797.79 938.49 768.23
  C 932.07 743.75 919.17 723.24 899.35 706.48
  Q 884.06 693.56 862.39 681.65
  C 836.19 667.24 808.76 655.75 781.83 643.65
  Q 770.23 638.43 757.75 630.72
  Q 745.06 622.89 739.02 609.94
  Q 736.08 603.65 735.61 597.62
  C 734.50 583.40 737.86 570.63 748.85 561.04
  Q 749.22 560.72 749.70 560.62
  Q 749.97 560.57 750.16 560.40
  Q 753.68 557.19 757.50 555.72
  Q 759.22 555.06 760.86 554.40
  C 772.30 549.80 786.31 550.13 798.24 552.89
  Q 816.68 557.14 829.56 573.63
  Q 834.05 579.39 838.47 585.64
  Q 840.21 588.10 842.87 590.07
  Q 843.28 590.38 843.72 590.11
  Q 879.00 568.08 912.37 544.55
  Q 913.56 543.71 914.56 542.59
  A 0.83 0.82 53.3 0 0 914.69 541.68
  Q 913.24 538.55 911.33 535.74
  Q 905.44 527.08 897.57 517.56
  C 874.93 490.18 844.46 473.08 809.65 469.79
  Q 789.85 467.92 769.03 468.33
  Q 757.71 468.55 749.03 470.14
  Q 727.07 474.17 708.73 483.45
  Q 660.69 507.74 645.59 559.21
  Q 643.01 568.01 642.32 576.81
  Q 640.58 599.13 643.67 623.85
  C 644.57 631.04 646.62 637.50 649.24 644.12
  Q 655.53 659.99 665.45 673.91
  C 677.42 690.70 694.84 704.82 712.59 715.21
  C 737.60 729.84 763.84 740.54 790.67 752.51
  Q 803.38 758.18 815.99 765.03
  Q 823.29 769.00 829.79 773.75
  Q 838.74 780.29 844.05 790.48
  C 848.35 798.72 848.55 809.87 847.16 818.72
  C 843.66 841.16 820.02 852.97 799.88 856.09
  Q 767.63 861.10 738.07 847.53
  C 732.30 844.88 726.99 841.02 722.11 836.88
  C 708.91 825.72 698.90 813.89 690.18 799.86
  A 0.31 0.29 58.0 0 0 689.78 799.76
  Q 653.71 820.43 617.75 841.53
  Q 615.80 842.68 613.80 843.92
  A 1.63 1.62 60.8 0 0 613.21 846.03
  Q 616.49 852.52 621.33 859.78
  Q 630.04 872.85 638.23 882.40
  Q 649.96 896.08 666.98 907.54
  C 696.24 927.23 731.43 939.33 767.32 940.82
  Q 782.68 941.46 799.02 941.17
  C 818.17 940.83 836.95 937.08 855.03 930.82
  Q 873.99 924.26 890.78 913.03
  Q 919.43 893.87 933.14 863.08
  Q 935.73 857.28 937.98 849.80
  Q 940.32 842.01 941.26 835.99"
/>
<path stroke="#80bde6" vector-effect="non-scaling-stroke" d="
  M 359.42 557.96
  L 359.42 934.76
  Q 359.42 935.70 360.36 935.76
  Q 362.64 935.91 364.91 935.92
  Q 409.00 936.06 453.07 936.00
  A 0.41 0.40 -87.7 0 0 453.47 935.62
  Q 453.58 933.74 453.58 931.83
  Q 453.62 744.47 453.63 557.62
  Q 453.63 557.24 454.00 557.24
  L 586.46 557.24
  Q 586.91 557.24 586.92 556.79
  Q 587.42 518.20 586.31 479.76
  Q 586.24 477.35 586.06 474.63
  A 0.98 0.97 -1.6 0 0 585.09 473.72
  C 568.88 473.57 552.61 473.24 536.25 473.28
  Q 516.12 473.33 496.00 473.12
  Q 485.85 473.01 476.01 473.02
  Q 404.10 473.10 335.50 473.41
  C 300.05 473.57 264.09 473.49 227.44 473.72
  Q 226.86 473.72 226.85 474.31
  L 226.13 556.68
  Q 226.12 557.24 226.68 557.24
  L 358.71 557.25
  Q 359.42 557.25 359.42 557.96"
/>
</g>
<path fill="#007acc" d="
  M 0.00 0.00
  L 1024.00 0.00
  L 1024.00 1024.00
  L 0.00 1024.00
  L 0.00 0.00
  Z
  M 941.26 835.99
  Q 941.82 832.39 942.29 828.75
  Q 946.25 797.79 938.49 768.23
  C 932.07 743.75 919.17 723.24 899.35 706.48
  Q 884.06 693.56 862.39 681.65
  C 836.19 667.24 808.76 655.75 781.83 643.65
  Q 770.23 638.43 757.75 630.72
  Q 745.06 622.89 739.02 609.94
  Q 736.08 603.65 735.61 597.62
  C 734.50 583.40 737.86 570.63 748.85 561.04
  Q 749.22 560.72 749.70 560.62
  Q 749.97 560.57 750.16 560.40
  Q 753.68 557.19 757.50 555.72
  Q 759.22 555.06 760.86 554.40
  C 772.30 549.80 786.31 550.13 798.24 552.89
  Q 816.68 557.14 829.56 573.63
  Q 834.05 579.39 838.47 585.64
  Q 840.21 588.10 842.87 590.07
  Q 843.28 590.38 843.72 590.11
  Q 879.00 568.08 912.37 544.55
  Q 913.56 543.71 914.56 542.59
  A 0.83 0.82 53.3 0 0 914.69 541.68
  Q 913.24 538.55 911.33 535.74
  Q 905.44 527.08 897.57 517.56
  C 874.93 490.18 844.46 473.08 809.65 469.79
  Q 789.85 467.92 769.03 468.33
  Q 757.71 468.55 749.03 470.14
  Q 727.07 474.17 708.73 483.45
  Q 660.69 507.74 645.59 559.21
  Q 643.01 568.01 642.32 576.81
  Q 640.58 599.13 643.67 623.85
  C 644.57 631.04 646.62 637.50 649.24 644.12
  Q 655.53 659.99 665.45 673.91
  C 677.42 690.70 694.84 704.82 712.59 715.21
  C 737.60 729.84 763.84 740.54 790.67 752.51
  Q 803.38 758.18 815.99 765.03
  Q 823.29 769.00 829.79 773.75
  Q 838.74 780.29 844.05 790.48
  C 848.35 798.72 848.55 809.87 847.16 818.72
  C 843.66 841.16 820.02 852.97 799.88 856.09
  Q 767.63 861.10 738.07 847.53
  C 732.30 844.88 726.99 841.02 722.11 836.88
  C 708.91 825.72 698.90 813.89 690.18 799.86
  A 0.31 0.29 58.0 0 0 689.78 799.76
  Q 653.71 820.43 617.75 841.53
  Q 615.80 842.68 613.80 843.92
  A 1.63 1.62 60.8 0 0 613.21 846.03
  Q 616.49 852.52 621.33 859.78
  Q 630.04 872.85 638.23 882.40
  Q 649.96 896.08 666.98 907.54
  C 696.24 927.23 731.43 939.33 767.32 940.82
  Q 782.68 941.46 799.02 941.17
  C 818.17 940.83 836.95 937.08 855.03 930.82
  Q 873.99 924.26 890.78 913.03
  Q 919.43 893.87 933.14 863.08
  Q 935.73 857.28 937.98 849.80
  Q 940.32 842.01 941.26 835.99
  Z
  M 359.42 557.96
  L 359.42 934.76
  Q 359.42 935.70 360.36 935.76
  Q 362.64 935.91 364.91 935.92
  Q 409.00 936.06 453.07 936.00
  A 0.41 0.40 -87.7 0 0 453.47 935.62
  Q 453.58 933.74 453.58 931.83
  Q 453.62 744.47 453.63 557.62
  Q 453.63 557.24 454.00 557.24
  L 586.46 557.24
  Q 586.91 557.24 586.92 556.79
  Q 587.42 518.20 586.31 479.76
  Q 586.24 477.35 586.06 474.63
  A 0.98 0.97 -1.6 0 0 585.09 473.72
  C 568.88 473.57 552.61 473.24 536.25 473.28
  Q 516.12 473.33 496.00 473.12
  Q 485.85 473.01 476.01 473.02
  Q 404.10 473.10 335.50 473.41
  C 300.05 473.57 264.09 473.49 227.44 473.72
  Q 226.86 473.72 226.85 474.31
  L 226.13 556.68
  Q 226.12 557.24 226.68 557.24
  L 358.71 557.25
  Q 359.42 557.25 359.42 557.96
  Z"
/>
<path fill="#ffffff" d="
  M 941.26 835.99
  Q 940.32 842.01 937.98 849.80
  Q 935.73 857.28 933.14 863.08
  Q 919.43 893.87 890.78 913.03
  Q 873.99 924.26 855.03 930.82
  C 836.95 937.08 818.17 940.83 799.02 941.17
  Q 782.68 941.46 767.32 940.82
  C 731.43 939.33 696.24 927.23 666.98 907.54
  Q 649.96 896.08 638.23 882.40
  Q 630.04 872.85 621.33 859.78
  Q 616.49 852.52 613.21 846.03
  A 1.63 1.62 60.8 0 1 613.80 843.92
  Q 615.80 842.68 617.75 841.53
  Q 653.71 820.43 689.78 799.76
  A 0.31 0.29 58.0 0 1 690.18 799.86
  C 698.90 813.89 708.91 825.72 722.11 836.88
  C 726.99 841.02 732.30 844.88 738.07 847.53
  Q 767.63 861.10 799.88 856.09
  C 820.02 852.97 843.66 841.16 847.16 818.72
  C 848.55 809.87 848.35 798.72 844.05 790.48
  Q 838.74 780.29 829.79 773.75
  Q 823.29 769.00 815.99 765.03
  Q 803.38 758.18 790.67 752.51
  C 763.84 740.54 737.60 729.84 712.59 715.21
  C 694.84 704.82 677.42 690.70 665.45 673.91
  Q 655.53 659.99 649.24 644.12
  C 646.62 637.50 644.57 631.04 643.67 623.85
  Q 640.58 599.13 642.32 576.81
  Q 643.01 568.01 645.59 559.21
  Q 660.69 507.74 708.73 483.45
  Q 727.07 474.17 749.03 470.14
  Q 757.71 468.55 769.03 468.33
  Q 789.85 467.92 809.65 469.79
  C 844.46 473.08 874.93 490.18 897.57 517.56
  Q 905.44 527.08 911.33 535.74
  Q 913.24 538.55 914.69 541.68
  A 0.83 0.82 53.3 0 1 914.56 542.59
  Q 913.56 543.71 912.37 544.55
  Q 879.00 568.08 843.72 590.11
  Q 843.28 590.38 842.87 590.07
  Q 840.21 588.10 838.47 585.64
  Q 834.05 579.39 829.56 573.63
  Q 816.68 557.14 798.24 552.89
  C 786.31 550.13 772.30 549.80 760.86 554.40
  Q 759.22 555.06 757.50 555.72
  Q 753.68 557.19 750.16 560.40
  Q 749.97 560.57 749.70 560.62
  Q 749.22 560.72 748.85 561.04
  C 737.86 570.63 734.50 583.40 735.61 597.62
  Q 736.08 603.65 739.02 609.94
  Q 745.06 622.89 757.75 630.72
  Q 770.23 638.43 781.83 643.65
  C 808.76 655.75 836.19 667.24 862.39 681.65
  Q 884.06 693.56 899.35 706.48
  C 919.17 723.24 932.07 743.75 938.49 768.23
  Q 946.25 797.79 942.29 828.75
  Q 941.82 832.39 941.26 835.99
  Z"
/>
<path fill="#ffffff" d="
  M 358.71 557.25
  L 226.68 557.24
  Q 226.12 557.24 226.13 556.68
  L 226.85 474.31
  Q 226.86 473.72 227.44 473.72
  C 264.09 473.49 300.05 473.57 335.50 473.41
  Q 404.10 473.10 476.01 473.02
  Q 485.85 473.01 496.00 473.12
  Q 516.12 473.33 536.25 473.28
  C 552.61 473.24 568.88 473.57 585.09 473.72
  A 0.98 0.97 -1.6 0 1 586.06 474.63
  Q 586.24 477.35 586.31 479.76
  Q 587.42 518.20 586.92 556.79
  Q 586.91 557.24 586.46 557.24
  L 454.00 557.24
  Q 453.63 557.24 453.63 557.62
  Q 453.62 744.47 453.58 931.83
  Q 453.58 933.74 453.47 935.62
  A 0.41 0.40 -87.7 0 1 453.07 936.00
  Q 409.00 936.06 364.91 935.92
  Q 362.64 935.91 360.36 935.76
  Q 359.42 935.70 359.42 934.76
  L 359.42 557.96
  Q 359.42 557.25 358.71 557.25
  Z"
/>
</svg>
